<?xml version="1.0" encoding="UTF-8"?>
<svg id="Layer_2" data-name="Layer 2" xmlns="http://www.w3.org/2000/svg" viewBox="0 0 960.99 354.84">
  <defs>
    <style>
      .cls-1 {
        fill: #fff;
      }
    </style>
  </defs>
  <g id="Layer_2-2" data-name="Layer 2">
    <g id="Layer_1-2" data-name="Layer 1-2">
      <g id="ufNYDR.tif">
        <g>
          <path class="cls-1" d="M543.94,221.16c-31.53,0-63.06-.01-94.59-.02-.66,0-1.4-.12-1.97,.12-.55,.23-1.25,.81-1.34,1.33-1.52,8.27-1.98,16.62-1.16,24.99,.88,9.03,3.06,17.72,6.9,26.02,2.76,5.97,6.09,11.58,10.31,16.58,3.3,3.91,7.13,7.38,10.77,11,4.18,4.16,9.03,7.44,14.15,10.33,4.24,2.39,8.62,4.52,13.36,5.76,4.37,1.14,8.72,2.5,13.16,3.25,3.58,.61,7.3,.6,10.95,.6,4.66,0,9.34,0,13.96-.48,4.77-.49,9.42-1.71,14.02-3.19,4.98-1.6,9.71-3.69,14.24-6.24,8.07-4.53,15.17-10.31,21.32-17.21,4.46-5.01,8.44-10.37,11.53-16.35,2.52-4.9,4.79-9.9,6.31-15.22,.18-.64,.82-1.36,1.44-1.63,.82-.37,1.82-.48,2.75-.48,9.38,0,18.76,.02,28.14,.06,2.52,.01,2.99,.53,2.48,3.02-.35,1.67-.95,3.29-1.45,4.92-1.21,3.96-2.2,8.01-3.7,11.85-1.66,4.26-3.74,8.36-5.75,12.47-3.07,6.28-6.89,12.13-11.39,17.45-4.28,5.06-8.78,9.97-13.56,14.55-4.06,3.89-8.53,7.4-13.08,10.71-3.46,2.52-7.22,4.72-11.07,6.63-5.42,2.69-10.94,5.23-16.6,7.36-3.79,1.42-7.9,2.03-11.87,2.97-1.99,.47-3.98,.97-6,1.24-3.73,.5-7.47,1.15-11.21,1.18-7.81,.05-15.65-.02-23.44-.54-5.11-.34-10.14-1.54-15.14-2.86-6.61-1.74-13.03-3.93-19.16-6.88-4.16-2-8.12-4.46-12.08-6.87-5.34-3.24-10.26-7.05-14.9-11.24-2.13-1.93-4.52-3.6-6.46-5.7-3.14-3.42-6.14-6.99-8.96-10.68-2.88-3.78-5.56-7.71-8.15-11.7-1.7-2.62-3.22-5.37-4.55-8.2-1.62-3.44-3.05-6.99-4.39-10.55-2.07-5.49-3.78-11.09-4.68-16.92-.53-3.49-1.25-6.96-1.76-10.45-.28-1.91-.39-3.87-.4-5.8-.04-7.03-.57-14.07,.8-21.07,.8-4.12,1.15-8.32,1.84-12.46,.31-1.82,.95-3.59,1.5-5.37,.59-1.89,1.23-3.77,1.92-5.63,1.08-2.89,2.13-5.79,3.35-8.62,1.33-3.09,2.75-6.15,4.31-9.14,1.15-2.2,2.47-4.33,3.9-6.36,2.79-3.97,5.5-8.03,8.61-11.74,5.33-6.36,11.13-12.28,17.74-17.35,2.94-2.25,5.72-4.73,8.75-6.84,2.38-1.65,4.99-3.03,7.6-4.3,5.1-2.47,10.2-4.96,15.44-7.09,3.29-1.34,6.81-2.2,10.3-2.99,5.5-1.24,11.04-2.25,16.58-3.3,1.14-.22,2.32-.24,3.48-.3,10.28-.51,20.55-.38,30.7,1.44,5.1,.91,10.22,2.04,15.1,3.74,5.92,2.06,11.72,4.57,17.35,7.35,6.39,3.16,12.2,7.29,17.88,11.63,5.35,4.09,10.13,8.76,14.69,13.61,3.77,4.01,7.13,8.47,10.21,13.05,3.26,4.84,6.01,10.03,8.91,15.11,3.46,6.06,5.1,12.81,7.24,19.36,1.05,3.2,1.7,6.52,2.5,9.79,.44,1.8,.04,2.23-1.93,2.23-31.92,0-63.83-.01-95.75-.02v.07s0-.02,0-.02Zm46.21-32.74c-.43-1.03-.65-1.59-.91-2.14-.12-.24-.32-.45-.5-.66-3.4-4.01-7.18-7.63-11.31-10.9-5.08-4.02-10.38-7.69-16.41-10.15-3.73-1.52-7.41-3.26-11.27-4.34-4.24-1.19-8.63-2.16-13-2.46-10.06-.68-20.16-1-30.03,1.86-1.57,.46-3.13,.99-4.72,1.32-5.13,1.06-9.93,3.08-14.29,5.79-5.28,3.28-10.3,7.03-15.14,10.94-3.08,2.48-5.65,5.59-8.39,8.47-.4,.42-.47,1.15-.84,2.13,42.49,.28,84.48,.03,126.82,.14v.02Z"/>
          <path class="cls-1" d="M863.24,221.18c-31.08,0-62.17,0-93.25-.01-.83,0-1.67,.04-2.5,0-1.28-.05-1.79,.54-2.08,1.8-1.87,7.88-1.46,15.85-1.22,23.84,.17,5.64,1.27,11.13,2.88,16.46,2.51,8.33,6.12,16.2,11.44,23.2,3.75,4.92,7.54,9.83,12.29,13.81,5.42,4.55,10.73,9.31,17.33,12.23,3.33,1.47,6.54,3.31,9.98,4.45,3.9,1.3,7.99,2.07,12.01,2.98,9.11,2.04,18.33,1.52,27.49,.74,6.69-.57,13.21-2.39,19.41-4.99,5.8-2.44,11.31-5.43,16.44-9.18,7.16-5.25,13.41-11.43,18.77-18.41,3.23-4.22,5.82-8.99,8.24-13.75,2-3.95,3.31-8.25,4.99-12.37,.2-.49,.74-.98,1.23-1.17,.76-.29,1.62-.46,2.43-.46,9.49,0,18.98,0,28.47,.04,2.86,.02,3.14,.64,2.26,3.35-1.2,3.73-2.11,7.56-3.34,11.28-1.18,3.56-2.38,7.14-3.97,10.53-2.15,4.6-4.49,9.13-7.09,13.49-3.74,6.28-8,12.23-13.21,17.4-4.79,4.76-9.5,9.64-14.67,13.95-4.26,3.55-9.02,6.56-13.79,9.43-4.32,2.6-8.84,4.98-13.49,6.94-4.26,1.79-8.8,2.93-13.24,4.28-2.38,.72-4.78,1.43-7.22,1.87-3.87,.7-7.76,1.52-11.67,1.64-8.15,.27-16.32,.45-24.45,.02-6.22-.33-12.43-1.39-18.42-3.34-3.88-1.26-7.83-2.32-11.62-3.8-4.01-1.56-8.04-3.22-11.77-5.36-5.31-3.04-10.55-6.29-15.46-9.93-7.47-5.54-14.03-12.09-20.02-19.25-4.38-5.24-8.33-10.77-11.68-16.66-2.63-4.62-4.69-9.59-6.82-14.48-1.3-2.97-2.5-6.02-3.3-9.15-1.18-4.64-1.79-9.43-2.95-14.08-1.21-4.85-1.31-9.79-1.36-14.69-.07-7.13-.38-14.3,1.08-21.38,.69-3.35,1.05-6.78,1.74-10.13,.47-2.26,1.21-4.47,1.9-6.68,.86-2.73,1.61-5.52,2.75-8.13,2.24-5.1,4.44-10.25,7.17-15.1,2.53-4.5,5.56-8.76,8.66-12.91,5.12-6.85,11.03-13.01,17.59-18.51,2.71-2.27,5.34-4.67,8.27-6.61,4.44-2.95,9.02-5.72,13.73-8.24,4.11-2.2,8.43-4.04,12.74-5.83,2.49-1.04,5.13-1.77,7.74-2.45,3.79-.99,7.58-2.02,11.43-2.64,6.34-1.01,12.72-1.88,19.18-1.65,4.05,.14,8.12-.04,12.14,.34,4.4,.41,8.76,1.25,13.13,1.99,2.78,.47,5.55,1.02,8.28,1.72,1.9,.49,3.72,1.29,5.58,1.94,1.4,.49,2.85,.88,4.21,1.45,3.39,1.44,6.86,2.75,10.1,4.49,4.9,2.63,9.71,5.45,14.4,8.44,2.83,1.81,5.47,3.96,7.98,6.2,3.71,3.31,7.43,6.64,10.77,10.3,3.57,3.9,6.9,8.06,9.98,12.36,3.18,4.44,6.04,9.11,8.82,13.81,2.47,4.17,4.33,8.68,5.75,13.31,1.93,6.27,3.6,12.62,5.35,18.95,.51,1.85,.16,2.25-1.82,2.25-10.04,0-20.09-.01-30.13-.01-21.87,0-43.74,0-65.61-.01v.03s.02,.03,.02,.03Zm-17.63-32.68v-.06c18.26,0,36.51,0,54.77,0,2.22,0,4.43-.08,6.65-.22,.65-.04,1.28-.38,1.91-.58-.3-.67-.45-1.47-.92-1.99-6.22-6.86-12.93-13.19-21.14-17.65-3.81-2.07-7.74-3.97-11.76-5.6-2.99-1.21-6.19-1.94-9.33-2.73-5.05-1.26-10.15-2.31-15.41-2.19-2.83,.06-5.67-.12-8.49,.02-3.2,.16-6.43,.37-9.58,.93-3.85,.68-7.67,1.62-11.43,2.69-3.01,.85-6.05,1.76-8.83,3.16-4.09,2.05-8.14,4.28-11.85,6.93-4.48,3.21-8.63,6.89-12.84,10.46-1.34,1.14-2.48,2.54-3.6,3.91-.41,.5-.76,1.32-.65,1.89,.08,.4,.98,.75,1.57,.89,.74,.17,1.54,.13,2.32,.13,19.53,0,39.06,0,58.6,0h.01Z"/>
          <path class="cls-1" d="M34.5,156.69c1.66-1.49,3.24-3.09,5-4.46,4.4-3.42,8.7-7.01,13.37-10.01,5.37-3.45,10.95-6.69,16.74-9.37,5.18-2.39,10.54-4.54,16.26-5.55,5.28-.93,10.5-2.24,15.81-2.96,4.43-.6,8.95-.6,13.43-.83,7.36-.38,14.66,.4,21.86,1.68,5.63,1,11.16,2.7,16.65,4.37,3.69,1.12,7.34,2.49,10.82,4.14,8.62,4.07,16.87,8.87,24.08,15.14,5.5,4.78,10.92,9.75,15.72,15.21,4.39,5,8.08,10.66,11.74,16.25,4.24,6.48,7.39,13.56,9.86,20.9,2.71,8.04,4.74,16.25,5.32,24.75,.31,4.47,1.07,8.96,.86,13.41-.33,7.07-1.1,14.13-2.03,21.15-.84,6.31-2.77,12.37-4.89,18.38-2.81,7.97-6.52,15.44-11.26,22.41-2.29,3.37-4.4,6.92-7.05,9.99-3.74,4.34-7.81,8.42-11.91,12.43-2.96,2.89-6.07,5.67-9.35,8.19-3.59,2.75-7.33,5.33-11.23,7.61-4.03,2.36-8.29,4.35-12.53,6.34-2.82,1.32-5.73,2.53-8.7,3.48-3.51,1.13-7.11,2.01-10.71,2.84-3.11,.71-6.26,1.34-9.43,1.73-3.62,.45-7.28,.83-10.93,.86-6.43,.05-12.9,.12-19.3-.39-5.71-.45-11.45-1.24-16.94-3.14-5.11-1.77-10.4-3.09-15.33-5.24-5.35-2.33-10.46-5.24-15.51-8.18-3.27-1.91-6.26-4.3-9.34-6.54-7.65-5.56-14.22-12.31-20.19-19.54-5.76-6.98-10.77-14.59-14.41-22.96-2.07-4.75-4.19-9.5-5.79-14.41-1.34-4.11-1.91-8.48-2.89-12.71C-.19,250.96,0,240.09,0,229.22c0-46.6,.01-93.2,.02-139.8,0-1.55,0-3.11,0-4.66,0-2.31,.27-2.6,2.55-2.59,7.77,.03,15.54,.07,23.31,.09,1.94,0,3.89,0,5.83-.07,1.46-.05,2.09,.5,2.09,2.04-.04,9.21,0,18.41-.01,27.62,0,14.08-.03,28.16-.04,42.25,0,.76,.14,1.52,.22,2.28,.18,.11,.37,.21,.55,.32h-.02Zm82.26,.22c-.02,.15-.04,.3-.05,.45-.78,0-1.56-.06-2.33,0-5.46,.48-11.01,.57-16.36,1.61-4.72,.92-9.25,2.86-13.81,4.48-5.62,1.99-10.72,5.04-15.49,8.54-5.48,4.02-10.55,8.54-15.03,13.71-4.44,5.13-8.19,10.69-11.29,16.7-2.25,4.37-3.96,8.94-5.33,13.69-1.74,6.06-2.48,12.25-3.07,18.46-.5,5.24-.21,10.52,.77,15.73,.94,4.98,1.63,10.04,3,14.9,.98,3.51,2.94,6.75,4.37,10.15,3,7.13,7.68,13.15,12.74,18.84,5.64,6.34,12.24,11.66,19.42,16.2,1.72,1.09,3.51,2.11,5.38,2.89,3.61,1.5,7.25,2.98,10.97,4.13,4.16,1.28,8.39,2.83,12.66,3.11,7.95,.52,15.97,.51,23.93,.11,4.92-.25,9.78-1.53,14.52-3.18,4.27-1.49,8.47-3.04,12.47-5.18,5.05-2.71,9.78-5.84,14.12-9.56,5.98-5.13,11.45-10.77,15.87-17.32,2.37-3.52,4.73-7.13,6.47-10.98,2.03-4.51,3.58-9.27,4.99-14.02,1.72-5.81,2.33-11.86,2.47-17.88,.11-5.02-.36-10.07-.84-15.08-.75-7.71-2.94-15.06-6.17-22.1-3.2-6.99-7.39-13.32-12.4-19.13-5.37-6.23-11.38-11.75-18.31-16.18-2.97-1.9-6.04-3.7-9.24-5.18-3.32-1.53-6.83-2.67-10.3-3.86-2.4-.82-4.82-1.72-7.31-2.09-5.58-.82-11.2-1.32-16.8-1.95h-.02Z"/>
          <path class="cls-1" d="M237.11,286.44c0-17.8,.08-35.61-.03-53.41-.04-6.97,.72-13.84,1.85-20.66,1.17-7.1,3.27-13.97,5.95-20.65,3.19-7.98,7.21-15.58,12.39-22.4,4.34-5.71,9.09-11.17,14.18-16.23,4.17-4.15,8.94-7.76,13.75-11.18,4.17-2.97,8.63-5.63,13.23-7.9,4.52-2.23,9.29-4.02,14.09-5.57,4.64-1.5,9.45-2.52,14.22-3.61,7.06-1.62,14.27-1.98,21.48-2.03,3.31-.03,6.63,.47,9.95,.7,1.88,.13,3.77,.35,5.65,.29,1.75-.06,2.27,.79,2.28,2.29,0,1.83,0,3.65,0,5.48,.05,8.32,.1,16.64,.14,24.95,0,2.01-.23,2.27-2.19,2.14-2.49-.17-4.97-.44-7.45-.68-6.69-.66-13.37-1.02-20.04,.36-3.02,.63-6.12,.91-9.11,1.66-2.82,.71-5.6,1.66-8.28,2.79-3.08,1.31-6.18,2.7-9.01,4.48-3.96,2.49-7.92,5.1-11.44,8.16-3.86,3.35-7.45,7.09-10.75,11-2.65,3.15-4.72,6.79-6.99,10.24-2.73,4.14-4.09,8.88-5.83,13.45-.76,2-1.18,4.15-1.63,6.25-1.46,6.81-1.59,13.72-1.53,20.65,.06,8.08-.05,16.17-.05,24.25,0,6.47,.08,12.94,.07,19.41,0,6.92-.11,13.85-.12,20.77,0,8.46,.06,16.92,.08,25.37,.02,7.86,0,15.72,.04,23.59,0,1.42-.79,1.91-1.93,1.97-2.05,.1-4.1,.08-6.15,.08h-24.14c-2.56,0-2.65-.12-2.65-2.6v-63.4s0,0,0,0h-.01Z"/>
          <path class="cls-1" d="M690.78,170.2c0-7.87,0-15.73,0-23.6,0-9.69,.03-19.39,.03-29.08,0-8.09-.04-16.19-.04-24.28,0-3.14,.04-6.28,.16-9.41,.02-.42,.57-.92,1-1.17,.34-.2,.86-.11,1.31-.11,9.49,0,18.98,0,28.47,.01,.72,0,1.44,.04,2.16,.1,.99,.08,1.44,.62,1.44,1.65-.08,11.86-.17,23.72-.22,35.59-.03,9.59,0,19.19,0,28.78,0,15.02,.04,30.05,0,45.07-.02,8.54-.23,17.08-.26,25.62-.03,7.87,.09,15.74,.12,23.61,.02,5.38,.03,10.75,0,16.13-.03,6.92-.14,13.85-.13,20.77,.06,23.01,.14,46.03,.22,69.04,0,.72,.18,1.52-.08,2.14-.28,.68-.86,1.41-1.51,1.71-.7,.32-1.61,.22-2.43,.22-7.6-.02-15.21-.04-22.81-.09-1.88-.01-3.76-.1-5.64-.21-1.35-.08-1.88-.82-1.88-2.2,.05-15.9,.07-31.8,.08-47.7,.01-14.39,.03-28.78,.04-43.17,0-15.02-.05-30.03-.03-45.05,0-7.53,.12-15.05,.15-22.58,.03-7.26,0-14.52,0-21.78h-.16s.01-.01,.01-.01Z"/>
          <path class="cls-1" d="M680.79,217.56c0,11.81,0,23.61,0,35.42,0,19.24-.02,38.48,0,57.72,0,12.03,.06,24.06,.08,36.08,0,1.39,0,2.77-.05,4.15-.05,1.24-.36,1.96-2,1.85-2.94-.21-5.92,0-8.88,0-5.7,0-11.39-.04-17.09-.06-1.49,0-2.98-.05-4.46,.02-1.11,.05-1.51-.51-1.55-1.48-.03-.72,0-1.44,0-2.16,0-86.47,0-172.94,.01-259.41,0-1.33,.01-2.66,.02-3.99,.02-3.15,.01-3.17,3.09-3.17,8.99,0,17.98,.02,26.97,.06,4.01,.01,3.92,.03,3.91,4.1-.04,15.2-.01,30.39-.03,45.59,0,13.91-.02,27.83-.02,41.74,0,13.8,.04,27.59,.06,41.39v2.16s-.04,0-.07,0h.01Z"/>
          <path class="cls-1" d="M371.73,239.76c0-18.52,0-37.05,0-55.57s.05-36.6,.07-54.9c0-.61-.04-1.28,.2-1.8,.21-.44,.81-.98,1.23-.98,10.09,0,20.17,.03,30.26,.11,2.09,.02,2.37,.37,2.37,2.47-.02,29.56-.05,59.13-.06,88.69v31.78c0,23.4-.02,46.8-.02,70.2,0,9.6,.02,19.19,.04,28.79,0,.67,.02,1.33-.03,2-.15,2.09-.62,2.35-2.7,2.29-3.12-.1-6.25,0-9.37,0-2.82,0-5.63,.03-8.45,0-3.86-.03-7.72-.16-11.58-.1-1.56,.02-1.95-.71-1.94-2,0-2.94,.03-5.88,.03-8.82,0-25.29-.01-50.58,0-75.88,0-8.76,0-17.52,0-26.29h-.05s0,0,0,0Z"/>
          <path class="cls-1" d="M405.85,99.4c0,4.99-.04,9.98,.02,14.97,.02,1.43-.46,1.95-1.92,1.95-9.93-.03-19.85,.02-29.78,.02-2.11,0-2.41-.3-2.41-2.25-.02-9.87,0-19.74,0-29.6,0-1.3,.55-1.93,1.9-1.93,10.26,.02,20.52,.02,30.79,0,1.1,0,1.43,.52,1.43,1.55-.03,5.1-.01,10.2-.01,15.3h0Z"/>
          <path class="cls-1" d="M296.21,27.59c0,4.22,.31,8.46-.09,12.64-.38,3.93,1.52,5.78,4.7,7.14,6.01,2.57,11.67,.05,14.03-6.41,1.76-4.83,2.53-9.77,2.19-14.84-.35-5.34-1.47-10.6-4.91-14.87-4.41-5.48-10.41-7.26-17.14-5.68-3.82,.9-7.01,3.19-8.26,7.19-.27,.87,.41,2.19,.95,3.13,1.05,1.83,1.1,2.36-.28,3.74-1.68,1.69-2.8,1.94-4.33,.95-2.57-1.67-3.63-5.06-2.67-8.04,1.58-4.9,4.63-8.53,9.29-10.69,3.58-1.66,7.42-1.89,11.34-1.85,6.65,.07,11.62,3.4,15.67,8.12,1.85,2.16,2.94,5.03,4.09,7.7,1.88,4.34,2.41,9.03,2.15,13.65-.33,5.83-1.36,11.63-4.61,16.71-1.88,2.94-4.44,5.1-7.75,6.48-5.58,2.33-10.54,.8-15.21-2.24-3.22-2.1-6.14-4.64-9.33-6.79-1.88-1.27-3.94-2.42-6.08-3.16-3.37-1.16-7.84,1.51-7.56,4.76,.14,1.68,1.59,3.48,3.26,3.71,1.54,.21,2.23-.32,2.41-1.88,.25-2.19,1.33-3.19,3.6-3.32,1.46-.08,3.42,1.47,3.76,2.97,.31,1.38-1.31,4.85-2.68,5.78-3.67,2.47-9.33,2.69-12.86-.38-3.91-3.4-5.18-10.17,.04-14.36,3.86-3.09,8.28-3.47,12.85-1.83,1.86,.67,3.64,1.6,5.43,2.46,1.64,.79,2.4,.41,2.42-1.47,.04-5.05,.06-10.09-.03-15.14-.05-2.98-.35-5.95-.49-8.92-.02-.39,.12-1.07,.36-1.16,1.44-.52,2.9-1.12,4.41-1.29,1.29-.15,1.31,1.1,1.32,2.05,.02,3.55,0,7.1,.02,10.65v4.49h-.01Z"/>
          <path class="cls-1" d="M428.1,8.29c-1.76-2.95-6.15-1.94-8.33-.17-3.59,2.91-3.34,6.66,.28,9.58,2.77,2.23,6.03,3.45,9.2,4.79,3.17,1.35,6.16,2.98,8.43,5.45,1.73,1.88,3.38,4.12,3.28,7.04-.09,2.75,.16,5.51-1.29,8.07-1.7,2.99-3.66,5.59-6.81,7.36-3.47,1.95-7.08,2.46-10.89,2.19-5.81-.41-10.61-3.06-13.28-8.12-3.05-5.81-1.37-11.2,4.56-14.68,2.98-1.75,6.21-2.11,9.45-.98,5.25,1.83,7.67,7.13,4.46,11.92-1.4,2.09-5.08,2.67-6.76,1.08-1.77-1.67-1.37-4.43,.78-5.53,.35-.18,.93-.64,.88-.78-.2-.53-.5-1.18-.95-1.43-3.2-1.73-7.44,.8-7.77,4.41-.37,3.99,2.54,6.73,5.65,7.77,1.11,.37,2.19,.88,3.32,1.07,6.88,1.12,13.84-4.2,12.58-12.18-.48-3.06-2.22-4.79-4.58-6.07-2.8-1.52-5.86-2.57-8.69-4.04-3.46-1.8-6.92-3.55-8.99-7.25-2.44-4.37-1.41-9.79,2.42-12.99,3.25-2.72,6.88-3.92,10.9-3.35,4.84,.69,7.74,2.09,9.46,7.08,1.06,3.07-1.05,6.43-3.94,6.42-3.25,0-5.14-3.24-3.56-6.1,.1-.19,.14-.41,.2-.57h-.01Z"/>
          <path class="cls-1" d="M680.37,40.63c.81-1.62,1.89-3.17,2.37-4.89,1.07-3.87,2-7.79,2.68-11.74,.4-2.3-.3-2.99-2.51-3.79-1.47-.53-2.45-2.34-2.28-4.21,.15-1.7,1.37-3.07,2.89-3.4,4.04-.87,6.25,1,6.94,5.73,.75,5.18-.18,10.25-1.94,15.16-1.34,3.74-2.63,7.5-3.99,11.23-.41,1.14-.96,2.22-1.45,3.33-.07,.15-.16,.39-.26,.4-1.8,.13-3.61,.42-5.38,.24-.61-.06-1.34-1.23-1.6-2.02-1.85-5.67-3.59-11.38-5.39-17.06-.11-.36-.62-.93-.74-.89-.46,.18-1.08,.49-1.22,.9-.99,2.92-1.89,5.87-2.8,8.82-.92,3.01-1.76,6.04-2.79,9.01-.2,.58-1.01,1.04-1.64,1.36-.4,.2-.98,.07-1.48,.06-4.21-.07-4.52-.42-5.31-4.59-.63-3.3-1.51-6.56-2.25-9.84-.57-2.53-1.06-5.09-1.67-7.61-.66-2.72-1.37-5.43-2.18-8.1-.66-2.2-.07-3.14,2.16-3.06,3.47,.11,3.35,.13,3.98,3.6,.54,2.98,1.42,5.89,2.12,8.84,.57,2.41,1.08,4.83,1.62,7.25,.12,.54,.15,1.13,.42,1.59,.18,.32,.68,.59,1.06,.62,.23,.02,.61-.43,.73-.74,.84-2.33,1.62-4.68,2.44-7.01,1.22-3.48,2.47-6.94,3.69-10.42,.15-.42,.27-.85,.33-1.28,.19-1.46,.92-2.38,2.46-2.38s2.33,.6,2.81,2.21c1.32,4.39,2.91,8.7,4.38,13.04,1.08,3.17,2.15,6.35,3.22,9.53,.2,.05,.4,.09,.6,.14l-.02-.03Z"/>
          <path class="cls-1" d="M549.11,48.73c-1.77,0-3.5,.11-5.2-.03-.28-.02-.69-1.04-.69-1.6-.06-6.65-.06-13.31-.06-19.96,0-4.02-2.45-6.26-6.45-5.85-4.17,.42-6.54,2.39-7.38,6.52-.49,2.41-.75,4.9-.79,7.37-.07,4.15,.14,8.3,.14,12.45,0,.4-.6,1.09-.98,1.14-1.26,.15-2.55,.14-3.81,.02-.36-.03-.95-.64-.95-.99,.02-3.65,.21-7.3,.21-10.95,0-6.04-.16-12.08-.09-18.12,0-.68,.97-1.54,1.7-1.96,.72-.41,1.71-.48,2.58-.46,1.27,.03,1.01,1.16,1.27,1.98,.42,1.32,1.32,.81,1.9,.21,2.46-2.54,5.56-2.56,8.76-2.46,2.97,.1,5.08,1.66,6.9,3.79,1.4,1.63,2.01,1.7,3.32-.14,3.94-5.53,14.98-5.29,18.28,2.32,.71,1.64,1.02,3.54,1.09,5.34,.13,3.22-.14,6.46-.11,9.68,.03,3.38,.15,6.77,.35,10.15,.06,1.07-.25,1.57-1.27,1.69-.11,0-.22,.02-.33,.03-4.27,.38-4.32,.33-4.32-4,0-6.04-.13-12.09-.02-18.13,.06-3.08-2.59-5.97-6.16-5.53-4.42,.55-7.02,2.62-7.55,7.1-.5,4.21-.49,8.49-.66,12.74-.07,1.76-.04,3.52,0,5.27,0,.64,.17,1.28,.33,2.39h-.01Z"/>
          <path class="cls-1" d="M498.85,48.81c-1.47,0-3.11,.1-4.72-.08-.36-.04-.87-1.05-.88-1.62-.07-6.66-.07-13.31-.07-19.97,0-4.03-2.42-6.26-6.43-5.86-4.18,.42-6.54,2.37-7.38,6.5-.49,2.41-.76,4.9-.8,7.36-.07,4.15,.14,8.3,.17,12.45,0,.37-.36,.84-.69,1.08-.27,.2-.74,.15-1.13,.17-3.95,.17-3.84,.17-3.8-3.73,.08-8.26,.04-16.53,.04-24.8,0-.84-.35-2.13,.06-2.44,.99-.77,2.29-1.2,3.53-1.56,1.14-.33,1.71,.28,1.83,1.49,.15,1.49,.8,1.75,1.9,.71,3.42-3.24,7.47-3.09,11.49-1.91,1.57,.46,2.93,1.93,4.15,3.17,1.54,1.57,2.1,1.74,3.36-.04,4.15-5.84,15.49-5.29,18.43,2.69,1.1,3,.87,6.54,1.01,9.84,.16,3.8,.04,7.62,.07,11.43,0,1.26,.22,2.53,.12,3.79-.04,.46-.65,1.19-1.07,1.25-1.25,.18-2.54,.13-3.82,.07-1.12-.05-1.03-.95-1.03-1.74,0-4.94,.02-9.87,.02-14.81,0-1.78-.13-3.56,0-5.32,.23-3.41-2.62-6.26-6.45-5.67-4.14,.64-6.78,2.74-7.23,6.86-.46,4.28-.5,8.6-.65,12.91-.08,2.4-.01,4.81-.01,7.79h0Z"/>
          <path class="cls-1" d="M228.51,3c3.94,0,7.88-.04,11.81,.01,2.29,.03,2.9,.9,2.45,3.17-.07,.37-.18,.8-.06,1.13,.59,1.72-.51,1.72-1.67,1.71-5.65-.06-11.31-.2-16.96-.15-3.9,.04-3.92,.16-4.02,4.08-.04,1.38-.01,2.77,0,4.15,.02,1.32,.83,1.44,1.93,1.33,3.34-.33,6.73-1.02,10.04-.77,5.41,.4,10.6,4.23,12.73,9.59,2.58,6.49,.61,11.9-3.26,17.16-3.37,4.59-8,7.23-13.11,9.21-5.03,1.94-10.29,1.88-15.56,1.37-1.69-.17-2-.65-1.85-2.77,.12-1.79,.71-2.38,2.32-2.33,1.5,.04,2.99,.1,4.49,.12,7.86,.07,14.13-3.37,19.06-9.17,2.44-2.87,3.67-6.53,2.69-10.39-.72-2.82-2.62-5.12-5.2-6.36-2.71-1.3-5.71-1.75-8.75-.73-1.83,.61-3.7,1.08-5.56,1.61-1.81,.52-5.67-1.05-6.2-2.77-.36-1.16-.18-2.49-.18-3.75,.02-4.35,.03-8.69,.12-13.04,.03-1.7,1.08-2.44,3.1-2.44h11.65s0,.02,0,.02h-.01Z"/>
          <path class="cls-1" d="M379.46,33.83c0,5.16,.15,10.32-.07,15.46-.09,2.15-.61,4.45-1.56,6.37-1.78,3.57-5.07,5.24-8.91,6.2-5.74,1.43-13.63-1.75-16.22-5.68-1.02-1.55-1.27-3.17-.82-4.91,.51-1.98,2.3-3.02,4.69-2.78,2.03,.2,3.29,1.55,3.38,3.62,0,.22,0,.44,0,.67-.09,3.4,.42,3.88,3.92,4.5,3.67,.65,6.53-.51,8.68-3.49,.37-.52,.67-1.18,.74-1.81,.19-1.81,.31-3.64,.33-5.46,.02-1.37-.8-1.87-1.76-1.03-3.32,2.87-7.3,2.52-11.1,2.03-2.85-.36-7.38-4.22-7.44-7.97-.09-6.04-.15-12.08-.26-18.12-.02-.87-.18-1.74-.37-2.59-.3-1.35,.8-1.67,1.58-2.17,.39-.25,.96-.21,1.46-.27,2.53-.28,2.75-.06,2.74,2.5-.02,5.88-.16,11.76,0,17.63,.11,4.07,2.29,6.23,6.49,6.23,5.29,.01,8.18-3.96,8.43-8.38,.25-4.41,.07-8.85,.07-13.28,0-.88-.09-1.76,0-2.62,.04-.38,.32-.84,.63-1.06,.54-.37,1.17-.65,1.79-.86,2.75-.94,3.61-.38,3.63,2.47,.04,4.93,0,9.87,0,14.8h-.08s.02,0,.02,0Z"/>
          <path class="cls-1" d="M586.58,48.98c-5.84,.26-10.09-3.23-12.99-8.2-2.74-4.69-2.73-9.91-.88-15.06,1.41-3.92,3.86-6.9,7.7-8.67,2.63-1.21,5.4-1.06,8.16-.97,5.27,.18,8.75,3.31,11.69,7.25,1.11,1.48,.83,2.45-.82,3.44-5.21,3.11-10.42,6.24-15.64,9.33-1.09,.65-2.3,1.11-3.35,1.82-1.62,1.09-1.49,2.21,.04,3.38,2.37,1.81,4.92,2.82,7.96,2.73,2.73-.08,4.9-1.3,6.94-2.87,.97-.75,1.36-1.61,.47-2.96-1.82-2.74-1.31-4.79,1.18-6.05,2.3-1.16,5.69,.8,5.8,3.37,.12,2.89-.85,5.46-2.66,7.63-3.26,3.91-7.84,6.24-13.6,5.81v.02Zm-9.47-18.68c-.05,.66-.12,.94-.07,1.2,.11,.58,.12,1.36,.49,1.64,.28,.22,1.1-.13,1.6-.37,1.18-.58,2.34-1.21,3.48-1.88,3.26-1.94,6.5-3.91,9.76-5.85,1-.59,1.21-1.61,.25-2.21-1.13-.71-2.4-1.33-3.69-1.65-2.23-.56-4.66-.69-6.6,.62-3.08,2.07-5.2,4.91-5.21,8.5h0Z"/>
          <path class="cls-1" d="M342.93,46.26c-.43,.18-.78,.23-1.01,.43-2.28,2.01-5.03,2.32-7.91,2.32-6.79,0-11.89-7.27-8.7-14.27,1.55-3.41,4.48-4.72,7.71-5.94,3.08-1.16,6.02-2.69,8.93-4.24,.6-.32,1.23-1.56,1.06-2.14-.24-.8-1.15-1.86-1.9-1.97-1.94-.29-3.96-.24-5.93-.1-1.33,.1-1.69,1.21-1.74,2.44-.09,2.46-1.47,3.75-3.8,3.63-2.63-.14-3.85-1.44-3.74-4.01,.12-2.88,2.31-5.2,4.98-6.3,3.16-1.31,6.32-1.34,9.57-1.09,5.05,.39,8.46,3.61,8.57,8.72,.12,5.76,.05,11.53,.1,17.29,.02,2.1,.07,4.21,.22,6.3,.08,1.08-.44,1.41-1.33,1.45-1.05,.04-2.13,.15-3.15-.05-.55-.11-1.05-.73-1.45-1.22-.25-.3-.3-.78-.48-1.27v.02Zm.19-15.71c-3.61,1.34-6.99,2.37-10.17,3.82-3.98,1.82-4.05,5.43-1.94,7.84,1.6,1.83,5.43,2.19,7.67,1.01,2.64-1.39,4.01-3.63,4.39-6.41,.26-1.97,.05-4,.05-6.26Z"/>
          <path class="cls-1" d="M731.13,19.39c1.25-.79,2.23-1.48,3.27-2.05,7.13-3.93,16.46,.36,16.56,9.18,.06,5.04-.06,10.09-.05,15.14,0,1.93,.2,3.87,.17,5.8,0,.46-.56,.92-.9,1.36-.07,.09-.32,.05-.48,.07-4.27,.35-4.22,.35-4.2-3.86,.03-5.82,0-11.64-.03-17.47,0-2.02-.74-3.8-2.24-5.16-.53-.48-1.27-.9-1.97-1-4.37-.62-8.73,.99-9.61,6.08-.41,2.38-.83,4.79-.86,7.19-.05,4.37,.19,8.74,.27,13.11,0,.32-.35,.7-.64,.95-.18,.15-.53,.15-.8,.15-5.26-.13-4.32,.78-4.21-4.15,.15-7.26,.01-14.52,0-21.79,0-4.99,.05-9.97-.04-14.96-.07-3.62-.13-3.54,3.5-4.27,1.64-.33,1.81,.46,1.82,1.67,.06,4.05,.12,8.09,.19,12.14,0,.52,.14,1.04,.26,1.86h-.01Z"/>
          <path class="cls-1" d="M461.59,45.74c-.86,.65-1.5,1.17-2.17,1.64-3.14,2.23-6.81,2.09-10.04,1.04-2.86-.94-5.51-3.24-5.89-6.62-.45-3.95-.37-7.95-.45-11.94-.06-3.05,0-6.1-.02-9.14,0-.44-.02-.9-.13-1.31-.4-1.42,.06-2.37,1.46-2.79,.42-.13,.87-.17,1.31-.23,2.45-.32,2.74-.06,2.74,2.33,0,6.6,.08,13.2-.03,19.79-.08,4.75,4.92,6.27,8.19,4.81,3.63-1.61,5.28-4.67,5.39-8.44,.16-5.14,.04-10.3-.03-15.44-.02-1.28,.3-2.16,1.6-2.53,.59-.17,1.16-.4,1.75-.53,1.94-.42,2.59,.07,2.61,2.03,.04,4.6,.06,9.2,.08,13.8,0,4.38,0,8.76,0,13.14v.67c.07,1.92-.9,2.86-2.91,2.82-.33,0-.67-.05-1,0-1.44,.19-2.26-.29-2.16-1.88,.02-.31-.15-.62-.3-1.21h0Z"/>
          <path class="cls-1" d="M705.83,31.27c0-2.82,.03-5.65,0-8.47-.03-2.14-.27-2.39-2.33-2.56-1.11-.09-1.55-.23-1.34-1.7,.27-1.81,.93-2.72,2.65-3.19,.49-.14,1.02-1.06,1.07-1.66,.11-1.29,.05-2.63-.17-3.91-.37-2.21,.14-3.03,2.41-3.38,3.3-.51,3.33-.52,3.52,2.66,.09,1.43,.13,2.87,.06,4.3-.07,1.51,.68,2.17,2.05,2.21,1.99,.06,3.98,.05,5.97,.04,1.16,0,2.1,.16,2.11,1.66,0,1.95-.55,2.81-2.19,2.89-1.94,.09-3.88,.1-5.82,.05-1.47-.04-2.15,.55-2.15,2.04,.02,5.03,0,10.06,0,15.09,0,1.43-.11,2.9,.15,4.29,.15,.77,.87,1.59,1.55,2.03,.47,.3,1.33-.03,2.01-.07-.08-.67,0-1.43-.29-1.98-.86-1.61-.45-3.45,1.23-4.76,1.57-1.22,4.66-.52,5.71,1.16,1.81,2.88,.19,7.29-1.93,8.99-3.86,3.1-9.46,2.58-12.42-.86-1.68-1.95-1.73-4.26-1.83-6.56-.11-2.76-.03-5.54-.03-8.3h-.03s.04-.01,.04-.01Z"/>
          <path class="cls-1" d="M605.59,33.62v-13.3c0-.84-.29-2.12,.12-2.42,1.05-.77,2.38-1.25,3.67-1.54,.45-.1,1.36,.58,1.62,1.12,.62,1.28,1.09,1.46,2.02,.35,1.78-2.12,3.99-3.06,6.75-2.67,1.71,.24,3.31,1.46,3.55,2.77,.44,2.47-.12,4.02-1.79,4.91-1.14,.6-3.45,.15-4.32-.77-.52-.55-1.4-1.53-1.66-1.4-.88,.43-1.97,1.15-2.23,2-.92,2.93-1.96,5.93-2.16,8.96-.34,5.18-.1,10.4-.04,15.61,0,1.17-.44,1.63-1.53,1.65h-.17c-4.46,0-3.85,.28-3.82-3.62,.03-3.88,0-7.76,0-11.64h-.02s0-.01,0-.01Z"/>
          <path class="cls-1" d="M696.88,48.88c-.61,0-1.28,.16-1.81-.05-.42-.17-.95-.77-.95-1.19,0-6.03,.09-12.07,.1-18.1,0-3.65-.13-7.3-.16-10.95,0-.33,.22-.83,.47-.95,1.13-.53,2.28-1.07,3.48-1.37,1.19-.3,1.69,.42,1.68,1.61-.06,8.9-.11,17.81-.15,26.71,0,.66,.08,1.33,.17,1.98,.28,2.1,.1,2.32-2,2.32h-.83s0-.02,0-.02h0Z"/>
          <path class="cls-1" d="M257.27,30.36c-2.38,0-4.77-.03-7.15,0-1.2,.02-1.77-.45-1.73-1.65,.02-.55,0-1.11,.02-1.66,.04-1.18,.47-1.72,1.84-1.69,4.43,.08,8.86-.05,13.28,0,.72,0,1.95,.37,2.06,.8,.31,1.18,.2,2.48,.12,3.73-.01,.17-.83,.4-1.29,.4-2.38,.04-4.77,.02-7.15,.02v.05s0,0,0,0Z"/>
          <path class="cls-1" d="M700.53,9.74c0,1.81-1.73,3.53-3.64,3.55-1.94,.02-3.99-1.76-3.82-3.73,.16-1.83,1.74-3.74,3.45-3.75,2.29-.02,4,1.66,4.01,3.93Z"/>
          <path class="cls-1" d="M496.77,47.02c.78,.33,1.55,.67,2.33,1"/>
          <path class="cls-1" d="M546.73,47.02c.78,.33,1.55,.67,2.33,1"/>
          <path class="cls-1" d="M704.12,18.42c-.72,.33-1.44,.67-2.16,1"/>
          <path class="cls-1" d="M327.92,21.03c-.67-.06-1.33-.11-2-.17"/>
          <path class="cls-1" d="M466.31,16.22c-.11,.67-.22,1.33-.33,2"/>
          <path class="cls-1" d="M240.98,7.36c.67,.28,1.33,.55,2,.83"/>
          <path class="cls-1" d="M652.49,15.58c-.11,.67-.22,1.33-.33,2"/>
          <path class="cls-1" d="M374.21,18.29c.44,.19,.89,.39,1.33,.58"/>
          <path class="cls-1" d="M729.09,47.22c.72,.33,1.44,.67,2.16,1"/>
        </g>
      </g>
    </g>
  </g>
</svg>