<?xml version="1.0" encoding="UTF-8"?>
<svg id="Layer_2" data-name="Layer 2" xmlns="http://www.w3.org/2000/svg" xmlns:xlink="http://www.w3.org/1999/xlink" viewBox="0 0 1378.75 686.79">
  <defs>
    <style>
      .cls-1 {
        fill: #fff;
      }

      .cls-2 {
        fill: #ffd2cf;
      }

      .cls-3 {
        fill: #eee;
        isolation: isolate;
        opacity: .2;
      }

      .cls-4 {
        fill: url(#radial-gradient-2);
      }

      .cls-5 {
        fill: url(#radial-gradient);
      }

      .cls-6 {
        font-family: SummerRoadtripRegular, 'Summer Roadtrip';
        font-size: 75.27px;
      }

      .cls-7 {
        font-family: ComicSansMS, 'Comic Sans MS';
        font-size: 95px;
      }
    </style>
    <radialGradient id="radial-gradient" cx="1216.36" cy="342.79" fx="1216.36" fy="342.79" r="44.59" gradientTransform="translate(195.09 -424.18) rotate(68.09) scale(1.04 -1.04)" gradientUnits="userSpaceOnUse">
      <stop offset=".39" stop-color="#ff8f00"/>
      <stop offset=".82" stop-color="#ffb300"/>
    </radialGradient>
    <radialGradient id="radial-gradient-2" cx="1272.73" cy="324.57" fx="1272.73" fy="324.57" r="30.93" gradientTransform="translate(219.25 -440.83) rotate(67.94) scale(1 -1)" gradientUnits="userSpaceOnUse">
      <stop offset=".58" stop-color="#ffeb3b"/>
      <stop offset=".84" stop-color="#fbc02d"/>
    </radialGradient>
  </defs>
  <g id="Layer_1-2" data-name="Layer 1">
    <g>
      <g>
        <path d="M520.84,23.37v22.5h23c21.6,0,23-.1,24-1.9,.6-1.2,1-10.1,1-21.9,0-17.3-.2-20.1-1.6-20.6-.9-.3-11.7-.6-24-.6h-22.4V23.37Z"/>
        <path d="M155.64,435.27c-19,6.3-30.1,21.8-30,41.8,0,12.2,3.7,21.3,12.1,30.1,5.6,5.8,11.1,9,20.4,11.9,5.8,1.7,8.5,2,16.1,1.5,13.1-.8,19.8-3.4,28.6-10.9l4.3-3.8-5.9-5.4c-3.2-3.1-6.3-5.5-6.7-5.6-.5,0-2.5,1.3-4.5,2.9-11.9,9.5-30.2,7.7-38.9-3.7-8.1-10.6-7.2-27.5,1.9-36.9,9-9.3,26.8-10.1,36.7-1.7,2.1,1.9,4.3,3.4,4.8,3.4s3.4-2.6,6.6-5.8l5.7-5.8-3.2-3c-11.5-10.7-31.7-14.5-48-9Z"/>
      </g>
      <g>
        <path class="cls-2" d="M.06,1.17C.04,69.47,.02,137.78,0,206.08c0,19.02,0,38.2,3.9,56.82,3.89,18.56,11.62,36.25,22.07,52.08,32.33,48.94,92.13,78.32,150.62,74.01,58.49-4.31,113.34-42.14,138.15-95.29,26.3-56.35,17.58-125.54-21.41-173.51-28.25-34.74-71.05-57.38-115.71-60.92-47.47-3.75-96.23,14.16-129.98,47.76-1.02-35.54-1.44-71.1-1.26-106.65C30.96-.2,15.49-.12,.06,.62v.55ZM194.58,110.13c33.48,9.24,63.19,32.92,77.71,64.6,20.62,44.99,9.02,102.65-27.39,136.16-42.61,39.22-113.41,41.03-156.94,2.47-31.05-27.5-47.12-71.81-38.89-112.7,9.76-48.52,53.04-88.35,102.19-94.06,14.54-1.69,29.26-.35,43.32,3.53Z"/>
        <path class="cls-2" d="M947.04,.57l-21.2,.3,.2,192.3,.3,192.2h46l.3-191.4c.1-140.6-.1-191.7-.9-192.7-.6-.8-1.7-1.3-2.3-1.2-.6,.2-10.7,.4-22.4,.5Z"/>
        <path class="cls-2" d="M1000.74,.97c-.5,.3-.8,78.4-.7,192.5l.3,191.9h46l.3-192.3c.1-105.7-.1-192.2-.5-192.2-9.7-.4-44.7-.3-45.4,.1Z"/>
        <path class="cls-2" d="M520.84,23.37v22.5h23c21.6,0,23-.1,24-1.9,.6-1.2,1-10.1,1-21.9,0-17.3-.2-20.1-1.6-20.6-.9-.3-11.7-.6-24-.6h-22.4V23.37Z"/>
        <path class="cls-2" d="M722.84,59.9c-11.39,.75-22.69,2.66-34.28,6.26-23.21,7.2-44.9,19.39-62.88,35.76-17.95,16.34-32.11,36.74-41.46,59.12-10.24,24.53-12.4,48.22-11.53,74.45,.78,23.51,7.09,46.05,18.29,66.8,12.03,22.3,29.36,41.68,50.02,56.33,21.02,14.91,45.47,25.04,70.96,28.91,64.25,9.74,129.35-20.39,164.26-74.88,11.11-17.35,19.21-36.6,23.99-56.63-7.96-.85-16.52-.04-24.58,.06-6.38,.08-12.8-.03-19.18,.24-5.91,.25-5.55,1.93-7.52,7.45s-4.29,10.69-7.01,15.76c-10.58,19.76-26.77,36.54-46.33,47.52-58.12,32.61-132.63,9.5-163.79-48.59-12.21-22.77-13.74-49.23-12.5-74.55,.45-9.15,19.04-7.4,24.73-7.16,15.37,.64,30.66,.65,46.05,.58,39.45-.18,78.9-.36,118.35-.54,30.67-.14,61.48,.53,92.13-.56-6.43-37.13-25.98-71.85-54.39-96.59-34.45-30-78.33-42.7-123.35-39.72Zm37.9,48.53c19.81,3.79,38.61,12.38,53.69,25.85,2.27,2.03,16.43,14.2,15.1,17.35-.64,1.53-4.85,.89-6.23,.92-28.88,.5-57.78,.32-86.66,.32-23.1,0-46.2,.07-69.3-.17-5.28-.05-17.79,1.93-22.15-1.57,9.3-19.31,35.28-33.36,54.78-39.4,19.41-6.02,40.62-7.14,60.77-3.29Z"/>
        <path class="cls-2" d="M1209.74,59.34c-39.67,1.73-78.86,17.33-107.78,44.64-44.62,42.14-59.44,105.15-46.41,163.9,10.47,47.22,50.27,88.87,93.78,107.72,45.26,19.61,99.32,17.64,143.03-5.21,43.71-22.85,76.19-66.11,85.93-114.46-13.38-.04-26.76-.08-40.14-.12-2.08,0-4.26,0-6.12,.94-3.17,1.59-4.52,5.3-5.75,8.62-13.75,37.22-47.47,66.36-86.28,74.58-38.81,8.22-81.45-4.76-109.1-33.21-27.65-28.45-39.41-71.44-30.09-110,92.65,.45,185.31,.24,277.95-.62-10.14-58.62-54.39-110.05-110.84-128.84-18.71-6.23-38.5-8.78-58.16-7.92Zm36.39,50.85c24.76,6.79,47.39,21.55,63.1,41.89-59.75,.3-119.5,.6-179.25,.89-13.91,.07,3.42-14.09,7.35-17.5,7.33-6.35,15.44-11.79,24.07-16.21,16.98-8.69,36.03-13.43,55.12-13.25,10.01,.09,19.97,1.53,29.61,4.18Z"/>
        <path class="cls-2" d="M460.11,62.8c-27.81,4.78-54.43,18.28-74.82,37.95-34.25,33.05-51.56,81.42-51.77,129.02-.22,49.65-.45,99.3-.67,148.94-.01,2.22,.12,4.76,1.85,6.15,1.22,.98,2.89,1.09,4.46,1.15,13.89,.52,27.82,.13,41.66-1.18,.03-53.96,.06-107.93,.08-161.89,.02-42.5,23.82-87.38,63.96-104.78,22.3-9.67,48.18-10.82,71.25-3.16,.27-16.35,.54-32.71,.81-49.06-18.43-5.61-37.9-6.39-56.81-3.14Z"/>
        <path class="cls-2" d="M520.84,223.77c0,145.8,.1,160.9,1.6,161.5,.9,.3,10.9,.6,22.2,.6,15.3-.1,21.1-.4,22.4-1.3,1.6-1.2,1.7-12.3,1.7-159.6,0-119.6-.3-158.8-1.2-160.2-1.1-1.8-2.7-1.9-23.9-1.9h-22.8V223.77Z"/>
        <path class="cls-2" d="M155.64,435.27c-19,6.3-30.1,21.8-30,41.8,0,12.2,3.7,21.3,12.1,30.1,5.6,5.8,11.1,9,20.4,11.9,5.8,1.7,8.5,2,16.1,1.5,13.1-.8,19.8-3.4,28.6-10.9l4.3-3.8-5.9-5.4c-3.2-3.1-6.3-5.5-6.7-5.6-.5,0-2.5,1.3-4.5,2.9-11.9,9.5-30.2,7.7-38.9-3.7-8.1-10.6-7.2-27.5,1.9-36.9,9-9.3,26.8-10.1,36.7-1.7,2.1,1.9,4.3,3.4,4.8,3.4s3.4-2.6,6.6-5.8l5.7-5.8-3.2-3c-11.5-10.7-31.7-14.5-48-9Z"/>
        <path class="cls-2" d="M288.84,434.47c-20.5,6.4-32.2,21.9-32.2,42.5-.1,25.1,19.9,43.9,46.7,43.9,23.4,0,41.9-14.9,45.7-36.8,3.9-22.7-10.1-43.8-32.9-49.8-6.8-1.8-21.4-1.7-27.3,.2Zm23.1,16.5c17.1,4.3,23.6,30.2,11.1,44.1-7.8,8.7-21.1,11.4-31.7,6.4-16.6-7.7-20.1-32.7-6.3-45.1,7.4-6.8,15.4-8.4,26.9-5.4Z"/>
        <path class="cls-2" d="M423.04,434.87c-12.9,4.6-19.2,12.6-19.2,24.5,0,3.8,.6,7.8,1.4,9.3,3.9,7.4,12.4,12.1,30.5,16.6,11.4,2.9,11.6,3,14.9,5.9,2.9,2.7,2.9,7.1-.2,10.2-5,5-20.6,4.7-33.3-.7-4.3-1.8-8.2-3.3-8.6-3.3-.5,0-2.1,3-3.7,6.7-3.1,7.2-3,7.7,2.7,10.7,7.6,3.9,15.9,5.6,28.3,5.6,19.4,0,27.9-4,34.9-16.5,.8-1.4,1.4-5.6,1.5-9.7,.1-6.4-.2-7.6-2.9-11.5-4-5.6-12.3-9.7-28-13.8-13-3.4-16-4.8-17.7-8.6-1.5-3.2,.2-6.8,4.4-9.4,4.6-2.8,17.2-2.8,25.4,0,3.2,1.1,6.3,2.5,6.8,3,1.8,1.8,2.7,1,5-4.3q4.2-9.4-.3-11.7c-10.1-5.1-31.5-6.7-41.9-3Z"/>
        <path class="cls-2" d="M1045.84,434.77c-7.5,2.4-10.7,4.2-16.4,9.2-22.7,20-18.3,57.9,8.3,71.3,17.9,9.1,40.9,6.7,54.5-5.6l4.1-3.8-6-5.5c-3.3-3-6.5-5.5-7.1-5.5s-1.9,1-3,2.1c-3.4,3.8-11.3,6.9-17.9,6.9-11.2,0-20.5-5.4-25-14.5-3.1-6.3-2.8-19.5,.6-26,4.4-8.6,13.3-13.7,24-13.7,6.3,0,11.4,1.8,17.2,6l4.9,3.5,5.6-5.4c3.1-3,5.9-5.5,6.1-5.7,.9-.5-5.5-6.4-9.5-8.8-10.9-6.4-28.2-8.3-40.4-4.5Z"/>
        <path class="cls-2" d="M1167.34,434.77c-13.7,5-19.5,12.4-19.5,24.9,0,5.8,.4,7.5,2.6,10.8,1.5,2.1,3.4,4.5,4.3,5.2,3.5,2.9,12.2,6.3,24.4,9.5,14,3.7,17.7,6,17.7,10.9,0,6.5-7.8,9.6-21.1,8.5-6-.5-9.5-1.6-22.5-7.3-1-.4-7.4,11.4-7.4,13.6,0,1.2,9.1,5.7,15.5,7.6,4.3,1.3,9.4,1.8,18,1.9,15.4,0,21.4-1.8,28.9-8.6,8.6-7.9,10.7-18,5.6-27.9-3.4-6.7-10.2-10.2-28.9-15.1-12.7-3.3-15.6-4.7-17.3-8.5-1.5-3.2,.2-6.8,4.4-9.4,6-3.6,24.2-2.1,31.6,2.6,3,1.9,3.7,1.4,6-4.9,1.1-2.8,2.3-6,2.7-6.9,.9-2.1-4.9-5.2-13.7-7.3s-24.9-1.8-31.3,.4Z"/>
        <path class="cls-2" d="M530.84,476.87v43h18v-24.5c0-13.5,.3-24.5,.8-24.5,.4,.1,6.1,8.9,12.7,19.8l12.1,19.7h8.9l12.1-20.3c6.6-11.1,12.4-19.9,12.7-19.5,.4,.3,.7,11.6,.7,25v24.3h18v-86.1l-8.2,.3-8.2,.3-15.2,25.4c-8.3,14-15.5,25.6-16,25.8s-7.9-11.3-16.4-25.5l-15.5-25.7-8.2-.3-8.3-.3v43.1Z"/>
        <path class="cls-2" d="M690.34,436.07c-.3,1.3-.4,20.5-.3,42.8l.3,40.5h66l.3-7.7,.3-7.8-23.3-.2-23.3-.3v-19l19.8-.3,19.7-.2v-15l-19.7-.2-19.8-.3v-18l22.3-.3,22.2-.2v-16h-64l-.5,2.2Z"/>
        <path class="cls-2" d="M807.24,435.27c-.3,.7-.4,4.2-.2,7.7l.3,6.4,13.5,.5,13.5,.5,.5,34.5,.5,34.5h19l.3-34.8,.2-34.7h27v-16h-37c-30.3,0-37.2,.2-37.6,1.4Z"/>
        <path class="cls-2" d="M936.84,475.87v42.7c0,.5,4.3,.8,9.5,.8h9.5v-84.5c0-.6-3.8-1-9.5-1h-9.5v42Z"/>
      </g>
    </g>
    <g>
      <path class="cls-5" d="M1025.45,610.04l21.65,5.85c1.38,.37,1.35,2.33-.03,2.67l-21.76,5.4c-3.25,.81-4.83,4.5-3.16,7.41l11.17,19.45c.71,1.24-.69,2.6-1.91,1.87l-19.21-11.57c-2.87-1.73-6.6-.23-7.48,3l-5.85,21.65c-.37,1.38-2.33,1.35-2.67-.03l-5.41-21.75c-.81-3.25-4.5-4.83-7.41-3.16l-19.45,11.17c-1.24,.71-2.6-.69-1.87-1.91l11.57-19.21c1.73-2.87,.23-6.6-3-7.48l-21.65-5.85c-1.38-.37-1.35-2.33,.03-2.67l21.77-5.41c3.25-.81,4.83-4.5,3.16-7.41l-11.18-19.45c-.71-1.24,.69-2.6,1.91-1.87l19.21,11.57c2.87,1.73,6.6,.23,7.48-3l5.85-21.65c.37-1.38,2.33-1.35,2.67,.03l5.41,21.77c.81,3.25,4.5,4.83,7.41,3.16l19.45-11.17c1.24-.71,2.6,.69,1.87,1.91l-11.57,19.21c-1.73,2.87-.23,6.6,3,7.48h0Z"/>
      <circle class="cls-4" cx="998.1" cy="616.75" r="25.06"/>
      <g>
        <path class="cls-3" d="M1014.64,600.26c2.21,2.21,3.93,4.8,5.11,7.72,4.84,11.93-.94,25.58-12.87,30.42-8.72,3.54-18.65,1.51-25.31-5.15-2.21-2.21-3.93-4.8-5.11-7.72-4.83-11.94,.94-25.58,12.88-30.43,8.71-3.53,18.64-1.5,25.31,5.16m1.18-1.18c-6.9-6.9-17.53-9.41-27.12-5.52-12.79,5.19-18.98,19.81-13.79,32.6,1.29,3.19,3.18,5.97,5.48,8.27,6.9,6.9,17.53,9.41,27.12,5.52,12.79-5.19,18.98-19.81,13.79-32.6-1.29-3.19-3.18-5.98-5.48-8.27h0Z"/>
        <path class="cls-3" d="M1029.63,585.78l-9.34,15.5c-1.79,2.97-1.33,6.78,1.13,9.24,.93,.93,2.09,1.59,3.37,1.94l17.47,4.72-17.56,4.36c-2.32,.57-4.18,2.17-5.12,4.37s-.79,4.65,.4,6.72l9.01,15.69-15.5-9.34c-2.05-1.23-4.5-1.43-6.71-.54s-3.85,2.73-4.47,5.03l-4.72,17.47-4.36-17.56c-.33-1.33-1.02-2.55-1.98-3.52-2.41-2.41-6.16-2.91-9.11-1.21l-15.69,9.01,9.34-15.5c1.79-2.97,1.33-6.78-1.13-9.24-.93-.93-2.09-1.59-3.37-1.94l-17.47-4.72,17.56-4.36c2.32-.57,4.18-2.17,5.12-4.37,.94-2.2,.79-4.65-.4-6.72l-9.01-15.69,15.5,9.34c2.05,1.23,4.5,1.43,6.71,.54s3.85-2.73,4.47-5.03l4.72-17.47,4.36,17.56c.33,1.33,1.02,2.55,1.98,3.52,2.41,2.41,6.16,2.91,9.11,1.21l15.69-9Zm4.18-4.11c-.41-.41-1.05-.57-1.66-.22l-19.45,11.17c-2.07,1.19-4.54,.73-6.09-.81-.62-.62-1.09-1.42-1.32-2.35l-5.41-21.77c-.06-.27-.19-.49-.36-.66-.68-.68-2.01-.48-2.31,.63l-5.85,21.65c-.87,3.23-4.6,4.73-7.48,3l-19.2-11.57c-1.22-.74-2.61,.63-1.91,1.87l11.17,19.45c1.67,2.91,.09,6.6-3.16,7.41l-21.77,5.41c-1.13,.28-1.35,1.62-.66,2.32,.16,.16,.37,.28,.63,.35l21.65,5.85c.89,.24,1.65,.7,2.25,1.29,1.57,1.57,2.01,4.1,.76,6.18l-11.57,19.21c-.37,.61-.2,1.27,.21,1.68s1.05,.57,1.66,.22l19.45-11.17c2.07-1.19,4.54-.73,6.09,.81,.62,.62,1.09,1.42,1.32,2.35l5.41,21.77c.06,.27,.19,.49,.36,.66,.68,.68,2.01,.48,2.31-.63l5.85-21.65c.87-3.23,4.6-4.73,7.48-3l19.21,11.57c1.22,.74,2.61-.63,1.91-1.87l-11.18-19.45c-1.67-2.91-.09-6.6,3.16-7.41l21.77-5.41c1.13-.28,1.35-1.62,.66-2.32-.16-.16-.37-.28-.63-.35l-21.65-5.85c-.89-.24-1.65-.7-2.25-1.29-1.57-1.57-2.01-4.1-.76-6.18l11.58-19.22c.37-.61,.2-1.27-.21-1.68Z"/>
      </g>
      <text class="cls-1" transform="translate(304.02 648.7)"><tspan class="cls-7" x="0" y="0">5</tspan><tspan class="cls-6" x="57.98" y="0">-DAY SUMMER</tspan></text>
    </g>
  </g>
</svg>