<?xml version="1.0" encoding="UTF-8"?>
<svg id="Layer_2" data-name="Layer 2" xmlns="http://www.w3.org/2000/svg" viewBox="0 0 5012.45 817.49">
  <defs>
    <style>
      .cls-1, .cls-2 {
        fill: #dc3093;
      }

      .cls-2 {
        fill-rule: evenodd;
      }
    </style>
  </defs>
  <g id="Layer_1-2" data-name="Layer 1">
    <g>
      <g>
        <path class="cls-1" d="M3922.65,577.75h119.05l62.29-338h-243.63l62.29,338h0Zm124.02,12h-129v-.02c-2.83,0-5.35-2.02-5.88-4.9l-64.41-349.51c-.14-.5-.21-1.03-.21-1.57,0-3.31,2.69-6,6-6h258v.02c.36,0,.72,.03,1.08,.1,3.25,.6,5.4,3.71,4.8,6.96l-64.41,349.53c-.3,3.03-2.86,5.39-5.97,5.39h0Z"/>
        <path class="cls-1" d="M3859.17,227.75h244.93v-44h-244.93v44h0Zm250.93,12h-256.93c-3.31,0-6-2.69-6-6v-56c0-3.31,2.69-6,6-6h256.93c3.31,0,6,2.69,6,6v56c0,3.31-2.69,6-6,6h0Z"/>
        <path class="cls-1" d="M3917.67,577.75h129c3.31,0,6,2.69,6,6v45c0,3.31-2.69,6-6,6h-129c-3.31,0-6-2.69-6-6v-45c0-3.31,2.69-6,6-6h0Zm123,12h-117v33h117v-33h0Z"/>
        <path class="cls-1" d="M3932.42,652.24h99.5c2.4,0,4.59-.99,6.17-2.57,1.59-1.59,2.57-3.77,2.57-6.17v-8.75h-117v8.75c0,2.4,.99,4.59,2.57,6.17s3.77,2.57,6.17,2.57h0Zm99.5,12h-99.5c-5.71,0-10.9-2.33-14.66-6.09-3.76-3.76-6.09-8.95-6.09-14.66v-14.75c0-3.31,2.69-6,6-6h129c3.31,0,6,2.69,6,6v14.75c0,5.71-2.33,10.9-6.09,14.66s-8.95,6.09-14.66,6.09h0Z"/>
        <path class="cls-1" d="M3982.39,460.74c-40.91,0-54.65-17.45-54.65-41.3,0-31.58,26.88-74.15,42.13-98.31,3.02-4.79,5.57-8.82,7.34-11.89,1.66-2.86,5.32-3.84,8.18-2.18,1.05,.61,1.85,1.49,2.36,2.51,1.52,2.61,4.06,6.66,7.02,11.39,15.22,24.32,41.86,66.91,41.86,98.49,0,23.85-13.64,41.29-54.23,41.29h0Zm-42.66-41.3c0,16.92,10.73,29.3,42.66,29.3s42.23-12.37,42.23-29.29c0-28.17-25.48-68.9-40.03-92.16l-2.22-3.56-2.38,3.77c-14.58,23.09-40.26,63.76-40.26,91.93h0Z"/>
      </g>
      <g>
        <path class="cls-1" d="M4897.8,805.49h64.84l37.56-793.49h-139.96l37.56,793.49h0Zm70.55,12h-76.25v-.02c-3.18,0-5.83-2.49-5.98-5.7L4848.01,6.73c-.03-.24-.04-.48-.04-.73,0-3.31,2.69-6,6-6h152.5V.02h.28c3.3,.16,5.85,2.96,5.7,6.26l-38.11,805.05v.16c0,3.31-2.68,6-6,6h0Z"/>
        <path class="cls-1" d="M4993.12,161.49l7.08-149.49h-139.96l7.08,149.49h125.8Zm19.33-155.21l-7.62,161.05v.16c0,3.31-2.68,6-6,6h-137.22v-.02c-3.18,0-5.83-2.5-5.98-5.7l-7.62-161.04c-.03-.24-.04-.48-.04-.73,0-3.31,2.69-6,6-6h152.5V.02h.28c3.3,.16,5.85,2.96,5.7,6.26h0Z"/>
        <path class="cls-1" d="M4875.69,6.28c-.15-3.3,2.39-6.1,5.7-6.26,3.3-.15,6.1,2.39,6.26,5.7l5,105.58c.15,3.3-2.39,6.1-5.7,6.26-3.3,.15-6.1-2.39-6.26-5.7l-5-105.58h0Z"/>
        <path class="cls-1" d="M4906.48,6.28c-.15-3.3,2.39-6.1,5.7-6.26,3.3-.15,6.1,2.39,6.26,5.7l5,105.58c.15,3.3-2.39,6.1-5.7,6.26-3.3,.15-6.1-2.39-6.26-5.7l-5-105.58h0Z"/>
        <path class="cls-1" d="M4972.79,5.72c.15-3.3,2.96-5.85,6.26-5.7,3.3,.15,5.85,2.96,5.7,6.26l-5,105.58c-.15,3.3-2.96,5.85-6.26,5.7-3.3-.15-5.85-2.96-5.7-6.26l5-105.58h0Z"/>
        <path class="cls-1" d="M4942,5.72c.15-3.3,2.96-5.85,6.26-5.7,3.3,.15,5.85,2.96,5.7,6.26l-5,105.58c-.15,3.3-2.96,5.85-6.26,5.7-3.3-.15-5.85-2.96-5.7-6.26l5-105.58h0Z"/>
      </g>
      <g>
        <path class="cls-1" d="M481.9,426.74c-2.77-1.8-3.56-5.5-1.76-8.27,1.8-2.77,5.5-3.56,8.27-1.76,.52,.34,178.05,119.28,339.13-55.66,2.24-2.43,6.03-2.59,8.46-.35,2.43,2.24,2.59,6.03,.35,8.46-168.02,182.47-353.92,57.93-354.46,57.58h0Z"/>
        <path class="cls-1" d="M508.78,485.89c-1.27,3.05-4.77,4.5-7.83,3.23-3.05-1.27-4.5-4.77-3.23-7.83l18.11-43.38c1.27-3.05,4.77-4.5,7.83-3.23,3.05,1.27,4.5,4.77,3.23,7.83l-18.11,43.38h0Z"/>
        <path class="cls-1" d="M586.18,506.77c-.75,3.22-3.97,5.23-7.2,4.48-3.22-.75-5.23-3.97-4.48-7.2l10.74-45.76c.75-3.22,3.97-5.23,7.2-4.48,3.22,.75,5.23,3.97,4.48,7.2l-10.74,45.76h0Z"/>
        <path class="cls-1" d="M677.21,505.24c.61,3.25-1.53,6.38-4.78,6.98-3.25,.61-6.38-1.53-6.98-4.78l-8.81-46.17c-.61-3.25,1.53-6.38,4.78-6.98,3.25-.61,6.38,1.53,6.98,4.78l8.81,46.17h0Z"/>
        <path class="cls-1" d="M758.29,477.82c1.84,2.74,1.1,6.46-1.64,8.3-2.74,1.84-6.46,1.1-8.3-1.64l-26.13-39.07c-1.84-2.74-1.1-6.46,1.64-8.3,2.74-1.84,6.46-1.1,8.3,1.64l26.13,39.07h0Z"/>
        <path class="cls-1" d="M828.93,431.22c2.46,2.21,2.66,6,.45,8.46-2.21,2.46-6,2.66-8.46,.45l-34.92-31.47c-2.46-2.21-2.66-6-.45-8.46,2.21-2.46,6-2.66,8.46-.45l34.92,31.47h0Z"/>
        <path class="cls-1" d="M349.53,416.71c2.77-1.8,6.47-1.01,8.27,1.76,1.8,2.77,1.01,6.47-1.76,8.27-.54,.35-186.44,124.89-354.46-57.58-2.24-2.43-2.08-6.22,.35-8.46,2.43-2.24,6.22-2.08,8.46,.35,161.08,174.94,338.62,56,339.13,55.66h0Z"/>
        <path class="cls-1" d="M340.22,481.3c1.27,3.05-.18,6.56-3.23,7.83-3.05,1.27-6.56-.18-7.83-3.23l-18.11-43.38c-1.27-3.05,.18-6.56,3.23-7.83,3.05-1.27,6.56,.18,7.83,3.23l18.11,43.38h0Z"/>
        <path class="cls-1" d="M263.44,504.05c.75,3.22-1.25,6.44-4.48,7.2-3.22,.75-6.44-1.25-7.2-4.48l-10.74-45.76c-.75-3.22,1.25-6.44,4.48-7.2,3.22-.75,6.44,1.25,7.2,4.48l10.74,45.76h0Z"/>
        <path class="cls-1" d="M172.5,507.44c-.61,3.25-3.74,5.39-6.98,4.78s-5.39-3.74-4.78-6.98l8.81-46.17c.61-3.25,3.74-5.39,6.98-4.78,3.25,.61,5.39,3.74,4.78,6.98l-8.81,46.17h0Z"/>
        <path class="cls-1" d="M89.59,484.48c-1.84,2.74-5.55,3.48-8.3,1.64-2.74-1.84-3.48-5.55-1.64-8.3l26.13-39.07c1.84-2.74,5.55-3.48,8.3-1.64,2.74,1.84,3.48,5.55,1.64,8.3l-26.13,39.07h0Z"/>
        <path class="cls-1" d="M17.03,440.13c-2.46,2.21-6.25,2.01-8.46-.45-2.21-2.46-2.01-6.25,.45-8.46l34.92-31.47c2.46-2.21,6.25-2.01,8.46,.45,2.21,2.46,2.01,6.25-.45,8.46l-34.92,31.47h0Z"/>
      </g>
      <g>
        <path class="cls-1" d="M3413.21,450.21h120.56c3.31,0,6,2.69,6,6v209.05c0,3.31-2.69,6-6,6h-120.56c-3.31,0-6-2.69-6-6v-209.05c0-3.31,2.69-6,6-6h0Zm114.56,12h-108.56v197.05h108.56v-197.05h0Z"/>
        <path class="cls-1" d="M3430.75,450.21h85.47v-20.06h-85.47v20.06h0Zm91.47,12h-97.47c-3.31,0-6-2.69-6-6v-32.06c0-3.31,2.69-6,6-6h97.47c3.31,0,6,2.69,6,6v32.06c0,3.31-2.69,6-6,6h0Z"/>
        <path class="cls-1" d="M3442.29,418.14h62.39v-95.73h-62.39v95.73h0Zm68.39,12h-74.39c-3.31,0-6-2.69-6-6v-107.73c0-3.31,2.69-6,6-6h74.39c3.31,0,6,2.69,6,6v107.73c0,3.31-2.69,6-6,6h0Z"/>
        <path class="cls-1" d="M3504.64,310.41c-.41-35.52-4.4-67.47-10.65-90.85-5.99-22.43-13.31-36.3-20.51-36.3s-14.52,13.87-20.51,36.3c-6.25,23.38-10.24,55.32-10.65,90.85h62.32Zm.93-93.94c6.86,25.67,11.1,61.01,11.1,99.94,0,3.31-2.69,6-6,6h-74.39c-3.31,0-6-2.69-6-6,0-38.93,4.24-74.27,11.1-99.94,7.47-27.93,18.75-45.21,32.09-45.21s24.62,17.28,32.09,45.21h0Z"/>
        <path class="cls-1" d="M3479.79,187.18c-1.08-1.23-2.14-2.18-3.17-2.85l-.32-.22c-.96-.56-1.9-.85-2.81-.85-4.98,0-10.3,7.44-15.3,20.16-5.76,14.64-10.33,35.45-13.08,59.97,1.08,1.23,2.14,2.18,3.17,2.85l.32,.22c.96,.56,1.9,.85,2.81,.85,4.98,0,10.3-7.44,15.3-20.16,5.76-14.64,10.33-35.45,13.08-59.97h0Zm3.3-12.93c2.75,1.78,5.33,4.31,7.73,7.51h0c.87,1.17,1.32,2.64,1.16,4.2-2.82,26.69-7.78,49.5-14.09,65.56-6.9,17.55-15.96,27.8-26.46,27.8-3.15,0-6.2-.93-9.13-2.72-.16-.08-.32-.17-.47-.27-2.75-1.78-5.33-4.31-7.73-7.51h0c-.87-1.17-1.32-2.64-1.16-4.2,2.82-26.69,7.78-49.5,14.09-65.56,6.9-17.55,15.96-27.8,26.46-27.8,3.15,0,6.2,.93,9.13,2.72,.16,.08,.32,.17,.47,.27h0Z"/>
      </g>
      <g>
        <path class="cls-1" d="M2954.66,324.96c-3.26-2.67-14.95-9.56-28.95-12.92-8.29-1.99-17.3-2.67-25.54-.3-12.17,3.5-44.27,18.88-74.56,33.39-16.23,7.78-31.96,15.31-44.15,20.76,46.43,4.62,111.9,6.91,177.28,6.92,65.57,0,130.98-2.31,176.89-6.9-12.2-5.45-27.94-12.99-44.18-20.78-30.3-14.51-62.39-29.89-74.56-33.39-8.24-2.37-17.25-1.69-25.54,.3-14.07,3.38-25.8,10.32-28.99,12.96-2.27,1.88-5.52,1.8-7.69-.04h0Z"/>
        <path class="cls-1" d="M2761.53,363.61c46.21,6.13,121.77,9.18,197.29,9.18s151.63-3.09,197-9.22c3.27-.44,6.29,1.86,6.73,5.13,.3,2.26-.7,4.39-2.42,5.64-77.44,59.56-139.32,89.23-201.58,89.17-62.31-.06-124.22-29.87-201.72-89.26-2.63-2.01-3.13-5.76-1.12-8.39,1.41-1.85,3.69-2.65,5.83-2.26h0Zm197.29,21.18c-65,0-130.24-2.28-177.09-6.85,67.21,48.99,122.19,73.58,176.81,73.62,54.65,.05,109.63-24.44,176.84-73.61-46.31,4.54-111.41,6.83-176.57,6.83h0Z"/>
      </g>
      <g>
        <path class="cls-1" d="M4501.92,333.76c-3.27-2.68-14.99-9.59-29.04-12.96-8.32-2-17.36-2.68-25.63-.3-12.2,3.51-44.39,18.93-74.77,33.49-16.31,7.81-32.1,15.38-44.34,20.85,46.57,4.63,112.26,6.94,177.86,6.94,65.79,0,131.41-2.32,177.47-6.93-12.24-5.47-28.05-13.05-44.37-20.86-30.38-14.55-62.57-29.97-74.78-33.49-8.27-2.38-17.31-1.7-25.63,.3-14.11,3.39-25.89,10.35-29.09,13-2.27,1.88-5.52,1.8-7.69-.04h0Zm-26.27-24.58c12.71,3.05,24,8.82,30.14,12.71,6.14-3.88,17.43-9.65,30.14-12.71,10.11-2.43,21.22-3.22,31.67-.21,12.97,3.73,45.73,19.43,76.65,34.24,29.21,13.99,56.74,27.18,62.48,28.03,1.26,.19,2.32,.59,3.18,1.2h0c3.58,2.51,3.95,5.5,1.23,8.85-.67,.83-1.54,1.46-2.6,1.93-1.05,.46-2.81,.93-5.2,1.4h0s-.37,.05-.37,.05c-46.32,6.04-121.58,9.07-196.97,9.07-74.8,0-149.82-2.99-196.92-9.01-.31-.01-.62-.05-.93-.11-2.33-.46-4.08-.93-5.13-1.39-1.08-.47-1.95-1.12-2.62-1.95-2.71-3.35-2.33-6.29,1.25-8.83h0s.02,0,.02,0c.87-.61,1.93-1.02,3.16-1.2,5.74-.85,33.27-14.04,62.48-28.03,30.92-14.81,63.68-30.5,76.65-34.24,10.45-3.01,21.57-2.22,31.67,.21h0Z"/>
        <path class="cls-1" d="M4308.22,372.55c46.34,6.15,122.12,9.2,197.85,9.2s152.06-3.09,197.57-9.24c3.27-.44,6.29,1.86,6.73,5.13,.3,2.26-.7,4.39-2.42,5.64-77.66,59.73-139.71,89.48-202.15,89.43-62.49-.06-124.57-29.95-202.29-89.51-2.63-2.01-3.13-5.76-1.12-8.39,1.41-1.85,3.69-2.65,5.83-2.26h0Zm197.85,21.2c-65.22,0-130.67-2.28-177.66-6.87,67.43,49.16,122.58,73.83,177.38,73.88,54.82,.05,109.98-24.53,177.41-73.86-46.45,4.56-111.77,6.85-177.14,6.85h0Z"/>
      </g>
      <g>
        <path class="cls-1" d="M2526.08,287.52h48.95c3.31,0,6,2.69,6,6,0,139.36-76.38,228.59-174.14,267.66-37.94,15.16-79.06,22.74-120.14,22.74s-82.2-7.58-120.14-22.74c-97.76-39.07-174.14-128.3-174.14-267.66,0-3.31,2.69-6,6-6h48.95c3.31,0,6,2.69,6,6,0,64.43,26.12,122.77,68.34,164.99,42.22,42.22,100.56,68.34,164.99,68.34s122.77-26.12,164.99-68.34c42.22-42.22,68.34-100.56,68.34-164.99,0-3.31,2.69-6,6-6h0Zm42.9,12h-36.98c-1.57,65.36-28.7,124.39-71.78,167.47-44.4,44.4-105.73,71.86-173.47,71.86s-129.08-27.46-173.47-71.86-70.21-102.11-71.78-167.47h-36.98c2.15,130.23,74.42,213.74,166.54,250.55,36.45,14.57,76.05,21.85,115.69,21.85s79.24-7.28,115.69-21.85c92.12-36.81,164.39-120.32,166.54-250.55h0Z"/>
        <path class="cls-1" d="M2286.75,48.19c67.75,0,129.08,27.46,173.47,71.86,44.4,44.4,71.86,105.73,71.86,173.47s-27.46,129.08-71.86,173.47c-44.4,44.4-105.73,71.86-173.47,71.86s-129.08-27.46-173.47-71.86-71.86-105.73-71.86-173.47,27.46-129.08,71.86-173.47c44.4-44.4,105.73-71.86,173.47-71.86h0Zm164.99,80.34c-42.22-42.22-100.56-68.34-164.99-68.34s-122.77,26.12-164.99,68.34c-42.22,42.22-68.34,100.56-68.34,164.99s26.12,122.77,68.34,164.99c42.22,42.22,100.56,68.34,164.99,68.34s122.77-26.12,164.99-68.34c42.22-42.22,68.34-100.56,68.34-164.99s-26.12-122.77-68.34-164.99h0Z"/>
        <path class="cls-1" d="M2294.57,708.46c0,3.31-2.69,6-6,6s-6-2.69-6-6v-130.54c0-3.31,2.69-6,6-6s6,2.69,6,6v130.54h0Z"/>
        <path class="cls-1" d="M2223.3,714.46c-3.31,0-6-2.69-6-6s2.69-6,6-6h130.54c3.31,0,6,2.69,6,6s-2.69,6-6,6h-130.54Z"/>
        <path class="cls-1" d="M2286.75,88.08c56.73,0,108.09,23,145.27,60.17,37.18,37.18,60.17,88.54,60.17,145.27s-23,108.09-60.17,145.27c-37.18,37.18-88.54,60.17-145.27,60.17s-108.09-23-145.27-60.17c-37.18-37.18-60.17-88.54-60.17-145.27s23-108.09,60.17-145.27c37.18-37.18,88.54-60.17,145.27-60.17h0Zm136.79,68.66c-35.01-35.01-83.37-56.66-136.79-56.66s-101.78,21.65-136.78,56.66c-35.01,35.01-56.66,83.37-56.66,136.78s21.65,101.78,56.66,136.78c35.01,35.01,83.37,56.66,136.78,56.66s101.78-21.65,136.79-56.66c35-35.01,56.66-83.37,56.66-136.78s-21.65-101.78-56.66-136.78h0Z"/>
        <path class="cls-1" d="M2225.94,362.82c-2.34,2.34-6.14,2.34-8.48,0-2.34-2.34-2.34-6.14,0-8.48l130.11-130.11c2.34-2.34,6.14-2.34,8.48,0,2.34,2.34,2.34,6.14,0,8.48l-130.11,130.11h0Z"/>
        <path class="cls-1" d="M2272.16,376.51c-2.34,2.34-6.14,2.34-8.48,0-2.34-2.34-2.34-6.14,0-8.48l73.61-73.61c2.34-2.34,6.14-2.34,8.48,0,2.34,2.34,2.34,6.14,0,8.48l-73.61,73.61h0Z"/>
        <polygon class="cls-2" points="2190.6 180.24 2196.14 198.28 2214.18 203.82 2196.14 209.36 2190.6 227.4 2185.06 209.36 2167.02 203.82 2185.06 198.28 2190.6 180.24 2190.6 180.24"/>
        <polygon class="cls-2" points="2240.51 139.4 2247.76 162.99 2271.34 170.23 2247.76 177.48 2240.51 201.06 2233.27 177.48 2209.69 170.23 2233.27 162.99 2240.51 139.4 2240.51 139.4"/>
        <path class="cls-1" d="M1902.49,393.78c5.27-10.53,10.53-15.8,21.06-15.8,11.63,0,21.06,9.43,21.06,21.06,0,21.06-21.06,42.12-42.12,63.18-21.06-21.06-42.12-42.12-42.12-63.18,0-11.63,9.43-21.06,21.06-21.06,10.53,0,15.8,5.27,21.06,15.8h0Z"/>
        <polygon class="cls-2" points="2029.65 41.33 2036.89 64.91 2060.47 72.15 2036.89 79.4 2029.65 102.98 2022.4 79.4 1998.82 72.15 2022.4 64.91 2029.65 41.33 2029.65 41.33"/>
      </g>
      <g>
        <path class="cls-1" d="M1119.08,340.79c-18.88,20.34-34.52,45.04-45.68,71.25-12.08,28.34-18.89,58.41-18.89,86.6,0,26.74,6.15,48.81,17.11,66.66,11.22,18.28,27.55,32.27,47.52,42.42,.2-.02,.4-.03,.6-.03h210.26c.2,0,.4,0,.6,.03,19.97-10.15,36.3-24.14,47.52-42.42,10.96-17.85,17.11-39.92,17.11-66.66,0-28.19-6.82-58.26-18.89-86.6-11.17-26.21-26.8-50.9-45.68-71.25-.21,.02-.43,.04-.65,.04h-210.26c-.22,0-.44-.01-.65-.04h0Zm-56.7,66.56c12.63-29.64,30.76-57.47,52.78-79.77,1.1-1.29,2.74-2.12,4.57-2.12,2.36,0,4.41,1.37,5.39,3.36h199.51c.28-.58,.67-1.12,1.15-1.6,2.34-2.33,6.13-2.32,8.46,.02,22.17,22.35,40.42,50.31,53.11,80.1,12.7,29.82,19.88,61.51,19.88,91.29s-6.8,53.19-18.89,72.9c-12.99,21.16-32.01,37.05-55.24,48.28-.9,.55-1.96,.86-3.1,.86-1.22,0-2.35-.36-3.3-.99h-203.71c-1.69,1.09-3.89,1.31-5.83,.38-23.47-11.24-42.67-27.22-55.76-48.53-12.1-19.71-18.89-43.86-18.89-72.9s7.17-61.47,19.88-91.29h0Z"/>
        <path class="cls-1" d="M1324,619.69h-198.26v38.9h198.26v-38.9h0Zm-204.26-12h210.26c3.31,0,6,2.69,6,6v50.9c0,3.31-2.69,6-6,6h-210.26c-3.31,0-6-2.69-6-6v-50.9c0-3.31,2.69-6,6-6h0Z"/>
        <path class="cls-1" d="M1324,284.59h-198.26v44.23h198.26v-44.23h0Zm-204.26-12h210.26c3.31,0,6,2.69,6,6v56.23c0,3.31-2.69,6-6,6h-210.26c-3.31,0-6-2.69-6-6v-56.23c0-3.31,2.69-6,6-6h0Z"/>
        <path class="cls-1" d="M1289.4,284.59h-129.08c-3.31,0-6-2.69-6-6v-61.34c0-3.31,2.69-6,6-6h129.08c3.31,0,6,2.69,6,6v61.34c0,3.31-2.69,6-6,6h0Zm-123.08-12h117.08v-49.34h-117.08v49.34h0Z"/>
        <path class="cls-1" d="M1239.95,135.71h-30.18v75.54h30.18v-75.54h0Zm-36.18-12h42.18c3.31,0,6,2.69,6,6v87.54c0,3.31-2.69,6-6,6h-42.18c-3.31,0-6-2.69-6-6v-87.54c0-3.31,2.69-6,6-6h0Z"/>
        <path class="cls-1" d="M1170.41,146.89c3.31,0,6,2.69,6,6s-2.69,6-6,6h-44.15c-3.31,0-6-2.69-6-6s2.69-6,6-6h44.15Z"/>
        <path class="cls-1" d="M1181.21,136.55c2.83,1.71,3.75,5.39,2.04,8.23-1.71,2.83-5.39,3.75-8.23,2.04l-31.22-18.82c-2.83-1.71-3.75-5.39-2.04-8.23,1.71-2.83,5.39-3.75,8.23-2.04l31.22,18.82h0Z"/>
        <path class="cls-1" d="M1175.02,158.97c2.83-1.71,6.52-.8,8.23,2.04s.8,6.52-2.04,8.23l-31.22,18.82c-2.83,1.71-6.52,.8-8.23-2.04-1.71-2.83-.8-6.52,2.04-8.23l31.22-18.82h0Z"/>
        <path class="cls-1" d="M1246.61,179.43c-3.29,.36-6.25-2.01-6.61-5.3-.36-3.29,2.01-6.25,5.3-6.61,.75-.09,261.89-32.48,326.99,210.82,.85,3.2-1.05,6.48-4.24,7.34-3.2,.85-6.48-1.05-7.34-4.24-62.41-233.22-313.38-202.09-314.1-202h0Z"/>
        <path class="cls-1" d="M1578.86,384.28c-17.29,0-33.12,10.71-44.73,28.02-12.08,18.01-19.56,43.03-19.56,70.77s7.47,52.76,19.56,70.77c11.61,17.31,27.44,28.02,44.73,28.02s33.12-10.71,44.73-28.02c12.08-18.01,19.56-43.03,19.56-70.77s-7.47-52.76-19.56-70.77c-11.61-17.31-27.44-28.02-44.73-28.02h0Zm-54.67,21.37c13.83-20.61,33.14-33.37,54.67-33.37s40.84,12.75,54.67,33.37c13.36,19.91,21.62,47.3,21.62,77.43s-8.26,57.52-21.62,77.43c-13.83,20.61-33.14,33.37-54.67,33.37s-40.84-12.75-54.67-33.37c-13.36-19.91-21.62-47.3-21.62-77.43s8.26-57.51,21.62-77.43h0Z"/>
        <polygon class="cls-2" points="1046.33 205.86 1053.57 229.44 1077.16 236.68 1053.57 243.93 1046.33 267.51 1039.08 243.93 1015.5 236.68 1039.08 229.44 1046.33 205.86 1046.33 205.86"/>
      </g>
    </g>
  </g>
</svg>