<?xml version="1.0" encoding="UTF-8"?>
<svg xmlns="http://www.w3.org/2000/svg" xmlns:xlink="http://www.w3.org/1999/xlink" viewBox="0 0 673 540">
  <defs>
    <style>
      .cls-1 {
        fill: none;
      }

      .cls-2 {
        clip-path: url(#clippath);
      }

      .cls-3 {
        mix-blend-mode: overlay;
      }

      .cls-4 {
        isolation: isolate;
      }
    </style>
    <clipPath id="clippath">
      <rect class="cls-1" width="673" height="540"/>
    </clipPath>
  </defs>
  <g class="cls-4">
    <g id="Layer_2" data-name="Layer 2">
      <g id="Layer_1-2" data-name="Layer 1">
        <g class="cls-3">
          <g class="cls-2">
            <g>
              <path d="M618.06,174.48c-21.7,10.71-32.13,29.59-32.13,29.59,0,0-1.69-7.33-7.05-4.51-.36,.19-.61,.46-.92,.69-.01-.03-.01-.05-.03-.09,0,0-16.52-11.71-28.4-14.35-11.89-2.64-31.03-10.35-36.1-18.27,0,0,5.28,11.71,20.25,16.31,14.97,4.6,31.51,8.78,41.84,21.99,0,0,.07-.01,.1-.02,.26,3.28,2.53,7.05,7.21,9.91,8.46,5.18,24.52-.11,24.52-.11-5.64,.85-10.43-3.38-10.43-3.38,1.13-9.58,17.19-24.52,38.33-39.74,21.14-15.22,21.14-27.06,21.14-27.06,0,0-16.63,18.32-38.33,29.03Z"/>
              <path d="M88.72,459.5c9.63,4.75,14.26,13.13,14.26,13.13,0,0,.75-3.25,3.13-2,.16,.08,.27,.2,.41,.31,0-.01,0-.02,.01-.04,0,0,7.33-5.2,12.6-6.37,5.27-1.17,13.77-4.59,16.02-8.11,0,0-2.34,5.19-8.99,7.24-6.64,2.04-13.98,3.9-18.56,9.76,0,0-.03,0-.05,0-.12,1.46-1.12,3.13-3.2,4.4-3.75,2.3-10.88-.05-10.88-.05,2.5,.38,4.63-1.5,4.63-1.5-.5-4.25-7.63-10.88-17.01-17.63s-9.38-12.01-9.38-12.01c0,0,7.38,8.13,17.01,12.88Z"/>
              <path d="M267.16,175.18c19.05,9.4,28.2,25.98,28.2,25.98,0,0,1.48-6.43,6.18-3.96,.31,.17,.54,.4,.8,.61,.01-.03,.01-.05,.03-.08,0,0,14.5-10.28,24.93-12.6,10.43-2.32,27.24-9.08,31.69-16.04,0,0-4.64,10.28-17.78,14.31-13.14,4.04-27.66,7.71-36.72,19.3,0,0-.06-.01-.09-.02-.23,2.88-2.22,6.18-6.33,8.7-7.42,4.55-21.52-.1-21.52-.1,4.95,.74,9.15-2.97,9.15-2.97-.99-8.41-15.09-21.52-33.65-34.88-18.56-13.36-18.56-23.75-18.56-23.75,0,0,14.6,16.08,33.65,25.48Z"/>
            </g>
          </g>
        </g>
      </g>
    </g>
  </g>
</svg>