<?xml version="1.0" encoding="UTF-8"?>
<svg xmlns="http://www.w3.org/2000/svg" xmlns:xlink="http://www.w3.org/1999/xlink" viewBox="0 0 709.55 420.25">
  <defs>
    <style>
      .cls-1 {
        fill: none;
      }

      .cls-2 {
        clip-path: url(#clippath);
      }

      .cls-3 {
        mix-blend-mode: overlay;
      }

      .cls-4 {
        isolation: isolate;
      }
    </style>
    <clipPath id="clippath">
      <rect class="cls-1" width="709.55" height="420.25"/>
    </clipPath>
  </defs>
  <g class="cls-4">
    <g id="Layer_2" data-name="Layer 2">
      <g id="Layer_1-2" data-name="Layer 1">
        <g class="cls-3">
          <g class="cls-2">
            <path d="M335.6,214.81c32.56,16.07,48.21,44.4,48.21,44.4,0,0,2.54-10.99,10.57-6.77,.54,.28,.92,.68,1.37,1.03,.02-.05,.02-.08,.05-.13,0,0,24.78-17.57,42.62-21.53,17.83-3.96,46.56-15.52,54.16-27.41,0,0-7.93,17.57-30.38,24.47-22.46,6.9-47.27,13.18-62.77,32.99,0,0-.1-.02-.15-.03-.39,4.93-3.8,10.57-10.81,14.87-12.69,7.78-36.79-.17-36.79-.17,8.46,1.27,15.65-5.07,15.65-5.07-1.69-14.38-25.79-36.79-57.51-59.62-31.71-22.83-31.71-40.59-31.71-40.59,0,0,24.95,27.49,57.51,43.55Z"/>
          </g>
        </g>
      </g>
    </g>
  </g>
</svg>