<?xml version="1.0" encoding="utf-8"?>
<!-- Generator: Adobe Illustrator 26.4.1, SVG Export Plug-In . SVG Version: 6.00 Build 0)  -->
<svg version="1.1" id="Layer_1" xmlns="http://www.w3.org/2000/svg" xmlns:xlink="http://www.w3.org/1999/xlink" x="0px" y="0px"
	 viewBox="0 0 800 972.5" style="enable-background:new 0 0 800 972.5;" xml:space="preserve">
<style type="text/css">
	.st0{clip-path:url(#SVGID_00000083790581503139180900000015965480622973428410_);}
	.st1{clip-path:url(#SVGID_00000142164860248368918690000015173417659137586821_);}
	.st2{fill:#FFFFFF;}
	.st3{clip-path:url(#SVGID_00000074430021183536429640000009151860667820160406_);}
	.st4{fill:none;stroke:#FFFFFF;}
</style>
<g>
	<g>
		<defs>
			<rect id="SVGID_1_" x="113.1" y="3.1" width="571.9" height="792.6"/>
		</defs>
		<clipPath id="SVGID_00000175286364253301769160000002811554027660301719_">
			<use xlink:href="#SVGID_1_"  style="overflow:visible;"/>
		</clipPath>
		<g style="clip-path:url(#SVGID_00000175286364253301769160000002811554027660301719_);">
			<path d="M660,639.6c17.3-59.6,24.6-121.7,21.7-183.7c-1.2-19.6-5.8-38.8-13.7-56.7c-3.2-7.6-8.1-14.3-14.3-19.8
				c-6.2-5.5-13.4-9.5-21.3-11.8c-8.6-2.5-17.6-3.1-26.4-1.8c-8.8,1.3-17.3,4.6-24.7,9.5c-1.8,1.1-3.5,2.4-5.3,3.6l-1,0.7
				c-4.7-10.2-11.7-19.2-20.5-26.2c-8.8-7-19.1-11.9-30.1-14.3c-9.4-1.8-19-1.3-28.1,1.5c-9.1,2.8-17.4,7.7-24.2,14.4
				c-7.7-12-18.2-24.2-36.1-27.8c-17.3-3.5-31,5-44.3,13.2l-0.1,0.1c-0.4-6.7-0.9-13.3-1.3-19.7c-1-16.4-2-31.8-3.5-47.5
				c-0.6-5.8-1.1-11.6-1.7-17.4c-2.6-27.3-5.3-55.6-10.3-83c-2.7-14.8-9.3-30.9-20.2-49.2c-6.4-10.7-14.6-17.1-24.6-19
				c-9.4-1.8-20.2,0.6-31,7.1c-5.6,3.3-10.5,7.8-14.4,13c-3.9,5.3-6.7,11.2-8.2,17.6c-2.2,7.8-3.6,15.8-4.2,23.9
				c-0.3,5.5-0.7,11-1.1,16.4c-1.4,21.6-2.9,43.9-2.9,65.8c0.1,44.6,0.8,90.1,1.5,134.2c0.3,17.4,0.5,34.8,0.8,52.4
				c-0.5-0.3-1-0.6-1.5-1c-0.8-0.6-1.5-1.3-2.2-2c-0.9-0.9-2-1.8-3-2.6c-34.2-24.7-70.6-33.4-108.1-25.7c-8,1.5-15.6,4.9-21.9,10
				c-6.4,5.1-11.3,11.7-14.5,19.3c-3.1,7.9-4.3,16.4-3.3,24.8c1,8.4,4,16.4,8.9,23.4c4,5.5,8.6,10.6,13.7,15.1
				c2.9,2.8,6,5.7,8.7,8.7c4.9,5.4,9.9,10.8,14.9,16.1c12.9,12.9,24.7,26.9,35.2,41.8c10.7,16.8,20.3,34.2,28.9,52.2
				c4.8,9.6,9.8,19.5,15.1,29l1.2,2.1c12.6,23,25.6,46.7,39.9,69.2c7.1,10.6,15.9,19.9,26.1,27.6c20.5,15.9,43.4,28.5,67.7,37.4
				c24.3,9.4,50.1,14.2,76.2,14.2c30-0.3,59.6-6,87.6-16.7c19.1-7.1,36.6-19.6,54.4-32.8C625,722.3,645.8,688.8,660,639.6z
				 M299.8,347.5c-0.2-8.4-0.6-16.8-1-25c-0.7-14.3-1.4-29-1-43.5c1.1-42.2,3.4-83.4,5.5-118.1c1.2-18.9,4.3-23.6,20.9-30.3
				c10.6,7.2,17,18.5,20.2,35.6c4.4,22.9,7.5,46.1,9.2,69.4c2.5,36.4,4.3,73.4,6,109.2c0.8,15.5,1.5,31.1,2.3,46.6
				c0.4,8.5,2.4,17.4,13.4,20c10.7,2.5,16.4-6.2,20.5-15c0.9-2,1.8-3.9,2.7-5.9c4.1-9.9,9.3-19.4,15.5-28.2
				c5.4-7.1,12.1-10.5,18.6-9.4c6.6,1.1,12,6.7,14.9,15.4c2,7.4,3.1,15,3.3,22.7c0.1,2.4,0.3,4.9,0.5,7.3c0.1,2,0,4.1-0.3,6.1
				c-0.6,3.2-0.5,6.5,0.3,9.6c1.9,5,5.7,9,10.6,11.3c1.5,0.6,3.1,1,4.7,1c1.6,0,3.2-0.3,4.7-0.9c1.6-0.7,3-1.8,4.2-3
				c1.2-1.3,2.1-2.8,2.7-4.4c0.9-2.5,1.6-5.1,2.2-7.7c0.5-2.4,1.2-4.8,2-7.1c0.8-2,1.5-4.1,2.3-6.1c2.8-8.1,6.2-15.9,10.2-23.4
				c5.8-10,12.6-12.5,24.5-9.3c15.1,4.2,24.6,13.7,27.5,27.4c1.4,8.1,2.3,16.3,2.4,24.5c0.1,2.5,0.2,5.1,0.4,7.6
				c0.5,7.8,2.4,16.1,12.5,18.7c10,2.5,15.3-3.8,19.6-11c1-1.7,2-3.4,3-5.2c3.1-5.7,6.6-11.2,10.5-16.5c7.8-10,17.1-15.1,25.4-13.9
				c8,1.2,14.7,7.8,18.9,18.7c7.2,17.2,11.4,35.5,12.5,54.1c1.7,50.8-4.7,101.5-19,150.3c-7.3,25.1-18.3,48.9-32.6,70.7
				c-16.8,25.2-43.4,43.1-81.3,54.9c-65.6,20.3-127.3,9.3-188.6-33.8c-6-4-11.3-9.1-15.5-14.9c-10.4-15-20-30.5-28.8-46.4
				c-13.5-25.1-26.7-51.1-40.3-79.4c-20.7-43.1-46.8-76.6-79.9-102.5c-0.8-0.6-1.6-1.3-2.4-2.1c-0.9-0.9-1.8-1.8-2.7-2.8
				c-6.7-6.7-13-13-9.1-23.2c4.2-11,15.1-12,25.9-12.2h1.1c33.3,0,81.7,21.4,87.5,62.5c1.5,10.8,7.7,16.9,17,16.9h0.2
				c9.2-0.1,15.2-5.8,17.6-16.6c1-4.6,1.4-9.3,1.3-14C301.5,424.2,300.7,384.5,299.8,347.5z"/>
			<path d="M212.8,54.4l5.2,6.3c7.1,8.5,14,16.9,21.1,25.3c3.6,4.5,7.7,8.7,12.1,12.5c1.6,1.4,3.5,2.5,5.5,3.2c2,0.7,4.2,1,6.4,0.8
				c1.5-0.2,2.9-0.7,4.2-1.5c1.3-0.8,2.4-1.8,3.2-3c1.6-2.5,2.7-5.3,3.1-8.2c0.4-2.9,0.2-5.9-0.6-8.7c-2.7-6.2-6.5-11.9-11.3-16.6
				l-0.6-0.7c-10.7-12.2-21.8-24.4-32.4-36.3c-4.1-4.5-8.2-9.1-12.3-13.6C209.6,6.3,204.4,3.1,199,3.1h0c-5.1,0-10.2,3-16.3,9.8
				c-17.8,19.6-35,40.3-51.7,60.3c-4.3,5.1-8.6,10.3-12.9,15.4c-1.4,1.5-2.5,3.3-3.3,5.2c-0.7,1.9-1.1,4-1,6
				c0.2,1.6,0.7,3.1,1.4,4.5c0.8,1.4,1.8,2.6,3.1,3.5c5.8,4.9,13,3.9,19.2-2.6c4.1-4.3,8.1-9,12-13.4c2.8-3.3,5.7-6.5,8.6-9.7
				c1.9-2,3.7-4.1,5.5-6.3c4.7-5.6,9.8-11,15.1-16.1c0,1.1,0,2.2,0,3.2c0,3.5,0,6.1,0,8.6l0.9,31.7c0.9,34,1.9,69.2,3.2,103.8
				c0.5,9.8,2,19.5,4.6,29c0.8,3.3,2.7,6.1,5.4,8.1c2.7,2,6,3,9.4,2.8c0.5,0,1,0,1.5-0.1c3.6-0.1,7-1.5,9.6-4
				c2.6-2.5,4.2-5.9,4.4-9.5c0.8-5.8,1.1-11.6,0.9-17.4c-0.7-11.3-1.4-22.6-2.2-33.8c-1.3-18.6-2.7-37.9-3.4-56.9
				c-0.6-17.1-0.5-34-0.3-51.8C212.7,67.3,212.7,60.9,212.8,54.4z"/>
		</g>
	</g>
	<g>
		<defs>
			<rect id="SVGID_00000177463986650364474330000006311328132013757315_" x="113.1" y="3.1" width="571.9" height="792.6"/>
		</defs>
		<clipPath id="SVGID_00000026883238801909217920000017956590270665650872_">
			<use xlink:href="#SVGID_00000177463986650364474330000006311328132013757315_"  style="overflow:visible;"/>
		</clipPath>
		<g style="clip-path:url(#SVGID_00000026883238801909217920000017956590270665650872_);">
			<path class="st2" d="M660,639.6c17.3-59.6,24.6-121.7,21.7-183.7c-1.2-19.6-5.8-38.8-13.7-56.7c-3.2-7.6-8.1-14.3-14.3-19.8
				c-6.2-5.5-13.4-9.5-21.3-11.8c-8.6-2.5-17.6-3.1-26.4-1.8c-8.8,1.3-17.3,4.6-24.7,9.5c-1.8,1.1-3.5,2.4-5.3,3.6l-1,0.7
				c-4.7-10.2-11.7-19.2-20.5-26.2c-8.8-7-19.1-11.9-30.1-14.3c-9.4-1.8-19-1.3-28.1,1.5c-9.1,2.8-17.4,7.7-24.2,14.4
				c-7.7-12-18.2-24.2-36.1-27.8c-17.3-3.5-31,5-44.3,13.2l-0.1,0.1c-0.4-6.7-0.9-13.3-1.3-19.7c-1-16.4-2-31.8-3.5-47.5
				c-0.6-5.8-1.1-11.6-1.7-17.4c-2.6-27.3-5.3-55.6-10.3-83c-2.7-14.8-9.3-30.9-20.2-49.2c-6.4-10.7-14.6-17.1-24.6-19
				c-9.4-1.8-20.2,0.6-31,7.1c-5.6,3.3-10.5,7.8-14.4,13c-3.9,5.3-6.7,11.2-8.2,17.6c-2.2,7.8-3.6,15.8-4.2,23.9
				c-0.3,5.5-0.7,11-1.1,16.4c-1.4,21.6-2.9,43.9-2.9,65.8c0.1,44.6,0.8,90.1,1.5,134.2c0.3,17.4,0.5,34.8,0.8,52.4
				c-0.5-0.3-1-0.6-1.5-1c-0.8-0.6-1.5-1.3-2.2-2c-0.9-0.9-2-1.8-3-2.6c-34.2-24.7-70.6-33.4-108.1-25.7c-8,1.5-15.6,4.9-21.9,10
				c-6.4,5.1-11.3,11.7-14.5,19.3c-3.1,7.9-4.3,16.4-3.3,24.8c1,8.4,4,16.4,8.9,23.4c4,5.5,8.6,10.6,13.7,15.1
				c2.9,2.8,6,5.7,8.7,8.7c4.9,5.4,9.9,10.8,14.9,16.1c12.9,12.9,24.7,26.9,35.2,41.8c10.7,16.8,20.3,34.2,28.9,52.2
				c4.8,9.6,9.8,19.5,15.1,29l1.2,2.1c12.6,23,25.6,46.7,39.9,69.2c7.1,10.6,15.9,19.9,26.1,27.6c20.5,15.9,43.4,28.5,67.7,37.4
				c24.3,9.4,50.1,14.2,76.2,14.2c30-0.3,59.6-6,87.6-16.7c19.1-7.1,36.6-19.6,54.4-32.8C625,722.3,645.8,688.8,660,639.6z
				 M299.8,347.5c-0.2-8.4-0.6-16.8-1-25c-0.7-14.3-1.4-29-1-43.5c1.1-42.2,3.4-83.4,5.5-118.1c1.2-18.9,4.3-23.6,20.9-30.3
				c10.6,7.2,17,18.5,20.2,35.6c4.4,22.9,7.5,46.1,9.2,69.4c2.5,36.4,4.3,73.4,6,109.2c0.8,15.5,1.5,31.1,2.3,46.6
				c0.4,8.5,2.4,17.4,13.4,20c10.7,2.5,16.4-6.2,20.5-15c0.9-2,1.8-3.9,2.7-5.9c4.1-9.9,9.3-19.4,15.5-28.2
				c5.4-7.1,12.1-10.5,18.6-9.4c6.6,1.1,12,6.7,14.9,15.4c2,7.4,3.1,15,3.3,22.7c0.1,2.4,0.3,4.9,0.5,7.3c0.1,2,0,4.1-0.3,6.1
				c-0.6,3.2-0.5,6.5,0.3,9.6c1.9,5,5.7,9,10.6,11.3c1.5,0.6,3.1,1,4.7,1c1.6,0,3.2-0.3,4.7-0.9c1.6-0.7,3-1.8,4.2-3
				c1.2-1.3,2.1-2.8,2.7-4.4c0.9-2.5,1.6-5.1,2.2-7.7c0.5-2.4,1.2-4.8,2-7.1c0.8-2,1.5-4.1,2.3-6.1c2.8-8.1,6.2-15.9,10.2-23.4
				c5.8-10,12.6-12.5,24.5-9.3c15.1,4.2,24.6,13.7,27.5,27.4c1.4,8.1,2.3,16.3,2.4,24.5c0.1,2.5,0.2,5.1,0.4,7.6
				c0.5,7.8,2.4,16.1,12.5,18.7c10,2.5,15.3-3.8,19.6-11c1-1.7,2-3.4,3-5.2c3.1-5.7,6.6-11.2,10.5-16.5c7.8-10,17.1-15.1,25.4-13.9
				c8,1.2,14.7,7.8,18.9,18.7c7.2,17.2,11.4,35.5,12.5,54.1c1.7,50.8-4.7,101.5-19,150.3c-7.3,25.1-18.3,48.9-32.6,70.7
				c-16.8,25.2-43.4,43.1-81.3,54.9c-65.6,20.3-127.3,9.3-188.6-33.8c-6-4-11.3-9.1-15.5-14.9c-10.4-15-20-30.5-28.8-46.4
				c-13.5-25.1-26.7-51.1-40.3-79.4c-20.7-43.1-46.8-76.6-79.9-102.5c-0.8-0.6-1.6-1.3-2.4-2.1c-0.9-0.9-1.8-1.8-2.7-2.8
				c-6.7-6.7-13-13-9.1-23.2c4.2-11,15.1-12,25.9-12.2h1.1c33.3,0,81.7,21.4,87.5,62.5c1.5,10.8,7.7,16.9,17,16.9h0.2
				c9.2-0.1,15.2-5.8,17.6-16.6c1-4.6,1.4-9.3,1.3-14C301.5,424.2,300.7,384.5,299.8,347.5z"/>
			<path class="st2" d="M212.8,54.4l5.2,6.3c7.1,8.5,14,16.9,21.1,25.3c3.6,4.5,7.7,8.7,12.1,12.5c1.6,1.4,3.5,2.5,5.5,3.2
				c2,0.7,4.2,1,6.4,0.8c1.5-0.2,2.9-0.7,4.2-1.5c1.3-0.8,2.4-1.8,3.2-3c1.6-2.5,2.7-5.3,3.1-8.2c0.4-2.9,0.2-5.9-0.6-8.7
				c-2.7-6.2-6.5-11.9-11.3-16.6l-0.6-0.7c-10.7-12.2-21.8-24.4-32.4-36.3c-4.1-4.5-8.2-9.1-12.3-13.6C209.6,6.3,204.4,3.1,199,3.1
				h0c-5.1,0-10.2,3-16.3,9.8c-17.8,19.6-35,40.3-51.7,60.3c-4.3,5.1-8.6,10.3-12.9,15.4c-1.4,1.5-2.5,3.3-3.3,5.2
				c-0.7,1.9-1.1,4-1,6c0.2,1.6,0.7,3.1,1.4,4.5c0.8,1.4,1.8,2.6,3.1,3.5c5.8,4.9,13,3.9,19.2-2.6c4.1-4.3,8.1-9,12-13.4
				c2.8-3.3,5.7-6.5,8.6-9.7c1.9-2,3.7-4.1,5.5-6.3c4.7-5.6,9.8-11,15.1-16.1c0,1.1,0,2.2,0,3.2c0,3.5,0,6.1,0,8.6l0.9,31.7
				c0.9,34,1.9,69.2,3.2,103.8c0.5,9.8,2,19.5,4.6,29c0.8,3.3,2.7,6.1,5.4,8.1c2.7,2,6,3,9.4,2.8c0.5,0,1,0,1.5-0.1
				c3.6-0.1,7-1.5,9.6-4c2.6-2.5,4.2-5.9,4.4-9.5c0.8-5.8,1.1-11.6,0.9-17.4c-0.7-11.3-1.4-22.6-2.2-33.8
				c-1.3-18.6-2.7-37.9-3.4-56.9c-0.6-17.1-0.5-34-0.3-51.8C212.7,67.3,212.7,60.9,212.8,54.4z"/>
		</g>
	</g>
	<g>
		<defs>
			<rect id="SVGID_00000165228986199277144870000000241378323460157109_" x="113.1" y="3.1" width="571.9" height="792.6"/>
		</defs>
		<clipPath id="SVGID_00000113333581597506854160000007551456082220073132_">
			<use xlink:href="#SVGID_00000165228986199277144870000000241378323460157109_"  style="overflow:visible;"/>
		</clipPath>
	</g>
	<g>
		<defs>
			<rect id="SVGID_00000161596219745748171060000009117481474100524676_" x="113.1" y="3.1" width="571.9" height="792.6"/>
		</defs>
		<clipPath id="SVGID_00000018955331925415360600000006652947638723736754_">
			<use xlink:href="#SVGID_00000161596219745748171060000009117481474100524676_"  style="overflow:visible;"/>
		</clipPath>
		<g style="clip-path:url(#SVGID_00000018955331925415360600000006652947638723736754_);">
			<path class="st4" d="M660,639.6c17.3-59.6,24.6-121.7,21.7-183.7c-1.2-19.6-5.8-38.8-13.7-56.7c-3.2-7.6-8.1-14.3-14.3-19.8
				c-6.2-5.5-13.4-9.5-21.3-11.8c-8.6-2.5-17.6-3.1-26.4-1.8c-8.8,1.3-17.3,4.6-24.7,9.5c-1.8,1.1-3.5,2.4-5.3,3.6l-1,0.7
				c-4.7-10.2-11.7-19.2-20.5-26.2c-8.8-7-19.1-11.9-30.1-14.3c-9.4-1.8-19-1.3-28.1,1.5c-9.1,2.8-17.4,7.7-24.2,14.4
				c-7.7-12-18.2-24.2-36.1-27.8c-17.3-3.5-31,5-44.3,13.2l-0.1,0.1c-0.4-6.7-0.9-13.3-1.3-19.7c-1-16.4-2-31.8-3.5-47.5
				c-0.6-5.8-1.1-11.6-1.7-17.4c-2.6-27.3-5.3-55.6-10.3-83c-2.7-14.8-9.3-30.9-20.2-49.2c-6.4-10.7-14.6-17.1-24.6-19
				c-9.4-1.8-20.2,0.6-31,7.1c-5.6,3.3-10.5,7.8-14.4,13c-3.9,5.3-6.7,11.2-8.2,17.6c-2.2,7.8-3.6,15.8-4.2,23.9
				c-0.3,5.5-0.7,11-1.1,16.4c-1.4,21.6-2.9,43.9-2.9,65.8c0.1,44.6,0.8,90.1,1.5,134.2c0.3,17.4,0.5,34.8,0.8,52.4
				c-0.5-0.3-1-0.6-1.5-1c-0.8-0.6-1.5-1.3-2.2-2c-0.9-0.9-2-1.8-3-2.6c-34.2-24.7-70.6-33.4-108.1-25.7c-8,1.5-15.6,4.9-21.9,10
				c-6.4,5.1-11.3,11.7-14.5,19.3c-3.1,7.9-4.3,16.4-3.3,24.8c1,8.4,4,16.4,8.9,23.4c4,5.5,8.6,10.6,13.7,15.1
				c2.9,2.8,6,5.7,8.7,8.7c4.9,5.4,9.9,10.8,14.9,16.1c12.9,12.9,24.7,26.9,35.2,41.8c10.7,16.8,20.3,34.2,28.9,52.2
				c4.8,9.6,9.8,19.5,15.1,29l1.2,2.1c12.6,23,25.6,46.7,39.9,69.2c7.1,10.6,15.9,19.9,26.1,27.6c20.5,15.9,43.4,28.5,67.7,37.4
				c24.3,9.4,50.1,14.2,76.2,14.2c30-0.3,59.6-6,87.6-16.7c19.1-7.1,36.6-19.6,54.4-32.8C625,722.3,645.8,688.8,660,639.6z
				 M299.8,347.5c-0.2-8.4-0.6-16.8-1-25c-0.7-14.3-1.4-29-1-43.5c1.1-42.2,3.4-83.4,5.5-118.1c1.2-18.9,4.3-23.6,20.9-30.3
				c10.6,7.2,17,18.5,20.2,35.6c4.4,22.9,7.5,46.1,9.2,69.4c2.5,36.4,4.3,73.4,6,109.2c0.8,15.5,1.5,31.1,2.3,46.6
				c0.4,8.5,2.4,17.4,13.4,20c10.7,2.5,16.4-6.2,20.5-15c0.9-2,1.8-3.9,2.7-5.9c4.1-9.9,9.3-19.4,15.5-28.2
				c5.4-7.1,12.1-10.5,18.6-9.4c6.6,1.1,12,6.7,14.9,15.4c2,7.4,3.1,15,3.3,22.7c0.1,2.4,0.3,4.9,0.5,7.3c0.1,2,0,4.1-0.3,6.1
				c-0.6,3.2-0.5,6.5,0.3,9.6c1.9,5,5.7,9,10.6,11.3c1.5,0.6,3.1,1,4.7,1c1.6,0,3.2-0.3,4.7-0.9c1.6-0.7,3-1.8,4.2-3
				c1.2-1.3,2.1-2.8,2.7-4.4c0.9-2.5,1.6-5.1,2.2-7.7c0.5-2.4,1.2-4.8,2-7.1c0.8-2,1.5-4.1,2.3-6.1c2.8-8.1,6.2-15.9,10.2-23.4
				c5.8-10,12.6-12.5,24.5-9.3c15.1,4.2,24.6,13.7,27.5,27.4c1.4,8.1,2.3,16.3,2.4,24.5c0.1,2.5,0.2,5.1,0.4,7.6
				c0.5,7.8,2.4,16.1,12.5,18.7c10,2.5,15.3-3.8,19.6-11c1-1.7,2-3.4,3-5.2c3.1-5.7,6.6-11.2,10.5-16.5c7.8-10,17.1-15.1,25.4-13.9
				c8,1.2,14.7,7.8,18.9,18.7c7.2,17.2,11.4,35.5,12.5,54.1c1.7,50.8-4.7,101.5-19,150.3c-7.3,25.1-18.3,48.9-32.6,70.7
				c-16.8,25.2-43.4,43.1-81.3,54.9c-65.6,20.3-127.3,9.3-188.6-33.8c-6-4-11.3-9.1-15.5-14.9c-10.4-15-20-30.5-28.8-46.4
				c-13.5-25.1-26.7-51.1-40.3-79.4c-20.7-43.1-46.8-76.6-79.9-102.5c-0.8-0.6-1.6-1.3-2.4-2.1c-0.9-0.9-1.8-1.8-2.7-2.8
				c-6.7-6.7-13-13-9.1-23.2c4.2-11,15.1-12,25.9-12.2h1.1c33.3,0,81.7,21.4,87.5,62.5c1.5,10.8,7.7,16.9,17,16.9h0.2
				c9.2-0.1,15.2-5.8,17.6-16.6c1-4.6,1.4-9.3,1.3-14C301.5,424.2,300.7,384.5,299.8,347.5z"/>
			<path class="st4" d="M212.8,54.4l5.2,6.3c7.1,8.5,14,16.9,21.1,25.3c3.6,4.5,7.7,8.7,12.1,12.5c1.6,1.4,3.5,2.5,5.5,3.2
				c2,0.7,4.2,1,6.4,0.8c1.5-0.2,2.9-0.7,4.2-1.5c1.3-0.8,2.4-1.8,3.2-3c1.6-2.5,2.7-5.3,3.1-8.2c0.4-2.9,0.2-5.9-0.6-8.7
				c-2.7-6.2-6.5-11.9-11.3-16.6l-0.6-0.7c-10.7-12.2-21.8-24.4-32.4-36.3c-4.1-4.5-8.2-9.1-12.3-13.6C209.6,6.3,204.4,3.1,199,3.1
				h0c-5.1,0-10.2,3-16.3,9.8c-17.8,19.6-35,40.3-51.7,60.3c-4.3,5.1-8.6,10.3-12.9,15.4c-1.4,1.5-2.5,3.3-3.3,5.2
				c-0.7,1.9-1.1,4-1,6c0.2,1.6,0.7,3.1,1.4,4.5c0.8,1.4,1.8,2.6,3.1,3.5c5.8,4.9,13,3.9,19.2-2.6c4.1-4.3,8.1-9,12-13.4
				c2.8-3.3,5.7-6.5,8.6-9.7c1.9-2,3.7-4.1,5.5-6.3c4.7-5.6,9.8-11,15.1-16.1c0,1.1,0,2.2,0,3.2c0,3.5,0,6.1,0,8.6l0.9,31.7
				c0.9,34,1.9,69.2,3.2,103.8c0.5,9.8,2,19.5,4.6,29c0.8,3.3,2.7,6.1,5.4,8.1c2.7,2,6,3,9.4,2.8c0.5,0,1,0,1.5-0.1
				c3.6-0.1,7-1.5,9.6-4c2.6-2.5,4.2-5.9,4.4-9.5c0.8-5.8,1.1-11.6,0.9-17.4c-0.7-11.3-1.4-22.6-2.2-33.8
				c-1.3-18.6-2.7-37.9-3.4-56.9c-0.6-17.1-0.5-34-0.3-51.8C212.7,67.3,212.7,60.9,212.8,54.4z"/>
		</g>
	</g>
</g>
<g>
	<g>
		<path d="M97.1,960.4c-9.6,0-17.5-2.1-23.9-6.2c-6.4-4.2-10.9-9.8-13.6-17l18.5-10.7c3.8,8.7,10.3,13,19.7,13
			c8.5,0,12.7-2.5,12.7-7.6c0-2.8-1.4-4.9-4.1-6.5c-2.7-1.6-7.8-3.4-15.3-5.4c-3.9-1.1-7.4-2.3-10.3-3.6c-2.9-1.3-5.8-3.1-8.6-5.3
			c-2.8-2.2-5-4.9-6.4-8.2c-1.5-3.3-2.2-7.1-2.2-11.4c0-8.7,3.1-15.6,9.3-20.8c6.2-5.2,13.6-7.8,22.2-7.8c7.7,0,14.5,1.8,20.4,5.4
			s10.5,8.9,13.9,15.7l-18.1,10.6c-1.7-3.6-3.8-6.3-6.3-8.1c-2.5-1.8-5.8-2.7-9.9-2.7c-3.2,0-5.7,0.7-7.4,2.1
			c-1.7,1.4-2.6,3.1-2.6,5c0,2.3,1.1,4.3,3.3,6c2.2,1.7,6.7,3.6,13.6,5.6c3.8,1.2,6.7,2.1,8.7,2.8c2.1,0.7,4.7,1.9,7.8,3.6
			c3.2,1.7,5.6,3.4,7.2,5.2c1.7,1.8,3.1,4.2,4.4,7.2c1.3,3,1.9,6.4,1.9,10.3c0,8.9-3.2,16-9.6,21.1
			C115.9,957.8,107.5,960.4,97.1,960.4z"/>
		<path d="M186.8,960.4c-14,0-25.7-4.7-34.9-14c-9.2-9.3-13.9-20.9-13.9-34.8c0-13.8,4.6-25.4,13.9-34.8c9.2-9.3,20.9-14,34.9-14
			c8.4,0,16.2,1.9,23.3,5.8c7.1,3.9,12.8,9.2,16.9,15.9l-18.5,10.7c-2.1-3.7-5-6.5-8.8-8.5c-3.8-2-8.1-3-12.9-3
			c-8.3,0-14.9,2.5-19.9,7.6s-7.4,11.8-7.4,20.2c0,8.4,2.5,15.1,7.4,20.2s11.6,7.6,19.9,7.6c4.7,0,9-1,12.9-3.1
			c3.9-2.1,6.8-4.9,8.8-8.4l18.5,10.7c-4,6.7-9.6,12-16.8,15.9C203.1,958.4,195.3,960.4,186.8,960.4z"/>
		<path d="M286.3,958.5l-17.7-30.8h-10.2v30.8H237v-93.8h37.5c8.9,0,16.5,3.1,22.8,9.4c6.3,6.3,9.4,13.8,9.4,22.8
			c0,5.7-1.6,11-4.8,15.9c-3.2,4.9-7.3,8.6-12.5,11.3l20,34.4H286.3z M258.5,884.8v24.1h16.1c2.9,0,5.5-1.2,7.6-3.5
			c2.1-2.3,3.1-5.2,3.1-8.6c0-3.4-1.1-6.3-3.1-8.6c-2.1-2.3-4.6-3.5-7.6-3.5H258.5z"/>
		<path d="M397.4,946.3c-9.5,9.4-21,14.1-34.6,14.1c-13.6,0-25.1-4.7-34.6-14.1c-9.5-9.4-14.2-20.9-14.2-34.7
			c0-13.8,4.7-25.3,14.2-34.7c9.5-9.4,21-14.1,34.6-14.1c13.6,0,25.1,4.7,34.6,14.1c9.5,9.4,14.2,21,14.2,34.7
			C411.6,925.3,406.9,936.9,397.4,946.3z M343.4,931.7c5.2,5.2,11.7,7.8,19.5,7.8s14.3-2.6,19.5-7.8c5.2-5.2,7.8-11.9,7.8-20.1
			c0-8.2-2.6-14.9-7.8-20.1c-5.2-5.2-11.7-7.8-19.5-7.8s-14.3,2.6-19.5,7.8c-5.2,5.2-7.8,11.9-7.8,20.1
			C335.5,919.8,338.1,926.5,343.4,931.7z"/>
		<path d="M445.1,937.8h33.5v20.6h-54.9v-93.8h21.4V937.8z"/>
		<path d="M509.5,937.8H543v20.6H488v-93.8h21.4V937.8z"/>
		<path d="M647.3,951.6c-6.8,5.8-15.5,8.7-26,8.7c-10.5,0-19.2-2.9-26-8.7c-6.8-5.8-10.2-13.6-10.2-23.5v-63.5h21.4v61.6
			c0,8.8,4.9,13.1,14.7,13.1c9.8,0,14.7-4.4,14.7-13.1v-61.6h21.4v63.5C657.5,938,654.1,945.8,647.3,951.6z"/>
		<path d="M708.4,864.7c9.2,0,17,3.1,23.3,9.4c6.3,6.3,9.5,13.8,9.5,22.8c0,8.9-3.2,16.5-9.5,22.8c-6.3,6.3-14.1,9.4-23.3,9.4h-14.1
			v29.5h-21.4v-93.8H708.4z M708.4,908.9c3.3,0,6-1.2,8.2-3.5c2.1-2.3,3.2-5.2,3.2-8.6c0-3.4-1.1-6.3-3.2-8.6
			c-2.1-2.3-4.9-3.5-8.2-3.5h-14.1v24.1H708.4z"/>
	</g>
	<g>
		<path class="st2" d="M97.1,960.4c-9.6,0-17.5-2.1-23.9-6.2c-6.4-4.2-10.9-9.8-13.6-17l18.5-10.7c3.8,8.7,10.3,13,19.7,13
			c8.5,0,12.7-2.5,12.7-7.6c0-2.8-1.4-4.9-4.1-6.5c-2.7-1.6-7.8-3.4-15.3-5.4c-3.9-1.1-7.4-2.3-10.3-3.6c-2.9-1.3-5.8-3.1-8.6-5.3
			c-2.8-2.2-5-4.9-6.4-8.2c-1.5-3.3-2.2-7.1-2.2-11.4c0-8.7,3.1-15.6,9.3-20.8c6.2-5.2,13.6-7.8,22.2-7.8c7.7,0,14.5,1.8,20.4,5.4
			s10.5,8.9,13.9,15.7l-18.1,10.6c-1.7-3.6-3.8-6.3-6.3-8.1c-2.5-1.8-5.8-2.7-9.9-2.7c-3.2,0-5.7,0.7-7.4,2.1
			c-1.7,1.4-2.6,3.1-2.6,5c0,2.3,1.1,4.3,3.3,6c2.2,1.7,6.7,3.6,13.6,5.6c3.8,1.2,6.7,2.1,8.7,2.8c2.1,0.7,4.7,1.9,7.8,3.6
			c3.2,1.7,5.6,3.4,7.2,5.2c1.7,1.8,3.1,4.2,4.4,7.2c1.3,3,1.9,6.4,1.9,10.3c0,8.9-3.2,16-9.6,21.1
			C115.9,957.8,107.5,960.4,97.1,960.4z"/>
		<path class="st2" d="M186.8,960.4c-14,0-25.7-4.7-34.9-14c-9.2-9.3-13.9-20.9-13.9-34.8c0-13.8,4.6-25.4,13.9-34.8
			c9.2-9.3,20.9-14,34.9-14c8.4,0,16.2,1.9,23.3,5.8c7.1,3.9,12.8,9.2,16.9,15.9l-18.5,10.7c-2.1-3.7-5-6.5-8.8-8.5
			c-3.8-2-8.1-3-12.9-3c-8.3,0-14.9,2.5-19.9,7.6s-7.4,11.8-7.4,20.2c0,8.4,2.5,15.1,7.4,20.2s11.6,7.6,19.9,7.6c4.7,0,9-1,12.9-3.1
			c3.9-2.1,6.8-4.9,8.8-8.4l18.5,10.7c-4,6.7-9.6,12-16.8,15.9C203.1,958.4,195.3,960.4,186.8,960.4z"/>
		<path class="st2" d="M286.3,958.5l-17.7-30.8h-10.2v30.8H237v-93.8h37.5c8.9,0,16.5,3.1,22.8,9.4c6.3,6.3,9.4,13.8,9.4,22.8
			c0,5.7-1.6,11-4.8,15.9c-3.2,4.9-7.3,8.6-12.5,11.3l20,34.4H286.3z M258.5,884.8v24.1h16.1c2.9,0,5.5-1.2,7.6-3.5
			c2.1-2.3,3.1-5.2,3.1-8.6c0-3.4-1.1-6.3-3.1-8.6c-2.1-2.3-4.6-3.5-7.6-3.5H258.5z"/>
		<path class="st2" d="M397.4,946.3c-9.5,9.4-21,14.1-34.6,14.1c-13.6,0-25.1-4.7-34.6-14.1c-9.5-9.4-14.2-20.9-14.2-34.7
			c0-13.8,4.7-25.3,14.2-34.7c9.5-9.4,21-14.1,34.6-14.1c13.6,0,25.1,4.7,34.6,14.1c9.5,9.4,14.2,21,14.2,34.7
			C411.6,925.3,406.9,936.9,397.4,946.3z M343.4,931.7c5.2,5.2,11.7,7.8,19.5,7.8s14.3-2.6,19.5-7.8c5.2-5.2,7.8-11.9,7.8-20.1
			c0-8.2-2.6-14.9-7.8-20.1c-5.2-5.2-11.7-7.8-19.5-7.8s-14.3,2.6-19.5,7.8c-5.2,5.2-7.8,11.9-7.8,20.1
			C335.5,919.8,338.1,926.5,343.4,931.7z"/>
		<path class="st2" d="M445.1,937.8h33.5v20.6h-54.9v-93.8h21.4V937.8z"/>
		<path class="st2" d="M509.5,937.8H543v20.6H488v-93.8h21.4V937.8z"/>
		<path class="st2" d="M647.3,951.6c-6.8,5.8-15.5,8.7-26,8.7c-10.5,0-19.2-2.9-26-8.7c-6.8-5.8-10.2-13.6-10.2-23.5v-63.5h21.4
			v61.6c0,8.8,4.9,13.1,14.7,13.1c9.8,0,14.7-4.4,14.7-13.1v-61.6h21.4v63.5C657.5,938,654.1,945.8,647.3,951.6z"/>
		<path class="st2" d="M708.4,864.7c9.2,0,17,3.1,23.3,9.4c6.3,6.3,9.5,13.8,9.5,22.8c0,8.9-3.2,16.5-9.5,22.8
			c-6.3,6.3-14.1,9.4-23.3,9.4h-14.1v29.5h-21.4v-93.8H708.4z M708.4,908.9c3.3,0,6-1.2,8.2-3.5c2.1-2.3,3.2-5.2,3.2-8.6
			c0-3.4-1.1-6.3-3.2-8.6c-2.1-2.3-4.9-3.5-8.2-3.5h-14.1v24.1H708.4z"/>
	</g>
	<g>
		<path class="st4" d="M97.1,960.4c-9.6,0-17.5-2.1-23.9-6.2c-6.4-4.2-10.9-9.8-13.6-17l18.5-10.7c3.8,8.7,10.3,13,19.7,13
			c8.5,0,12.7-2.5,12.7-7.6c0-2.8-1.4-4.9-4.1-6.5c-2.7-1.6-7.8-3.4-15.3-5.4c-3.9-1.1-7.4-2.3-10.3-3.6c-2.9-1.3-5.8-3.1-8.6-5.3
			c-2.8-2.2-5-4.9-6.4-8.2c-1.5-3.3-2.2-7.1-2.2-11.4c0-8.7,3.1-15.6,9.3-20.8c6.2-5.2,13.6-7.8,22.2-7.8c7.7,0,14.5,1.8,20.4,5.4
			s10.5,8.9,13.9,15.7l-18.1,10.6c-1.7-3.6-3.8-6.3-6.3-8.1c-2.5-1.8-5.8-2.7-9.9-2.7c-3.2,0-5.7,0.7-7.4,2.1
			c-1.7,1.4-2.6,3.1-2.6,5c0,2.3,1.1,4.3,3.3,6c2.2,1.7,6.7,3.6,13.6,5.6c3.8,1.2,6.7,2.1,8.7,2.8c2.1,0.7,4.7,1.9,7.8,3.6
			c3.2,1.7,5.6,3.4,7.2,5.2c1.7,1.8,3.1,4.2,4.4,7.2c1.3,3,1.9,6.4,1.9,10.3c0,8.9-3.2,16-9.6,21.1
			C115.9,957.8,107.5,960.4,97.1,960.4z"/>
		<path class="st4" d="M186.8,960.4c-14,0-25.7-4.7-34.9-14c-9.2-9.3-13.9-20.9-13.9-34.8c0-13.8,4.6-25.4,13.9-34.8
			c9.2-9.3,20.9-14,34.9-14c8.4,0,16.2,1.9,23.3,5.8c7.1,3.9,12.8,9.2,16.9,15.9l-18.5,10.7c-2.1-3.7-5-6.5-8.8-8.5
			c-3.8-2-8.1-3-12.9-3c-8.3,0-14.9,2.5-19.9,7.6s-7.4,11.8-7.4,20.2c0,8.4,2.5,15.1,7.4,20.2s11.6,7.6,19.9,7.6c4.7,0,9-1,12.9-3.1
			c3.9-2.1,6.8-4.9,8.8-8.4l18.5,10.7c-4,6.7-9.6,12-16.8,15.9C203.1,958.4,195.3,960.4,186.8,960.4z"/>
		<path class="st4" d="M286.3,958.5l-17.7-30.8h-10.2v30.8H237v-93.8h37.5c8.9,0,16.5,3.1,22.8,9.4c6.3,6.3,9.4,13.8,9.4,22.8
			c0,5.7-1.6,11-4.8,15.9c-3.2,4.9-7.3,8.6-12.5,11.3l20,34.4H286.3z M258.5,884.8v24.1h16.1c2.9,0,5.5-1.2,7.6-3.5
			c2.1-2.3,3.1-5.2,3.1-8.6c0-3.4-1.1-6.3-3.1-8.6c-2.1-2.3-4.6-3.5-7.6-3.5H258.5z"/>
		<path class="st4" d="M397.4,946.3c-9.5,9.4-21,14.1-34.6,14.1c-13.6,0-25.1-4.7-34.6-14.1c-9.5-9.4-14.2-20.9-14.2-34.7
			c0-13.8,4.7-25.3,14.2-34.7c9.5-9.4,21-14.1,34.6-14.1c13.6,0,25.1,4.7,34.6,14.1c9.5,9.4,14.2,21,14.2,34.7
			C411.6,925.3,406.9,936.9,397.4,946.3z M343.4,931.7c5.2,5.2,11.7,7.8,19.5,7.8s14.3-2.6,19.5-7.8c5.2-5.2,7.8-11.9,7.8-20.1
			c0-8.2-2.6-14.9-7.8-20.1c-5.2-5.2-11.7-7.8-19.5-7.8s-14.3,2.6-19.5,7.8c-5.2,5.2-7.8,11.9-7.8,20.1
			C335.5,919.8,338.1,926.5,343.4,931.7z"/>
		<path class="st4" d="M445.1,937.8h33.5v20.6h-54.9v-93.8h21.4V937.8z"/>
		<path class="st4" d="M509.5,937.8H543v20.6H488v-93.8h21.4V937.8z"/>
		<path class="st4" d="M647.3,951.6c-6.8,5.8-15.5,8.7-26,8.7c-10.5,0-19.2-2.9-26-8.7c-6.8-5.8-10.2-13.6-10.2-23.5v-63.5h21.4
			v61.6c0,8.8,4.9,13.1,14.7,13.1c9.8,0,14.7-4.4,14.7-13.1v-61.6h21.4v63.5C657.5,938,654.1,945.8,647.3,951.6z"/>
		<path class="st4" d="M708.4,864.7c9.2,0,17,3.1,23.3,9.4c6.3,6.3,9.5,13.8,9.5,22.8c0,8.9-3.2,16.5-9.5,22.8
			c-6.3,6.3-14.1,9.4-23.3,9.4h-14.1v29.5h-21.4v-93.8H708.4z M708.4,908.9c3.3,0,6-1.2,8.2-3.5c2.1-2.3,3.2-5.2,3.2-8.6
			c0-3.4-1.1-6.3-3.2-8.6c-2.1-2.3-4.9-3.5-8.2-3.5h-14.1v24.1H708.4z"/>
	</g>
</g>
</svg>
