<?xml version="1.0" encoding="UTF-8"?>
<svg xmlns="http://www.w3.org/2000/svg" xmlns:xlink="http://www.w3.org/1999/xlink" viewBox="0 0 1919.55 1080.25">
  <defs>
    <style>
      .cls-1 {
        fill: none;
      }

      .cls-2 {
        clip-path: url(#clippath);
      }

      .cls-3 {
        clip-path: url(#clippath-1);
      }

      .cls-4 {
        clip-path: url(#clippath-4);
      }

      .cls-5 {
        clip-path: url(#clippath-3);
      }

      .cls-6 {
        clip-path: url(#clippath-2);
      }

      .cls-7 {
        clip-path: url(#clippath-5);
      }

      .cls-8 {
        mix-blend-mode: overlay;
      }

      .cls-9 {
        isolation: isolate;
      }
    </style>
    <clipPath id="clippath">
      <rect class="cls-1" width="1919.55" height="1080.25"/>
    </clipPath>
    <clipPath id="clippath-1">
      <path d="M-20.4,1109.88c9,9.96,13.5,14.94,22.5,24.9,146.27-152.79,209.45-322.86,197.08-534.56-8.2,.88-12.3,1.31-20.5,2.19,6.01,205.07-54.97,361.37-199.08,507.47Z"/>
    </clipPath>
    <clipPath id="clippath-2">
      <path d="M-65.4,1146.21c2.4,8.7,3.61,13.05,6.01,21.75,133.97-47.66,223.24-130.78,279.67-261.7-5.19-1.95-7.79-2.92-12.98-4.87-58.26,125.01-142.04,200.53-272.7,244.82Z"/>
    </clipPath>
    <clipPath id="clippath-3">
      <path d="M-59.26,1114.44c6.22,7.36,9.33,11.05,15.54,18.41,108.66-106.07,158.12-226.56,154.39-378.74-5.9,.43-8.86,.64-14.76,1.07-.67,147.28-48.22,257.94-155.17,359.26Z"/>
    </clipPath>
    <clipPath id="clippath-4">
      <path d="M1980,1134.77c-4.71,8-7.07,12-11.77,20-120.33-83.11-186.8-189.51-207.89-334.6,5.68-.55,8.51-.82,14.19-1.37,24.48,139.72,87.53,237.09,205.48,315.98Z"/>
    </clipPath>
    <clipPath id="clippath-5">
      <path d="M1990.87,1167.84c-4.44,5.63-6.66,8.44-11.1,14.07-83.4-76.15-123.15-164.5-124.14-277.71,4.4,.17,6.6,.26,11,.43,4.15,109.46,42.23,190.55,124.24,263.21Z"/>
    </clipPath>
  </defs>
  <g class="cls-9">
    <g id="Layer_2" data-name="Layer 2">
      <g id="Layer_1-2" data-name="Layer 1">
        <g class="cls-8">
          <g class="cls-2">
            <g>
              <g>
                <path d="M135.93,524.03c-4.5-5.65-8.79-10.54-12.67-14.49-.39-.4-.15-1.06,.4-1.12,16.64-1.85,38.28,11.82,52.92,34.97,14.64,23.15,17.71,48.57,8.9,62.8-.29,.47-1,.4-1.19-.12-1.95-5.33-4.62-11.47-7.9-18.15-.09-.18-.09-.39,0-.57l3.83-8.15c.26-.56-.31-1.14-.88-.88-1.46,.69-3.68,1.73-5.75,2.7-.32,.15-.7,.02-.86-.29-2.76-5.24-5.83-10.73-9.19-16.37-.11-.19-.12-.42-.03-.62l1.68-3.58c.26-.56-.32-1.14-.88-.88-.68,.32-1.53,.72-2.46,1.15-.3,.14-.66,.04-.84-.25-1.01-1.66-2.05-3.32-3.11-4.99-.07-.11-.13-.21-.2-.32,2.13-1.76,5.01-4.14,6.71-5.53,.48-.39,.2-1.17-.42-1.17l-10.3-.04c-.22,0-.43-.11-.55-.3-4.13-6.23-8.25-12.06-12.26-17.39-.21-.28-.16-.68,.11-.9,1.77-1.46,3.68-3.03,4.93-4.06,.48-.39,.2-1.17-.42-1.17l-9.07-.03c-.2,0-.39-.09-.51-.25Z"/>
                <path d="M77.93,574.88c-8.97-1.14-17.08-1.8-24.01-1.96-.7-.02-1.06-.82-.62-1.36,13.32-16.17,44.67-22.78,78-14.76,33.33,8.02,58.25,28.16,62.76,48.62,.15,.68-.54,1.23-1.17,.93-6.4-3.09-14.15-6.27-22.92-9.41-.24-.08-.42-.27-.5-.51l-3.67-10.65c-.25-.73-1.28-.75-1.55-.03-.71,1.89-1.8,4.76-2.81,7.43-.16,.41-.6,.63-1.02,.49-7.05-2.3-14.6-4.55-22.53-6.68-.26-.07-.48-.27-.57-.53l-1.61-4.68c-.25-.73-1.28-.75-1.55-.03-.33,.89-.75,1.98-1.2,3.18-.15,.39-.56,.61-.97,.51-2.35-.6-4.74-1.19-7.14-1.77-.15-.04-.3-.07-.46-.11,.38-3.44,.89-8.08,1.2-10.82,.09-.77-.84-1.22-1.4-.69l-9.28,8.95c-.2,.19-.48,.27-.75,.21-9.14-1.99-17.93-3.63-26.17-4.92-.44-.07-.74-.46-.69-.9,.31-2.85,.66-5.92,.88-7.95,.09-.77-.84-1.22-1.4-.68l-8.17,7.88c-.18,.17-.43,.26-.68,.22Z"/>
                <g>
                  <path d="M-20.4,1109.88c9,9.96,13.5,14.94,22.5,24.9,146.27-152.79,209.45-322.86,197.08-534.56-8.2,.88-12.3,1.31-20.5,2.19,6.01,205.07-54.97,361.37-199.08,507.47Z"/>
                  <g class="cls-3">
                    <g>
                      <path d="M171.74,626.97c16.31-1.09,24.47-1.64,40.78-2.72-.08-1.21-.12-1.81-.21-3.02-16.31,1.16-24.46,1.75-40.77,2.92,.08,1.13,.12,1.7,.2,2.83Z"/>
                      <path d="M173.02,658.2c16.35-.23,24.52-.35,40.87-.58-.02-1.21-.03-1.81-.05-3.01-16.35,.31-24.52,.46-40.87,.77,.02,1.13,.03,1.69,.05,2.82Z"/>
                      <path d="M172.65,689.3c16.34,.62,24.51,.93,40.85,1.56,.05-1.2,.07-1.8,.11-3-16.34-.55-24.51-.82-40.85-1.37-.04,1.12-.06,1.68-.1,2.81Z"/>
                      <path d="M170.68,720.21c16.28,1.47,24.43,2.21,40.71,3.68,.11-1.19,.16-1.79,.26-2.98-16.29-1.4-24.44-2.1-40.73-3.49-.1,1.11-.14,1.67-.24,2.78Z"/>
                      <path d="M167.11,750.86c16.19,2.31,24.28,3.47,40.46,5.79,.17-1.18,.25-1.77,.41-2.95-16.2-2.24-24.29-3.36-40.49-5.6-.15,1.1-.23,1.66-.39,2.76Z"/>
                      <path d="M161.98,781.19c16.04,3.15,24.07,4.72,40.11,7.88,.23-1.17,.34-1.75,.56-2.92-16.06-3.08-24.09-4.62-40.15-7.69-.21,1.09-.31,1.64-.53,2.73Z"/>
                      <path d="M155.29,811.15c15.86,3.97,23.79,5.96,39.65,9.94,.29-1.15,.43-1.73,.71-2.88-15.88-3.9-23.82-5.85-39.7-9.75-.26,1.08-.4,1.62-.67,2.69Z"/>
                      <path d="M147.08,840.69c15.63,4.78,23.45,7.18,39.08,11.97,.35-1.13,.52-1.7,.86-2.83-15.66-4.72-23.48-7.07-39.14-11.78-.32,1.06-.48,1.59-.8,2.65Z"/>
                      <path d="M137.38,869.73c15.37,5.58,23.05,8.38,38.42,13.96,.4-1.11,.6-1.67,1-2.78-15.39-5.52-23.09-8.27-38.48-13.78-.37,1.04-.56,1.56-.94,2.61Z"/>
                      <path d="M126.19,898.23c15.06,6.37,22.59,9.55,37.65,15.92,.46-1.09,.69-1.64,1.15-2.73-15.09-6.3-22.63-9.45-37.72-15.75-.43,1.02-.64,1.53-1.07,2.55Z"/>
                    </g>
                  </g>
                </g>
                <path d="M267.98,553.25c6.42-3.31,12.33-6.03,17.49-8.04,.52-.2,.57-.91,.09-1.19-14.43-8.49-39.77-4.87-62.6,10.27-22.83,15.14-36.02,37.08-33.81,53.67,.07,.55,.74,.78,1.13,.38,3.96-4.07,8.91-8.58,14.63-13.33,.15-.13,.24-.32,.24-.52l-.16-9c-.01-.62,.76-.91,1.16-.45,1.05,1.23,2.65,3.08,4.14,4.81,.23,.27,.62,.31,.9,.09,4.66-3.66,9.71-7.41,15.08-11.18,.18-.13,.29-.33,.28-.55l-.07-3.96c-.01-.62,.76-.91,1.16-.45,.49,.57,1.11,1.29,1.77,2.06,.22,.25,.59,.3,.87,.12,1.6-1.1,3.23-2.19,4.88-3.29,.1-.07,.21-.14,.31-.21-1.22-2.48-2.88-5.82-3.86-7.79-.28-.55,.29-1.15,.86-.9l9.42,4.18c.2,.09,.43,.07,.62-.05,6.31-3.99,12.46-7.63,18.3-10.85,.31-.17,.43-.55,.27-.87-1.02-2.06-2.11-4.27-2.84-5.72-.28-.55,.3-1.14,.86-.89l8.29,3.68c.18,.08,.39,.07,.57-.02Z"/>
                <path d="M157.69,652.48c-2.11,3.85-3.85,7.4-5.15,10.51-.13,.31-.56,.33-.73,.04-4.94-8.9-2.36-24.25,7.18-37.89,9.55-13.65,23.08-21.34,33.13-19.74,.33,.05,.46,.46,.21,.69-2.53,2.35-5.35,5.28-8.32,8.69-.08,.09-.2,.14-.32,.14l-5.47-.23c-.38-.02-.57,.45-.29,.7,.73,.66,1.83,1.66,2.86,2.59,.16,.14,.18,.38,.04,.55-2.29,2.78-4.65,5.79-7.02,9-.08,.11-.21,.17-.34,.16l-2.4-.1c-.38-.02-.57,.45-.29,.7,.34,.31,.76,.69,1.22,1.11,.15,.14,.18,.36,.06,.53-.69,.96-1.38,1.93-2.07,2.92-.04,.06-.09,.12-.13,.19-1.49-.78-3.5-1.84-4.68-2.46-.33-.18-.7,.16-.56,.51l2.4,5.79c.05,.12,.04,.27-.04,.38-2.52,3.78-4.83,7.46-6.87,10.96-.11,.19-.34,.25-.53,.15-1.23-.65-2.56-1.35-3.44-1.81-.33-.18-.7,.16-.56,.51l2.11,5.09c.05,.11,.04,.24-.02,.35Z"/>
                <path d="M94.5,650.56c-6.86,4.36-12.85,8.56-17.74,12.44-.49,.39-1.21,.04-1.21-.58-.07-18.84,17.83-41.41,45.49-55.01,27.66-13.59,56.47-13.97,71.34-2.4,.49,.38,.33,1.16-.28,1.31-6.2,1.54-13.39,3.79-21.26,6.65-.21,.08-.45,.06-.64-.06l-8.65-5.26c-.59-.36-1.32,.21-1.09,.87,.59,1.72,1.49,4.33,2.32,6.76,.13,.38-.06,.78-.42,.93-6.2,2.45-12.71,5.24-19.42,8.32-.22,.1-.49,.09-.7-.04l-3.8-2.31c-.6-.36-1.32,.22-1.09,.87,.28,.8,.62,1.8,.99,2.89,.12,.36-.04,.75-.38,.91-1.97,.93-3.96,1.89-5.96,2.88-.13,.06-.25,.12-.38,.19-1.71-2.59-4.02-6.1-5.38-8.17-.38-.58-1.28-.36-1.36,.33l-1.28,11.52c-.03,.25-.18,.46-.4,.58-7.46,3.87-14.49,7.78-20.93,11.62-.34,.2-.78,.1-.99-.23-1.42-2.16-2.95-4.48-3.95-6.01-.38-.58-1.28-.36-1.36,.33l-1.13,10.14c-.02,.22-.15,.42-.34,.54Z"/>
                <path d="M255.27,656.8c4.45,4.29,8.28,8.34,11.33,11.96,.31,.36,.89,.21,.99-.25,2.91-14.03-6.99-33.57-25.54-47.91-18.55-14.34-39.96-18.99-52.8-12.64-.43,.21-.42,.82,0,1.02,4.39,2.09,9.4,4.86,14.83,8.19,.15,.09,.33,.11,.49,.05l7.25-2.61c.5-.18,.95,.36,.68,.82-.7,1.19-1.77,3-2.76,4.68-.15,.26-.08,.59,.18,.76,4.24,2.77,8.68,5.84,13.21,9.15,.15,.11,.35,.14,.52,.08l3.19-1.15c.5-.18,.95,.36,.68,.82-.33,.56-.74,1.25-1.18,2-.15,.25-.08,.56,.15,.74,1.33,1,2.66,2.01,4,3.05,.09,.07,.17,.13,.25,.2,1.67-1.67,3.93-3.94,5.25-5.27,.37-.38,1.01-.08,.96,.45l-.8,8.78c-.02,.19,.06,.37,.21,.49,4.97,4.02,9.61,8,13.83,11.84,.22,.2,.56,.19,.78-.02,1.39-1.39,2.88-2.89,3.86-3.87,.37-.38,1.01-.08,.96,.45l-.7,7.73c-.02,.17,.05,.34,.17,.46Z"/>
                <path d="M216.26,607.48c-9.89,.09-18.79,.57-26.32,1.42-.76,.09-1.27-.74-.87-1.38,12.05-19.5,45.07-31.29,82.39-27.53,37.32,3.77,67.31,21.93,75.22,43.44,.26,.71-.41,1.42-1.13,1.18-7.4-2.4-16.26-4.71-26.23-6.81-.27-.06-.5-.23-.62-.48l-5.55-11.01c-.38-.76-1.5-.63-1.69,.2-.49,2.16-1.24,5.43-1.95,8.47-.11,.47-.56,.77-1.03,.68-7.98-1.45-16.5-2.77-25.41-3.92-.3-.04-.56-.22-.69-.49l-2.44-4.84c-.38-.76-1.5-.63-1.69,.2-.23,1.01-.52,2.26-.83,3.62-.1,.45-.52,.75-.98,.69-2.64-.31-5.31-.59-8.01-.87-.17-.02-.34-.03-.51-.05-.1-3.78-.23-8.89-.3-11.9-.02-.85-1.09-1.2-1.61-.54l-8.74,11.07c-.19,.24-.48,.36-.78,.34-10.2-.81-19.97-1.29-29.09-1.47-.48,0-.87-.39-.88-.88-.08-3.14-.16-6.52-.22-8.75-.02-.85-1.09-1.2-1.61-.53l-7.69,9.75c-.17,.21-.43,.34-.7,.34Z"/>
              </g>
              <g>
                <path d="M190.18,846.08c-2.26-4.3-4.46-8.08-6.52-11.18-.21-.31,.04-.72,.41-.69,11.22,.89,23.77,12.67,30.49,29.81,6.72,17.14,5.52,34.31-2.11,42.59-.25,.27-.71,.14-.77-.23-.61-3.77-1.59-8.16-2.91-12.99-.04-.13-.01-.27,.07-.38l3.56-4.89c.24-.34-.06-.8-.47-.69-1.05,.27-2.65,.67-4.14,1.05-.23,.06-.46-.07-.53-.3-1.15-3.81-2.49-7.83-3.99-11.98-.05-.14-.03-.29,.06-.41l1.57-2.15c.24-.34-.06-.8-.47-.69-.49,.13-1.1,.28-1.77,.45-.22,.06-.44-.06-.52-.27-.46-1.22-.93-2.45-1.42-3.69-.03-.08-.06-.16-.09-.23,1.63-.89,3.83-2.09,5.13-2.8,.37-.2,.28-.75-.13-.83l-6.8-1.33c-.15-.03-.27-.13-.32-.27-1.93-4.64-3.92-9.01-5.88-13.04-.1-.21-.02-.47,.19-.58,1.35-.74,2.81-1.53,3.77-2.06,.37-.2,.28-.74-.13-.82l-5.98-1.17c-.13-.03-.25-.11-.31-.23Z"/>
                <path d="M145.43,872.28c-5.78-1.89-11.05-3.36-15.6-4.34-.46-.1-.6-.68-.24-.98,10.85-8.98,32.39-9.36,53.37,.17s34.87,25.99,35.25,40.07c.01,.47-.52,.74-.89,.46-3.83-2.85-8.54-5.94-13.93-9.12-.14-.09-.24-.23-.27-.4l-1.07-7.5c-.07-.52-.75-.66-1.02-.22-.71,1.16-1.79,2.91-2.8,4.55-.16,.25-.48,.34-.74,.19-4.36-2.41-9.06-4.86-14.02-7.27-.17-.08-.28-.24-.31-.42l-.47-3.29c-.07-.52-.75-.66-1.02-.22-.33,.54-.75,1.22-1.2,1.95-.15,.24-.45,.33-.71,.21-1.48-.7-2.97-1.39-4.49-2.08-.1-.04-.19-.09-.29-.13,.68-2.22,1.62-5.22,2.17-6.99,.15-.5-.4-.91-.83-.63l-7.27,4.73c-.16,.1-.35,.12-.52,.04-5.78-2.47-11.37-4.68-16.65-6.57-.28-.1-.43-.4-.34-.68,.57-1.84,1.19-3.83,1.59-5.13,.15-.5-.4-.91-.83-.63l-6.4,4.16c-.14,.09-.32,.11-.48,.06Z"/>
                <g>
                  <path d="M-65.4,1146.21c2.4,8.7,3.61,13.05,6.01,21.75,133.97-47.66,223.24-130.78,279.67-261.7-5.19-1.95-7.79-2.92-12.98-4.87-58.26,125.01-142.04,200.53-272.7,244.82Z"/>
                  <g class="cls-6">
                    <g>
                      <path d="M195.72,914.05c10.13,4.27,15.2,6.4,25.32,10.67,.32-.75,.47-1.13,.79-1.88-10.15-4.22-15.22-6.33-25.37-10.55-.29,.7-.44,1.06-.74,1.76Z"/>
                      <path d="M187.06,933.2c9.89,4.79,14.84,7.19,24.73,11.98,.35-.73,.53-1.09,.88-1.83-9.91-4.75-14.87-7.12-24.79-11.87-.33,.68-.49,1.03-.82,1.71Z"/>
                      <path d="M177.46,951.77c9.63,5.3,14.44,7.95,24.07,13.26,.39-.71,.58-1.06,.97-1.77-9.65-5.26-14.48-7.89-24.13-13.15-.36,.66-.54,.99-.91,1.66Z"/>
                      <path d="M166.95,969.74c9.34,5.8,14.01,8.7,23.35,14.49,.42-.68,.63-1.02,1.06-1.71-9.36-5.76-14.05-8.63-23.41-14.38-.39,.64-.59,.96-.99,1.6Z"/>
                      <path d="M155.56,987.08c9.03,6.27,13.54,9.41,22.56,15.69,.46-.66,.68-.99,1.14-1.65-9.05-6.23-13.58-9.35-22.64-15.58-.42,.62-.64,.93-1.07,1.54Z"/>
                      <path d="M143.33,1003.76c8.69,6.73,13.03,10.1,21.72,16.83,.49-.63,.73-.95,1.22-1.58-8.72-6.69-13.08-10.04-21.8-16.73-.45,.59-.68,.89-1.14,1.48Z"/>
                      <path d="M130.27,1019.74c8.33,7.17,12.5,10.76,20.82,17.93,.52-.6,.78-.91,1.3-1.51-8.36-7.13-12.54-10.7-20.91-17.83-.48,.57-.73,.85-1.21,1.42Z"/>
                      <path d="M116.43,1035.01c7.95,7.59,11.92,11.39,19.87,18.98,.55-.58,.82-.86,1.37-1.44-7.98-7.56-11.97-11.33-19.96-18.89-.51,.54-.77,.81-1.28,1.35Z"/>
                      <path d="M101.84,1049.53c7.55,7.99,11.32,11.99,18.87,19.98,.58-.55,.87-.82,1.44-1.37-7.58-7.96-11.37-11.94-18.96-19.89-.54,.51-.81,.77-1.35,1.28Z"/>
                      <path d="M86.52,1063.28c7.13,8.37,10.69,12.55,17.81,20.92,.61-.52,.91-.77,1.51-1.29-7.16-8.34-10.75-12.51-17.91-20.84-.56,.49-.85,.73-1.41,1.21Z"/>
                    </g>
                  </g>
                </g>
                <path d="M273.64,882.15c4.66-1.37,8.91-2.41,12.57-3.09,.37-.07,.49-.53,.21-.77-8.44-7.44-25.63-8.27-42.63-1.18-16.99,7.09-28.49,19.9-29.14,31.14-.02,.37,.39,.61,.7,.39,3.13-2.18,6.97-4.53,11.35-6.94,.12-.06,.2-.18,.22-.31l1.04-5.96c.07-.41,.61-.51,.82-.15,.54,.94,1.36,2.37,2.12,3.7,.12,.21,.37,.28,.58,.17,3.54-1.82,7.35-3.66,11.38-5.46,.13-.06,.23-.18,.26-.33l.46-2.62c.07-.41,.61-.51,.82-.15,.25,.44,.57,.99,.91,1.58,.11,.2,.35,.28,.56,.19,1.2-.52,2.41-1.04,3.64-1.55,.08-.03,.16-.06,.23-.1-.49-1.79-1.16-4.21-1.56-5.63-.11-.4,.34-.72,.68-.48l5.69,3.96c.12,.08,.28,.1,.42,.05,4.68-1.83,9.2-3.45,13.46-4.84,.23-.07,.35-.31,.29-.54-.41-1.49-.85-3.09-1.15-4.14-.11-.4,.34-.72,.68-.48l5.01,3.48c.11,.08,.25,.1,.38,.06Z"/>
                <path d="M188.22,933.64c-1.88,2.27-3.48,4.4-4.74,6.28-.13,.19-.41,.15-.48-.07-2.13-6.5,1.52-16.31,9.56-24.1,8.04-7.8,17.95-11.15,24.38-8.82,.21,.08,.24,.37,.05,.49-1.97,1.23-4.2,2.81-6.6,4.68-.06,.05-.15,.07-.23,.05l-3.58-.85c-.25-.06-.43,.22-.28,.42,.4,.53,1,1.33,1.56,2.07,.09,.12,.07,.28-.04,.37-1.87,1.54-3.81,3.23-5.78,5.05-.07,.06-.16,.09-.24,.06l-1.57-.37c-.25-.06-.43,.22-.28,.42,.19,.25,.42,.55,.67,.89,.08,.11,.07,.26-.03,.36-.58,.54-1.16,1.1-1.74,1.66-.04,.04-.07,.07-.11,.11-.88-.7-2.07-1.66-2.77-2.22-.2-.16-.48,.02-.43,.27l.85,4.13c.02,.09,0,.18-.07,.24-2.15,2.17-4.13,4.31-5.93,6.36-.1,.11-.26,.12-.37,.03-.73-.59-1.52-1.22-2.04-1.63-.2-.16-.48,.02-.43,.27l.75,3.63c.02,.08,0,.16-.06,.23Z"/>
                <path d="M146.75,924.34c-5.08,2.01-9.57,4.02-13.29,5.96-.37,.19-.8-.13-.72-.54,2.35-12.44,17.03-25.07,37.02-30.53,19.99-5.46,39.05-2.04,47.4,7.48,.28,.32,.07,.81-.35,.83-4.29,.23-9.32,.8-14.88,1.69-.15,.02-.3-.02-.42-.12l-5.04-4.57c-.35-.31-.9-.03-.83,.44,.17,1.21,.43,3.05,.68,4.75,.04,.26-.14,.51-.4,.56-4.4,.83-9.06,1.84-13.88,3.02-.16,.04-.33,0-.45-.11l-2.22-2.01c-.35-.31-.9-.03-.83,.44,.08,.57,.18,1.27,.29,2.03,.04,.25-.12,.49-.37,.55-1.42,.37-2.86,.75-4.3,1.14-.09,.02-.18,.05-.27,.08-.8-1.93-1.88-4.54-2.51-6.08-.18-.43-.8-.4-.94,.04l-2.31,7.44c-.05,.16-.18,.28-.34,.33-5.42,1.61-10.55,3.3-15.29,5.01-.25,.09-.52-.03-.63-.28-.66-1.6-1.38-3.33-1.85-4.47-.18-.43-.8-.4-.94,.05l-2.03,6.55c-.04,.14-.15,.26-.29,.32Z"/>
                <path d="M252.09,948.89c2.39,3.4,4.4,6.55,5.96,9.34,.16,.28,.56,.25,.69-.04,3.71-8.89-.35-23.05-10.77-34.87s-23.97-17.62-33.25-15.05c-.31,.09-.38,.49-.13,.68,2.63,1.94,5.59,4.4,8.75,7.29,.08,.08,.2,.11,.31,.1l5.12-.8c.35-.06,.58,.36,.35,.63-.62,.7-1.55,1.75-2.42,2.74-.13,.15-.13,.38,.02,.52,2.45,2.37,4.99,4.95,7.56,7.72,.09,.09,.21,.14,.34,.12l2.25-.35c.35-.06,.58,.36,.35,.63-.29,.33-.65,.73-1.03,1.17-.13,.15-.13,.36,0,.5,.75,.83,1.5,1.67,2.26,2.52,.05,.05,.09,.11,.14,.16,1.32-.89,3.09-2.1,4.14-2.81,.29-.2,.68,.08,.58,.42l-1.64,5.7c-.04,.12,0,.25,.08,.35,2.77,3.29,5.33,6.5,7.62,9.58,.12,.16,.35,.2,.51,.09,1.09-.74,2.27-1.54,3.04-2.07,.29-.2,.68,.08,.58,.42l-1.45,5.01c-.03,.11-.01,.23,.06,.32Z"/>
                <path d="M232.61,911.37c-6.54-1.2-12.47-2.01-17.56-2.41-.51-.04-.75-.65-.4-1.02,10.44-11.34,33.73-14.93,57.88-7.7,24.16,7.23,41.65,23.03,44.14,38.23,.08,.51-.45,.88-.9,.64-4.58-2.53-10.14-5.17-16.45-7.83-.17-.07-.3-.22-.35-.39l-2.26-7.97c-.16-.55-.91-.6-1.14-.08-.6,1.36-1.51,3.42-2.36,5.35-.13,.3-.47,.44-.77,.32-5.08-1.97-10.54-3.93-16.28-5.81-.19-.06-.34-.22-.4-.41l-.99-3.5c-.16-.55-.91-.6-1.14-.08-.28,.64-.63,1.43-1.01,2.29-.12,.28-.44,.43-.73,.33-1.7-.54-3.43-1.07-5.18-1.59-.11-.03-.22-.06-.33-.1,.41-2.51,.98-5.9,1.32-7.9,.09-.56-.57-.93-1-.56l-7.18,6.2c-.15,.13-.36,.18-.56,.12-6.63-1.83-13.02-3.39-19.02-4.67-.32-.07-.52-.37-.47-.69,.35-2.08,.72-4.32,.97-5.8,.09-.56-.57-.93-1-.56l-6.32,5.46c-.14,.12-.33,.17-.51,.14Z"/>
              </g>
              <g>
                <path d="M54.61,709.17c-4.11-3.16-7.93-5.84-11.32-7.93-.34-.21-.29-.72,.09-.85,11.28-4.14,28.71,1.67,42.89,15.3,14.18,13.63,20.67,30.82,16.98,42.25-.12,.38-.63,.45-.85,.12-2.27-3.38-5.19-7.2-8.62-11.3-.09-.11-.13-.26-.1-.4l1.27-6.34c.09-.44-.42-.74-.76-.46-.9,.73-2.27,1.84-3.54,2.87-.2,.16-.48,.14-.65-.05-2.82-3.18-5.91-6.48-9.22-9.84-.11-.11-.16-.27-.13-.43l.56-2.78c.09-.44-.42-.74-.76-.46-.42,.34-.95,.77-1.51,1.23-.19,.15-.46,.14-.63-.03-.99-.98-2-1.96-3.02-2.95-.06-.06-.13-.12-.19-.19,1.18-1.59,2.78-3.74,3.73-5.01,.27-.36-.06-.85-.49-.74l-7.19,1.74c-.15,.04-.32,0-.43-.11-3.95-3.63-7.82-6.99-11.53-10.02-.2-.16-.23-.44-.08-.65,.98-1.32,2.04-2.74,2.74-3.68,.27-.36-.06-.85-.49-.74l-6.33,1.53c-.14,.03-.29,0-.4-.09Z"/>
                <path d="M22.9,754.57c-6.45,.74-12.22,1.68-17.08,2.75-.49,.11-.88-.39-.67-.84,6.51-13.56,27.23-23.54,51.84-23.67,24.61-.13,45.44,9.64,52.09,23.12,.22,.45-.17,.95-.66,.85-4.99-1.05-10.94-1.94-17.59-2.62-.18-.02-.34-.12-.44-.27l-4.38-6.8c-.3-.47-1.02-.3-1.09,.25-.17,1.44-.44,3.63-.68,5.66-.04,.31-.31,.54-.63,.52-5.31-.4-10.96-.67-16.85-.79-.2,0-.38-.11-.49-.27l-1.93-2.99c-.3-.47-1.02-.3-1.09,.25-.08,.67-.18,1.51-.29,2.42-.04,.3-.29,.52-.59,.52-1.74-.02-3.51-.02-5.28-.01-.11,0-.22,0-.34,0-.33-2.46-.76-5.79-1.02-7.75-.07-.55-.79-.71-1.09-.24l-4.94,7.83c-.11,.17-.29,.27-.49,.28-6.71,.18-13.12,.54-19.08,1.06-.32,.03-.59-.2-.63-.51-.27-2.04-.56-4.24-.75-5.69-.07-.55-.79-.71-1.09-.24l-4.34,6.89c-.1,.15-.26,.25-.44,.27Z"/>
                <g>
                  <path d="M-59.26,1114.44c6.22,7.36,9.33,11.05,15.54,18.41,108.66-106.07,158.12-226.56,154.39-378.74-5.9,.43-8.86,.64-14.76,1.07-.67,147.28-48.22,257.94-155.17,359.26Z"/>
                  <g class="cls-5">
                    <g>
                      <path d="M90.33,772.63c11.73-.39,17.6-.58,29.33-.96-.03-.87-.04-1.3-.08-2.17-11.73,.44-17.59,.66-29.32,1.1,.03,.81,.05,1.22,.07,2.03Z"/>
                      <path d="M90.49,795.07c11.74,.23,17.6,.35,29.34,.58,.02-.87,.02-1.3,.04-2.16-11.74-.18-17.6-.27-29.34-.44-.01,.81-.02,1.21-.03,2.02Z"/>
                      <path d="M89.47,817.37c11.71,.84,17.56,1.27,29.27,2.11,.06-.86,.09-1.29,.15-2.15-11.71-.79-17.57-1.19-29.28-1.97-.05,.8-.08,1.21-.14,2.01Z"/>
                      <path d="M87.3,839.5c11.65,1.45,17.47,2.18,29.12,3.63,.11-.85,.16-1.28,.26-2.13-11.65-1.4-17.48-2.1-29.14-3.5-.1,.8-.14,1.2-.24,1.99Z"/>
                      <path d="M84,861.4c11.56,2.05,17.33,3.08,28.89,5.14,.15-.84,.22-1.26,.37-2.11-11.57-2-17.35-3-28.91-5-.14,.79-.21,1.18-.35,1.97Z"/>
                      <path d="M79.58,883.04c11.44,2.65,17.15,3.97,28.59,6.63,.19-.83,.29-1.25,.48-2.08-11.45-2.6-17.17-3.9-28.62-6.49-.18,.78-.27,1.17-.45,1.94Z"/>
                      <path d="M74.05,904.38c11.28,3.23,16.92,4.85,28.21,8.09,.23-.82,.35-1.23,.58-2.05-11.3-3.19-16.95-4.78-28.24-7.96-.22,.77-.32,1.15-.54,1.92Z"/>
                      <path d="M67.45,925.37c11.1,3.81,16.65,5.72,27.75,9.53,.28-.8,.41-1.21,.69-2.01-11.12-3.76-16.68-5.65-27.8-9.41-.26,.75-.38,1.13-.64,1.88Z"/>
                      <path d="M59.78,945.97c10.89,4.38,16.33,6.57,27.22,10.95,.32-.79,.47-1.18,.79-1.97-10.91-4.33-16.36-6.5-27.27-10.82-.29,.74-.44,1.11-.74,1.85Z"/>
                      <path d="M51.06,966.15c10.65,4.93,15.98,7.4,26.62,12.34,.36-.77,.53-1.16,.89-1.93-10.67-4.89-16.01-7.33-26.68-12.21-.33,.72-.5,1.08-.83,1.81Z"/>
                    </g>
                  </g>
                </g>
                <path d="M151.67,706.89c3.91-3.41,7.56-6.32,10.81-8.61,.33-.23,.24-.73-.14-.85-11.51-3.44-28.56,3.43-41.87,17.9-13.32,14.47-18.75,32.03-14.36,43.21,.15,.37,.65,.41,.85,.07,2.06-3.52,4.74-7.51,7.91-11.8,.09-.12,.11-.27,.08-.4l-1.66-6.25c-.11-.43,.37-.77,.73-.51,.95,.67,2.38,1.69,3.71,2.64,.21,.15,.49,.11,.64-.09,2.62-3.35,5.5-6.83,8.6-10.38,.1-.12,.14-.28,.1-.43l-.73-2.74c-.11-.43,.37-.77,.73-.51,.44,.32,.99,.71,1.59,1.13,.2,.14,.46,.11,.63-.07,.93-1.04,1.87-2.08,2.84-3.13,.06-.07,.12-.13,.18-.2-1.28-1.52-3.01-3.56-4.03-4.77-.29-.34,0-.85,.45-.77l7.28,1.3c.16,.03,.31-.02,.42-.14,3.72-3.87,7.38-7.46,10.89-10.7,.19-.17,.2-.46,.04-.65-1.06-1.26-2.21-2.61-2.96-3.5-.29-.34,0-.85,.45-.77l6.41,1.14c.14,.03,.29-.02,.4-.11Z"/>
                <path d="M91.81,794.98c-.81,3.05-1.41,5.82-1.79,8.21-.04,.24-.33,.33-.5,.15-4.97-5.35-5.81-16.5-1.5-27.65,4.31-11.15,12.43-18.83,19.71-19.45,.24-.02,.4,.24,.27,.45-1.36,2.07-2.82,4.6-4.31,7.49-.04,.08-.11,.13-.2,.15l-3.85,.77c-.26,.05-.32,.41-.08,.54,.62,.33,1.56,.84,2.44,1.31,.14,.07,.19,.24,.12,.38-1.12,2.33-2.25,4.84-3.35,7.48-.04,.09-.11,.15-.21,.17l-1.69,.34c-.27,.05-.32,.41-.08,.54,.29,.16,.65,.35,1.04,.56,.13,.07,.19,.22,.13,.36-.32,.79-.63,1.58-.94,2.39-.02,.05-.04,.1-.06,.15-1.17-.29-2.75-.68-3.68-.91-.26-.07-.46,.23-.3,.45l2.66,3.62c.06,.08,.07,.18,.04,.27-1.11,3.07-2.08,6.03-2.91,8.82-.04,.15-.19,.23-.34,.2-.97-.24-2.02-.5-2.71-.67-.26-.07-.46,.23-.3,.45l2.35,3.19c.05,.07,.07,.16,.05,.25Z"/>
                <path d="M47.43,804.48c-4.03,4.22-7.49,8.17-10.23,11.71-.27,.35-.83,.24-.94-.2-3.28-13.12,5.32-31.93,22.27-46.15,16.95-14.22,36.97-19.42,49.32-13.91,.41,.18,.43,.75,.03,.96-4.06,2.14-8.68,4.94-13.68,8.29-.13,.09-.3,.12-.46,.07l-6.94-2.18c-.48-.15-.88,.38-.61,.8,.71,1.1,1.78,2.76,2.78,4.31,.15,.24,.1,.55-.14,.72-3.9,2.77-7.96,5.83-12.11,9.13-.14,.11-.32,.15-.49,.09l-3.05-.96c-.48-.15-.88,.38-.61,.8,.33,.51,.74,1.15,1.19,1.84,.15,.23,.1,.53-.11,.7-1.22,.99-2.44,2-3.66,3.03-.08,.06-.15,.13-.23,.2-1.64-1.51-3.85-3.56-5.15-4.77-.37-.34-.96-.03-.89,.46l1.08,8.25c.02,.18-.04,.35-.18,.47-4.54,3.98-8.76,7.91-12.59,11.69-.2,.2-.52,.2-.73,.01-1.36-1.26-2.82-2.61-3.79-3.51-.37-.34-.95-.03-.89,.46l.95,7.27c.02,.16-.03,.32-.14,.44Z"/>
                <path d="M160.58,781.25c3.84,2.23,7.2,4.39,9.95,6.4,.28,.2,.66,0,.65-.35-.37-10.28-10.63-22.2-26.02-29.01-15.39-6.81-31.11-6.38-38.97,.25-.26,.22-.16,.64,.18,.71,3.42,.7,7.39,1.77,11.74,3.16,.12,.04,.25,.02,.35-.05l4.61-3.06c.32-.21,.72,.09,.61,.45-.29,.95-.72,2.39-1.12,3.74-.06,.21,.05,.42,.25,.5,3.43,1.2,7.05,2.58,10.78,4.11,.12,.05,.27,.04,.38-.04l2.02-1.35c.32-.21,.72,.09,.61,.45-.13,.44-.3,1-.48,1.6-.06,.2,.04,.41,.23,.49,1.1,.47,2.2,.95,3.31,1.44,.07,.03,.14,.06,.21,.09,.88-1.45,2.06-3.42,2.76-4.58,.2-.33,.69-.23,.75,.15l.95,6.26c.02,.13,.11,.25,.23,.31,4.16,1.95,8.07,3.93,11.67,5.88,.19,.1,.43,.04,.54-.15,.73-1.21,1.51-2.51,2.02-3.36,.2-.33,.69-.23,.75,.15l.84,5.51c.02,.12,.09,.23,.2,.29Z"/>
                <path d="M124.92,753.56c-6.88,1.76-13,3.62-18.11,5.51-.51,.19-1.01-.29-.85-.81,5.06-15.66,26.05-29.55,52.71-33.32,26.66-3.78,50.68,3.74,59.89,17.37,.31,.45-.04,1.06-.59,1.02-5.57-.41-12.15-.49-19.46-.25-.2,0-.39-.08-.52-.23l-5.76-6.72c-.4-.46-1.15-.18-1.14,.43,.03,1.59,.06,4,.1,6.24,0,.35-.26,.63-.6,.65-5.81,.36-11.98,.9-18.39,1.63-.21,.02-.43-.06-.57-.22l-2.53-2.95c-.4-.46-1.15-.18-1.14,.43,.01,.74,.03,1.67,.04,2.67,0,.33-.24,.61-.56,.65-1.89,.24-3.8,.5-5.73,.77-.12,.02-.24,.04-.37,.05-.72-2.62-1.68-6.16-2.25-8.25-.16-.59-.97-.65-1.22-.1l-4.19,9.22c-.09,.2-.27,.34-.49,.37-7.25,1.19-14.14,2.53-20.53,3.97-.34,.08-.67-.13-.76-.46-.59-2.18-1.23-4.52-1.65-6.06-.16-.59-.97-.65-1.22-.09l-3.69,8.12c-.08,.18-.24,.31-.43,.36Z"/>
              </g>
              <g>
                <path d="M1806.29,768.43c3.39-3.67,6.59-6.83,9.46-9.36,.29-.25,.16-.73-.22-.8-11.38-2.11-26.99,6.23-38.25,21.46-11.25,15.23-14.64,32.61-9.28,42.87,.18,.34,.67,.33,.83-.02,1.61-3.58,3.76-7.68,6.35-12.12,.07-.12,.08-.27,.03-.39l-2.23-5.81c-.15-.4,.27-.77,.65-.56,.97,.55,2.45,1.38,3.83,2.15,.21,.12,.48,.05,.61-.15,2.16-3.48,4.56-7.11,7.16-10.83,.09-.12,.11-.28,.05-.42l-.98-2.55c-.15-.4,.27-.77,.65-.56,.46,.26,1.02,.57,1.64,.92,.2,.11,.46,.06,.59-.13,.78-1.09,1.58-2.19,2.39-3.29,.05-.07,.1-.14,.15-.21-1.38-1.32-3.25-3.1-4.35-4.15-.31-.29-.08-.82,.35-.79l7.11,.49c.15,.01,.3-.06,.39-.18,3.16-4.09,6.29-7.91,9.32-11.38,.16-.18,.15-.46-.03-.63-1.15-1.1-2.38-2.27-3.2-3.05-.31-.29-.08-.81,.35-.78l6.26,.43c.14,0,.27-.05,.37-.15Z"/>
                <path d="M1843.74,806.4c6.24-.34,11.87-.39,16.66-.15,.48,.02,.77-.51,.5-.91-8.38-11.82-29.67-17.94-53.05-14.08-23.39,3.86-41.58,16.5-45.71,30.39-.14,.46,.31,.88,.76,.7,4.57-1.81,10.07-3.62,16.28-5.34,.17-.05,.31-.17,.37-.33l3.06-7.16c.21-.49,.92-.45,1.07,.06,.4,1.34,1,3.37,1.57,5.27,.09,.29,.38,.46,.68,.39,4.97-1.23,10.3-2.41,15.87-3.48,.19-.04,.34-.16,.42-.34l1.35-3.15c.21-.49,.92-.45,1.07,.06,.19,.63,.42,1.41,.67,2.25,.08,.28,.36,.45,.65,.4,1.65-.3,3.33-.59,5.02-.87,.11-.02,.21-.03,.32-.05-.09-2.39-.21-5.62-.29-7.52-.02-.53,.64-.8,1-.4l5.95,6.64c.13,.14,.32,.21,.51,.18,6.4-.91,12.54-1.61,18.29-2.08,.3-.02,.53-.28,.52-.59-.07-1.98-.16-4.12-.21-5.52-.02-.54,.64-.8,1-.4l5.24,5.84c.12,.13,.28,.2,.46,.19Z"/>
                <g>
                  <path d="M1980,1134.77c-4.71,8-7.07,12-11.77,20-120.33-83.11-186.8-189.51-207.89-334.6,5.68-.55,8.51-.82,14.19-1.37,24.48,139.72,87.53,237.09,205.48,315.98Z"/>
                  <g class="cls-4">
                    <g>
                      <path d="M1782.64,834.46c-11.2,1.53-16.8,2.3-28,3.83-.11-.83-.17-1.25-.28-2.08,11.21-1.48,16.81-2.22,28.02-3.7,.1,.78,.15,1.17,.26,1.94Z"/>
                      <path d="M1786.13,855.8c-11.1,2.12-16.66,3.18-27.76,5.3-.16-.82-.23-1.23-.38-2.05,11.11-2.07,16.67-3.1,27.79-5.17,.14,.77,.21,1.15,.36,1.92Z"/>
                      <path d="M1790.7,876.81c-10.98,2.7-16.47,4.04-27.45,6.74-.2-.81-.3-1.21-.49-2.02,10.99-2.65,16.49-3.97,27.48-6.61,.18,.75,.27,1.13,.46,1.89Z"/>
                      <path d="M1796.34,897.46c-10.82,3.26-16.24,4.9-27.06,8.16-.24-.79-.36-1.19-.59-1.98,10.84-3.22,16.26-4.82,27.1-8.04,.22,.74,.33,1.11,.55,1.85Z"/>
                      <path d="M1803.02,917.72c-10.64,3.82-15.96,5.73-26.6,9.55-.28-.77-.42-1.16-.69-1.94,10.66-3.77,15.99-5.66,26.64-9.43,.26,.73,.39,1.09,.65,1.82Z"/>
                      <path d="M1810.73,937.55c-10.43,4.37-15.64,6.55-26.07,10.92-.32-.76-.47-1.14-.79-1.9,10.45-4.32,15.67-6.48,26.12-10.8,.29,.71,.44,1.07,.74,1.77Z"/>
                      <path d="M1819.42,956.92c-10.19,4.9-15.28,7.35-25.47,12.25-.36-.74-.53-1.11-.88-1.85,10.21-4.85,15.32-7.28,25.53-12.13,.33,.69,.49,1.04,.83,1.73Z"/>
                      <path d="M1829.09,975.78c-9.92,5.42-14.88,8.13-24.8,13.54-.39-.72-.59-1.08-.98-1.8,9.95-5.37,14.92-8.06,24.87-13.43,.36,.67,.55,1.01,.91,1.68Z"/>
                      <path d="M1839.71,994.09c-9.63,5.92-14.45,8.88-24.07,14.8-.43-.7-.64-1.05-1.07-1.75,9.66-5.88,14.48-8.82,24.14-14.69,.4,.65,.6,.98,1,1.63Z"/>
                      <path d="M1851.25,1011.84c-9.31,6.41-13.97,9.61-23.28,16.02-.46-.67-.69-1.01-1.16-1.69,9.34-6.37,14.01-9.55,23.35-15.92,.43,.63,.65,.95,1.08,1.58Z"/>
                    </g>
                  </g>
                </g>
                <path d="M1713.77,781.98c-4.26-2.61-8.2-4.77-11.66-6.42-.35-.17-.35-.66,0-.83,10.37-5.13,27.67-1.37,42.65,10.21,14.98,11.58,22.98,27.37,20.63,38.71-.08,.38-.55,.5-.8,.2-2.53-3-5.71-6.36-9.42-9.93-.1-.1-.15-.23-.14-.37l.56-6.2c.04-.43-.48-.67-.78-.37-.79,.79-1.98,1.99-3.1,3.11-.17,.17-.45,.18-.63,.02-3.03-2.75-6.33-5.6-9.84-8.47-.12-.1-.18-.24-.17-.39l.25-2.72c.04-.43-.47-.67-.78-.37-.37,.37-.83,.83-1.32,1.33-.16,.16-.42,.18-.61,.04-1.05-.84-2.12-1.67-3.2-2.51-.07-.05-.14-.11-.21-.16,.97-1.65,2.28-3.87,3.05-5.18,.22-.37-.15-.81-.55-.66l-6.7,2.41c-.14,.05-.3,.03-.43-.06-4.15-3.07-8.21-5.89-12.08-8.4-.2-.13-.27-.4-.14-.61,.8-1.37,1.67-2.84,2.24-3.81,.22-.37-.15-.8-.55-.66l-5.9,2.12c-.13,.05-.27,.03-.39-.04Z"/>
                <path d="M1784.86,855.93c1.26,2.76,2.28,5.3,3.03,7.51,.07,.22,.37,.26,.5,.06,3.85-5.89,2.84-16.6-3.06-26.49-5.9-9.89-14.85-15.87-21.86-15.27-.23,.02-.34,.3-.18,.47,1.63,1.74,3.42,3.91,5.31,6.41,.05,.07,.13,.11,.21,.11l3.78,.11c.26,0,.37,.34,.16,.5-.54,.42-1.35,1.05-2.1,1.64-.12,.09-.14,.26-.06,.38,1.44,2.03,2.92,4.23,4.39,6.56,.05,.08,.13,.13,.23,.13l1.66,.05c.26,0,.37,.34,.16,.5-.25,.2-.56,.44-.9,.7-.11,.09-.14,.24-.07,.36,.43,.69,.86,1.4,1.28,2.11,.03,.05,.05,.09,.08,.14,1.07-.46,2.5-1.09,3.35-1.46,.24-.1,.48,.15,.36,.38l-1.94,3.87c-.04,.08-.04,.18,0,.26,1.55,2.73,2.96,5.39,4.19,7.9,.06,.13,.22,.19,.36,.13,.88-.39,1.83-.8,2.46-1.08,.24-.1,.47,.15,.36,.38l-1.71,3.41c-.04,.07-.04,.16,0,.24Z"/>
                <path d="M1828.53,857.76c4.51,3.35,8.44,6.55,11.61,9.46,.32,.29,.83,.09,.86-.34,.99-12.99-10.22-29.45-28.62-40.21-18.4-10.76-38.24-12.46-49.08-5.23-.36,.24-.29,.79,.12,.92,4.2,1.37,9.04,3.28,14.33,5.65,.14,.06,.31,.06,.45-.01l6.23-3.2c.43-.22,.9,.21,.71,.66-.49,1.16-1.24,2.91-1.94,4.54-.11,.25,0,.54,.25,.66,4.15,2,8.5,4.25,12.98,6.71,.15,.08,.33,.09,.48,0l2.74-1.4c.43-.22,.9,.21,.71,.66-.23,.54-.52,1.21-.83,1.94-.1,.24,0,.52,.22,.65,1.31,.74,2.64,1.5,3.97,2.28,.08,.05,.17,.1,.25,.15,1.31-1.7,3.08-4.01,4.12-5.37,.29-.38,.9-.19,.92,.29l.31,8.01c0,.17,.1,.33,.25,.42,4.95,3.04,9.6,6.09,13.85,9.06,.22,.16,.53,.11,.7-.11,1.09-1.42,2.26-2.94,3.03-3.94,.29-.38,.9-.19,.92,.3l.27,7.05c0,.16,.08,.3,.21,.39Z"/>
                <path d="M1717.35,854.02c-3.28,2.74-6.12,5.33-8.41,7.68-.23,.24-.63,.1-.67-.22-1.31-9.82,6.5-22.8,20.01-31.76,13.51-8.96,28.51-11.1,37.04-6.07,.28,.17,.25,.58-.06,.7-3.13,1.22-6.73,2.88-10.64,4.91-.11,.05-.23,.06-.34,.01l-4.87-2.16c-.33-.15-.67,.2-.51,.53,.43,.86,1.07,2.16,1.67,3.37,.09,.19,.02,.41-.16,.51-3.07,1.7-6.28,3.59-9.57,5.65-.11,.07-.25,.08-.37,.03l-2.14-.95c-.33-.15-.67,.2-.51,.53,.2,.4,.45,.9,.71,1.44,.09,.18,.03,.39-.14,.5-.97,.62-1.94,1.26-2.91,1.9-.06,.04-.12,.08-.18,.12-1.07-1.24-2.51-2.91-3.36-3.9-.24-.28-.69-.1-.69,.26l.11,6.1c0,.13-.06,.25-.17,.33-3.63,2.52-7.03,5.04-10.13,7.48-.16,.13-.4,.11-.53-.05-.89-1.03-1.84-2.14-2.47-2.87-.24-.28-.69-.1-.69,.26l.1,5.37c0,.12-.05,.23-.14,.31Z"/>
                <path d="M1746.72,821.96c6.82,.56,12.93,1.33,18.08,2.3,.52,.1,.92-.44,.67-.91-7.34-14.05-29.51-23.84-55.44-23.11-25.92,.73-47.51,11.75-54.05,26.19-.22,.48,.21,1,.72,.87,5.22-1.29,11.45-2.43,18.43-3.38,.19-.03,.36-.13,.45-.3l4.38-7.31c.3-.5,1.07-.36,1.15,.22,.23,1.51,.59,3.8,.92,5.94,.05,.33,.35,.56,.68,.52,5.58-.6,11.52-1.09,17.72-1.43,.21-.01,.4-.12,.5-.3l1.92-3.21c.3-.5,1.07-.36,1.15,.22,.11,.71,.24,1.59,.39,2.54,.05,.31,.32,.54,.64,.53,1.84-.08,3.69-.14,5.57-.2,.12,0,.24,0,.36,0,.26-2.6,.6-6.12,.8-8.19,.06-.58,.81-.77,1.14-.29l5.47,8.07c.12,.17,.31,.27,.52,.27,7.07-.05,13.84,.11,20.14,.44,.33,.02,.62-.23,.65-.56,.21-2.16,.44-4.49,.59-6.02,.06-.58,.81-.77,1.14-.29l4.82,7.11c.11,.16,.28,.26,.47,.27Z"/>
              </g>
              <g>
                <path d="M1896.19,869.41c2.98-2.45,5.75-4.54,8.22-6.17,.25-.16,.2-.54-.09-.63-8.49-2.8-21.3,1.95-31.5,12.43-10.2,10.48-14.61,23.42-11.58,31.83,.1,.28,.48,.32,.63,.07,1.61-2.57,3.68-5.48,6.13-8.61,.07-.08,.09-.19,.07-.3l-1.1-4.68c-.08-.32,.29-.56,.55-.36,.69,.52,1.73,1.31,2.71,2.04,.15,.11,.36,.09,.48-.06,2.02-2.43,4.23-4.96,6.61-7.54,.08-.09,.11-.21,.08-.32l-.48-2.06c-.08-.32,.29-.56,.55-.36,.32,.24,.72,.55,1.16,.87,.14,.11,.34,.09,.47-.04,.71-.75,1.44-1.51,2.17-2.27,.05-.05,.09-.1,.14-.14-.92-1.15-2.16-2.71-2.89-3.63-.21-.26,.02-.63,.35-.57l5.39,1.12c.12,.02,.24-.01,.32-.09,2.84-2.8,5.64-5.39,8.32-7.73,.14-.12,.16-.33,.04-.48-.76-.96-1.59-1.99-2.13-2.67-.21-.26,.03-.63,.35-.56l4.74,.98c.1,.02,.21,0,.3-.07Z"/>
                <path d="M1920.88,902.38c4.81,.39,9.12,.94,12.76,1.63,.37,.07,.65-.31,.47-.64-5.18-9.92-20.83-16.83-39.12-16.31-18.3,.51-33.54,8.29-38.15,18.48-.15,.34,.15,.7,.51,.61,3.68-.91,8.08-1.72,13.01-2.39,.13-.02,.25-.1,.32-.21l3.09-5.16c.21-.36,.75-.25,.82,.16,.16,1.07,.41,2.69,.65,4.19,.04,.23,.25,.39,.48,.37,3.93-.43,8.13-.77,12.51-1.01,.15,0,.28-.09,.35-.21l1.36-2.27c.21-.36,.75-.25,.81,.16,.08,.5,.17,1.12,.28,1.79,.03,.22,.23,.38,.45,.37,1.3-.06,2.61-.1,3.93-.14,.08,0,.17,0,.25,0,.18-1.84,.42-4.32,.57-5.78,.04-.41,.57-.55,.8-.2l3.86,5.7c.08,.12,.22,.19,.37,.19,4.99-.03,9.77,.08,14.21,.32,.24,.01,.44-.16,.46-.4,.15-1.53,.31-3.17,.41-4.25,.04-.41,.57-.54,.8-.2l3.4,5.02c.07,.11,.2,.18,.33,.19Z"/>
                <g>
                  <path d="M1990.87,1167.84c-4.44,5.63-6.66,8.44-11.1,14.07-83.4-76.15-123.15-164.5-124.14-277.71,4.4,.17,6.6,.26,11,.43,4.15,109.46,42.23,190.55,124.24,263.21Z"/>
                  <g class="cls-7">
                    <g>
                      <path d="M1871.21,917.47c-8.73,0-13.1,0-21.83,.01,0-.65,0-.97,0-1.62,8.73,.04,13.09,.05,21.82,.09,0,.61,0,.91,0,1.51Z"/>
                      <path d="M1871.65,934.15c-8.72,.46-13.08,.69-21.79,1.16-.03-.64-.05-.96-.08-1.61,8.72-.42,13.08-.63,21.8-1.05,.03,.6,.04,.9,.08,1.5Z"/>
                      <path d="M1872.95,950.71c-8.68,.92-13.02,1.38-21.7,2.29-.07-.64-.1-.96-.16-1.59,8.68-.88,13.03-1.32,21.71-2.19,.06,.6,.09,.89,.15,1.49Z"/>
                      <path d="M1875.11,967.1c-8.62,1.37-12.93,2.05-21.56,3.42-.1-.63-.15-.94-.25-1.58,8.63-1.33,12.94-1.99,21.57-3.32,.09,.59,.14,.89,.23,1.48Z"/>
                      <path d="M1878.11,983.3c-8.54,1.81-12.81,2.72-21.35,4.53-.13-.62-.2-.93-.33-1.56,8.55-1.78,12.82-2.66,21.37-4.43,.12,.58,.18,.87,.31,1.46Z"/>
                      <path d="M1881.94,999.28c-8.43,2.25-12.65,3.38-21.09,5.63-.16-.61-.24-.92-.41-1.53,8.44-2.21,12.67-3.32,21.11-5.53,.15,.57,.23,.86,.38,1.43Z"/>
                      <path d="M1886.57,1015c-8.31,2.68-12.46,4.03-20.77,6.71-.19-.6-.29-.9-.48-1.51,8.32-2.65,12.48-3.97,20.8-6.62,.18,.57,.27,.85,.45,1.41Z"/>
                      <path d="M1892,1030.44c-8.16,3.11-12.24,4.66-20.39,7.77-.23-.59-.34-.89-.56-1.48,8.17-3.07,12.26-4.61,20.43-7.68,.21,.55,.31,.83,.52,1.38Z"/>
                      <path d="M1898.21,1045.56c-7.99,3.52-11.98,5.29-19.97,8.81-.26-.58-.38-.87-.63-1.45,8-3.49,12-5.23,20.01-8.72,.24,.54,.35,.81,.59,1.35Z"/>
                      <path d="M1905.19,1060.34c-7.8,3.93-11.69,5.9-19.49,9.83-.28-.56-.43-.85-.71-1.41,7.81-3.9,11.72-5.85,19.53-9.74,.26,.53,.4,.79,.66,1.32Z"/>
                    </g>
                  </g>
                </g>
                <path d="M1823.99,870.12c-2.99-2.44-5.78-4.51-8.25-6.13-.25-.16-.2-.54,.08-.63,8.47-2.85,21.31,1.84,31.57,12.27,10.26,10.43,14.73,23.34,11.74,31.77-.1,.28-.47,.32-.63,.07-1.62-2.56-3.71-5.46-6.17-8.58-.07-.08-.09-.19-.07-.3l1.08-4.68c.07-.32-.29-.56-.56-.36-.69,.52-1.73,1.32-2.69,2.06-.15,.11-.36,.09-.48-.05-2.03-2.42-4.26-4.94-6.65-7.5-.08-.09-.11-.21-.09-.32l.47-2.06c.07-.32-.29-.56-.56-.36-.32,.25-.72,.55-1.15,.88-.14,.11-.34,.09-.47-.04-.72-.75-1.45-1.5-2.19-2.25-.05-.05-.09-.1-.14-.14,.91-1.16,2.15-2.72,2.88-3.65,.2-.26-.03-.63-.35-.56l-5.38,1.14c-.12,.02-.24-.01-.32-.09-2.86-2.78-5.67-5.36-8.36-7.69-.14-.12-.16-.33-.05-.48,.76-.96,1.58-2,2.11-2.68,.2-.26-.03-.63-.35-.56l-4.74,1.01c-.1,.02-.21,0-.3-.07Z"/>
                <path d="M1870.66,934.12c.68,2.25,1.19,4.29,1.53,6.06,.03,.18,.26,.24,.37,.1,3.56-4.1,3.91-12.41,.43-20.59-3.48-8.18-9.7-13.69-15.13-13.97-.18,0-.29,.19-.19,.34,1.06,1.51,2.21,3.35,3.39,5.46,.03,.06,.09,.1,.15,.11l2.88,.48c.2,.03,.25,.3,.07,.4-.45,.26-1.14,.66-1.78,1.04-.1,.06-.13,.18-.08,.28,.89,1.7,1.79,3.54,2.68,5.48,.03,.06,.09,.11,.16,.12l1.27,.21c.2,.03,.25,.3,.07,.4-.21,.12-.48,.28-.76,.44-.09,.06-.13,.17-.09,.27,.25,.58,.51,1.16,.76,1.75,.02,.04,.03,.07,.05,.11,.86-.24,2.03-.58,2.72-.77,.19-.06,.35,.16,.24,.33l-1.89,2.76c-.04,.06-.05,.13-.02,.2,.9,2.25,1.7,4.43,2.38,6.48,.04,.11,.15,.17,.26,.14,.72-.2,1.49-.42,2-.57,.19-.06,.35,.16,.23,.33l-1.66,2.43c-.04,.05-.05,.12-.03,.18Z"/>
                <path d="M1903.88,940.08c3.1,3.03,5.77,5.89,7.9,8.45,.21,.26,.63,.15,.7-.17,2.11-9.83-4.75-23.6-17.7-33.75-12.95-10.15-27.96-13.52-37-9.12-.3,.15-.3,.57,0,.72,3.07,1.49,6.58,3.45,10.37,5.82,.1,.06,.23,.08,.34,.04l5.1-1.8c.35-.12,.66,.26,.47,.58-.5,.83-1.26,2.1-1.96,3.27-.11,.18-.06,.41,.12,.53,2.97,1.97,6.06,4.14,9.23,6.49,.11,.08,.24,.1,.37,.06l2.24-.79c.35-.12,.66,.26,.47,.58-.23,.39-.52,.87-.84,1.4-.1,.17-.06,.4,.1,.52,.93,.71,1.86,1.43,2.8,2.16,.06,.05,.12,.09,.18,.14,1.18-1.17,2.78-2.75,3.71-3.68,.26-.26,.71-.05,.67,.32l-.6,6.16c-.01,.13,.04,.26,.14,.35,3.47,2.84,6.71,5.66,9.65,8.38,.16,.14,.39,.14,.54-.01,.98-.97,2.03-2.01,2.73-2.7,.26-.26,.71-.05,.67,.32l-.53,5.42c-.01,.12,.03,.24,.12,.32Z"/>
                <path d="M1819.2,925.61c-2.8,1.75-5.24,3.44-7.24,5-.2,.16-.49,.01-.49-.24,.02-7.65,7.35-16.77,18.62-22.21,11.27-5.44,22.97-5.52,28.98-.78,.2,.16,.13,.47-.12,.53-2.52,.61-5.45,1.5-8.65,2.64-.09,.03-.18,.02-.26-.03l-3.5-2.16c-.24-.15-.54,.08-.45,.35,.24,.7,.59,1.76,.93,2.75,.05,.15-.02,.32-.17,.38-2.52,.98-5.18,2.09-7.91,3.32-.09,.04-.2,.03-.28-.02l-1.54-.95c-.24-.15-.54,.08-.44,.35,.11,.33,.25,.73,.4,1.18,.05,.15-.02,.3-.16,.37-.8,.37-1.61,.76-2.43,1.15-.05,.03-.1,.05-.15,.08-.69-1.06-1.62-2.49-2.16-3.33-.15-.24-.52-.15-.55,.13l-.55,4.68c-.01,.1-.07,.19-.16,.23-3.04,1.55-5.91,3.12-8.53,4.66-.14,.08-.31,.04-.4-.1-.57-.88-1.18-1.83-1.59-2.45-.15-.24-.52-.15-.55,.13l-.49,4.12c-.01,.09-.06,.17-.14,.22Z"/>
                <path d="M1845.02,904.15c5.16,1.14,9.75,2.37,13.59,3.65,.39,.13,.75-.24,.61-.63-4.15-11.51-20.09-21.32-40.01-23.46-19.91-2.15-37.58,4.03-44.09,14.4-.22,.34,.06,.78,.46,.74,4.13-.44,9.02-.67,14.46-.67,.15,0,.29-.07,.38-.18l4.11-5.14c.28-.35,.85-.16,.86,.29,.02,1.18,.05,2.97,.08,4.64,0,.26,.21,.46,.47,.47,4.33,.12,8.93,.37,13.71,.76,.16,.01,.32-.05,.42-.18l1.81-2.26c.28-.35,.85-.16,.86,.29,0,.55,.02,1.24,.04,1.98,0,.25,.19,.45,.44,.47,1.41,.13,2.84,.27,4.28,.43,.09,0,.18,.02,.27,.03,.47-1.96,1.1-4.62,1.47-6.18,.1-.44,.7-.51,.9-.1l3.35,6.75c.07,.14,.21,.24,.37,.26,5.42,.7,10.58,1.53,15.36,2.44,.25,.05,.5-.11,.56-.36,.39-1.63,.8-3.39,1.08-4.55,.1-.44,.7-.51,.9-.1l2.95,5.94c.06,.13,.19,.23,.33,.26Z"/>
              </g>
              <path d="M1644.6,174.73c-21.7,10.71-32.13,29.59-32.13,29.59,0,0-1.69-7.33-7.05-4.51-.36,.19-.61,.46-.92,.69-.01-.03-.01-.05-.03-.09,0,0-16.52-11.71-28.4-14.35-11.89-2.64-31.03-10.35-36.1-18.27,0,0,5.28,11.71,20.25,16.31,14.97,4.6,31.51,8.78,41.84,21.99,0,0,.07-.01,.1-.02,.26,3.28,2.53,7.05,7.21,9.91,8.46,5.18,24.52-.11,24.52-.11-5.64,.85-10.43-3.38-10.43-3.38,1.13-9.58,17.19-24.52,38.33-39.74,21.14-15.22,21.14-27.06,21.14-27.06,0,0-16.63,18.32-38.33,29.03Z"/>
              <path d="M1531.27,681.75c9.63,4.75,14.26,13.13,14.26,13.13,0,0,.75-3.25,3.13-2,.16,.08,.27,.2,.41,.31,0-.01,0-.02,.01-.04,0,0,7.33-5.2,12.6-6.37,5.27-1.17,13.77-4.59,16.02-8.11,0,0-2.34,5.19-8.99,7.24-6.64,2.04-13.98,3.9-18.56,9.76,0,0-.03,0-.05,0-.12,1.46-1.12,3.13-3.2,4.4-3.75,2.3-10.88-.05-10.88-.05,2.5,.38,4.63-1.5,4.63-1.5-.5-4.25-7.63-10.88-17.01-17.63s-9.38-12.01-9.38-12.01c0,0,7.38,8.13,17.01,12.88Z"/>
              <path d="M335.6,214.81c32.56,16.07,48.21,44.4,48.21,44.4,0,0,2.54-10.99,10.57-6.77,.54,.28,.92,.68,1.37,1.03,.02-.05,.02-.08,.05-.13,0,0,24.78-17.57,42.62-21.53,17.83-3.96,46.56-15.52,54.16-27.41,0,0-7.93,17.57-30.38,24.47-22.46,6.9-47.27,13.18-62.77,32.99,0,0-.1-.02-.15-.03-.39,4.93-3.8,10.57-10.81,14.87-12.69,7.78-36.79-.17-36.79-.17,8.46,1.27,15.65-5.07,15.65-5.07-1.69-14.38-25.79-36.79-57.51-59.62-31.71-22.83-31.71-40.59-31.71-40.59,0,0,24.95,27.49,57.51,43.55Z"/>
            </g>
          </g>
        </g>
      </g>
    </g>
  </g>
</svg>