<?xml version="1.0" encoding="UTF-8"?>
<svg xmlns="http://www.w3.org/2000/svg" xmlns:xlink="http://www.w3.org/1999/xlink" viewBox="0 0 589.32 714.66">
  <defs>
    <style>
      .cls-1 {
        fill: none;
      }

      .cls-2 {
        clip-path: url(#clippath);
      }

      .cls-3 {
        clip-path: url(#clippath-1);
      }

      .cls-4 {
        clip-path: url(#clippath-2);
      }

      .cls-5 {
        mix-blend-mode: overlay;
      }

      .cls-6 {
        isolation: isolate;
      }
    </style>
    <clipPath id="clippath">
      <rect class="cls-1" width="518" height="613"/>
    </clipPath>
    <clipPath id="clippath-1">
      <path d="M578.45,667.52c-4.71,8-7.07,12-11.77,20-120.33-83.11-186.8-189.51-207.89-334.6,5.68-.55,8.51-.82,14.19-1.37,24.48,139.72,87.53,237.09,205.48,315.98Z"/>
    </clipPath>
    <clipPath id="clippath-2">
      <path d="M589.32,700.59c-4.44,5.63-6.66,8.44-11.1,14.07-83.4-76.15-123.15-164.5-124.14-277.71,4.4,.17,6.6,.26,11,.43,4.15,109.46,42.23,190.55,124.24,263.21Z"/>
    </clipPath>
  </defs>
  <g class="cls-6">
    <g id="Layer_2" data-name="Layer 2">
      <g id="Layer_1-2" data-name="Layer 1">
        <g class="cls-5">
          <g class="cls-2">
            <g>
              <g>
                <path d="M404.74,301.18c3.39-3.67,6.59-6.83,9.46-9.36,.29-.25,.16-.73-.22-.8-11.38-2.11-26.99,6.23-38.25,21.46-11.25,15.23-14.64,32.61-9.28,42.87,.18,.34,.67,.33,.83-.02,1.61-3.58,3.76-7.68,6.35-12.12,.07-.12,.08-.27,.03-.39l-2.23-5.81c-.15-.4,.27-.77,.65-.56,.97,.55,2.45,1.38,3.83,2.15,.21,.12,.48,.05,.61-.15,2.16-3.48,4.56-7.11,7.16-10.83,.09-.12,.11-.28,.05-.42l-.98-2.55c-.15-.4,.27-.77,.65-.56,.46,.26,1.02,.57,1.64,.92,.2,.11,.46,.06,.59-.13,.78-1.09,1.58-2.19,2.39-3.29,.05-.07,.1-.14,.15-.21-1.38-1.32-3.25-3.1-4.35-4.15-.31-.29-.08-.82,.35-.79l7.11,.49c.15,.01,.3-.06,.39-.18,3.16-4.09,6.29-7.91,9.32-11.38,.16-.18,.15-.46-.03-.63-1.15-1.1-2.38-2.27-3.2-3.05-.31-.29-.08-.81,.35-.78l6.26,.43c.14,0,.27-.05,.37-.15Z"/>
                <path d="M442.19,339.15c6.24-.34,11.87-.39,16.66-.15,.48,.02,.77-.51,.5-.91-8.38-11.82-29.67-17.94-53.05-14.08-23.39,3.86-41.58,16.5-45.71,30.39-.14,.46,.31,.88,.76,.7,4.57-1.81,10.07-3.62,16.28-5.34,.17-.05,.31-.17,.37-.33l3.06-7.16c.21-.49,.92-.45,1.07,.06,.4,1.34,1,3.37,1.57,5.27,.09,.29,.38,.46,.68,.39,4.97-1.23,10.3-2.41,15.87-3.48,.19-.04,.34-.16,.42-.34l1.35-3.15c.21-.49,.92-.45,1.07,.06,.19,.63,.42,1.41,.67,2.25,.08,.28,.36,.45,.65,.4,1.65-.3,3.33-.59,5.02-.87,.11-.02,.21-.03,.32-.05-.09-2.39-.21-5.62-.29-7.52-.02-.53,.64-.8,1-.4l5.95,6.64c.13,.14,.32,.21,.51,.18,6.4-.91,12.54-1.61,18.29-2.08,.3-.02,.53-.28,.52-.59-.07-1.98-.16-4.12-.21-5.52-.02-.54,.64-.8,1-.4l5.24,5.84c.12,.13,.28,.2,.46,.19Z"/>
                <g>
                  <path d="M578.45,667.52c-4.71,8-7.07,12-11.77,20-120.33-83.11-186.8-189.51-207.89-334.6,5.68-.55,8.51-.82,14.19-1.37,24.48,139.72,87.53,237.09,205.48,315.98Z"/>
                  <g class="cls-3">
                    <g>
                      <path d="M381.09,367.21c-11.2,1.53-16.8,2.3-28,3.83-.11-.83-.17-1.25-.28-2.08,11.21-1.48,16.81-2.22,28.02-3.7,.1,.78,.15,1.17,.26,1.94Z"/>
                      <path d="M384.58,388.54c-11.1,2.12-16.66,3.18-27.76,5.3-.16-.82-.23-1.23-.38-2.05,11.11-2.07,16.67-3.1,27.79-5.17,.14,.77,.21,1.15,.36,1.92Z"/>
                      <path d="M389.15,409.56c-10.98,2.7-16.47,4.04-27.45,6.74-.2-.81-.3-1.21-.49-2.02,10.99-2.65,16.49-3.97,27.48-6.61,.18,.75,.27,1.13,.46,1.89Z"/>
                      <path d="M394.79,430.21c-10.82,3.26-16.24,4.9-27.06,8.16-.24-.79-.36-1.19-.59-1.98,10.84-3.22,16.26-4.82,27.1-8.04,.22,.74,.33,1.11,.55,1.85Z"/>
                      <path d="M401.47,450.47c-10.64,3.82-15.96,5.73-26.6,9.55-.28-.77-.42-1.16-.69-1.94,10.66-3.77,15.99-5.66,26.64-9.43,.26,.73,.39,1.09,.65,1.82Z"/>
                      <path d="M409.18,470.3c-10.43,4.37-15.64,6.55-26.07,10.92-.32-.76-.47-1.14-.79-1.9,10.45-4.32,15.67-6.48,26.12-10.8,.29,.71,.44,1.07,.74,1.77Z"/>
                      <path d="M417.87,489.67c-10.19,4.9-15.28,7.35-25.47,12.25-.36-.74-.53-1.11-.88-1.85,10.21-4.85,15.32-7.28,25.53-12.13,.33,.69,.49,1.04,.83,1.73Z"/>
                      <path d="M427.54,508.52c-9.92,5.42-14.88,8.13-24.8,13.54-.39-.72-.59-1.08-.98-1.8,9.95-5.37,14.92-8.06,24.87-13.43,.36,.67,.55,1.01,.91,1.68Z"/>
                      <path d="M438.16,526.84c-9.63,5.92-14.45,8.88-24.07,14.8-.43-.7-.64-1.05-1.07-1.75,9.66-5.88,14.48-8.82,24.14-14.69,.4,.65,.6,.98,1,1.63Z"/>
                      <path d="M449.71,544.59c-9.31,6.41-13.97,9.61-23.28,16.02-.46-.67-.69-1.01-1.16-1.69,9.34-6.37,14.01-9.55,23.35-15.92,.43,.63,.65,.95,1.08,1.58Z"/>
                    </g>
                  </g>
                </g>
                <path d="M312.22,314.72c-4.26-2.61-8.2-4.77-11.66-6.42-.35-.17-.35-.66,0-.83,10.37-5.13,27.67-1.37,42.65,10.21,14.98,11.58,22.98,27.37,20.63,38.71-.08,.38-.55,.5-.8,.2-2.53-3-5.71-6.36-9.42-9.93-.1-.1-.15-.23-.14-.37l.56-6.2c.04-.43-.48-.67-.78-.37-.79,.79-1.98,1.99-3.1,3.11-.17,.17-.45,.18-.63,.02-3.03-2.75-6.33-5.6-9.84-8.47-.12-.1-.18-.24-.17-.39l.25-2.72c.04-.43-.47-.67-.78-.37-.37,.37-.83,.83-1.32,1.33-.16,.16-.42,.18-.61,.04-1.05-.84-2.12-1.67-3.2-2.51-.07-.05-.14-.11-.21-.16,.97-1.65,2.28-3.87,3.05-5.18,.22-.37-.15-.81-.55-.66l-6.7,2.41c-.14,.05-.3,.03-.43-.06-4.15-3.07-8.21-5.89-12.08-8.4-.2-.13-.27-.4-.14-.61,.8-1.37,1.67-2.84,2.24-3.81,.22-.37-.15-.8-.55-.66l-5.9,2.12c-.13,.05-.27,.03-.39-.04Z"/>
                <path d="M383.31,388.67c1.26,2.76,2.28,5.3,3.03,7.51,.07,.22,.37,.26,.5,.06,3.85-5.89,2.84-16.6-3.06-26.49-5.9-9.89-14.85-15.87-21.86-15.27-.23,.02-.34,.3-.18,.47,1.63,1.74,3.42,3.91,5.31,6.41,.05,.07,.13,.11,.21,.11l3.78,.11c.26,0,.37,.34,.16,.5-.54,.42-1.35,1.05-2.1,1.64-.12,.09-.14,.26-.06,.38,1.44,2.03,2.92,4.23,4.39,6.56,.05,.08,.13,.13,.23,.13l1.66,.05c.26,0,.37,.34,.16,.5-.25,.2-.56,.44-.9,.7-.11,.09-.14,.24-.07,.36,.43,.69,.86,1.4,1.28,2.11,.03,.05,.05,.09,.08,.14,1.07-.46,2.5-1.09,3.35-1.46,.24-.1,.48,.15,.36,.38l-1.94,3.87c-.04,.08-.04,.18,0,.26,1.55,2.73,2.96,5.39,4.19,7.9,.06,.13,.22,.19,.36,.13,.88-.39,1.83-.8,2.46-1.08,.24-.1,.47,.15,.36,.38l-1.71,3.41c-.04,.07-.04,.16,0,.24Z"/>
                <path d="M426.98,390.51c4.51,3.35,8.44,6.55,11.61,9.46,.32,.29,.83,.09,.86-.34,.99-12.99-10.22-29.45-28.62-40.21-18.4-10.76-38.24-12.46-49.08-5.23-.36,.24-.29,.79,.12,.92,4.2,1.37,9.04,3.28,14.33,5.65,.14,.06,.31,.06,.45-.01l6.23-3.2c.43-.22,.9,.21,.71,.66-.49,1.16-1.24,2.91-1.94,4.54-.11,.25,0,.54,.25,.66,4.15,2,8.5,4.25,12.98,6.71,.15,.08,.33,.09,.48,0l2.74-1.4c.43-.22,.9,.21,.71,.66-.23,.54-.52,1.21-.83,1.94-.1,.24,0,.52,.22,.65,1.31,.74,2.64,1.5,3.97,2.28,.08,.05,.17,.1,.25,.15,1.31-1.7,3.08-4.01,4.12-5.37,.29-.38,.9-.19,.92,.29l.31,8.01c0,.17,.1,.33,.25,.42,4.95,3.04,9.6,6.09,13.85,9.06,.22,.16,.53,.11,.7-.11,1.09-1.42,2.26-2.94,3.03-3.94,.29-.38,.9-.19,.92,.3l.27,7.05c0,.16,.08,.3,.21,.39Z"/>
                <path d="M315.8,386.76c-3.28,2.74-6.12,5.33-8.41,7.68-.23,.24-.63,.1-.67-.22-1.31-9.82,6.5-22.8,20.01-31.76,13.51-8.96,28.51-11.1,37.04-6.07,.28,.17,.25,.58-.06,.7-3.13,1.22-6.73,2.88-10.64,4.91-.11,.05-.23,.06-.34,.01l-4.87-2.16c-.33-.15-.67,.2-.51,.53,.43,.86,1.07,2.16,1.67,3.37,.09,.19,.02,.41-.16,.51-3.07,1.7-6.28,3.59-9.57,5.65-.11,.07-.25,.08-.37,.03l-2.14-.95c-.33-.15-.67,.2-.51,.53,.2,.4,.45,.9,.71,1.44,.09,.18,.03,.39-.14,.5-.97,.62-1.94,1.26-2.91,1.9-.06,.04-.12,.08-.18,.12-1.07-1.24-2.51-2.91-3.36-3.9-.24-.28-.69-.1-.69,.26l.11,6.1c0,.13-.06,.25-.17,.33-3.63,2.52-7.03,5.04-10.13,7.48-.16,.13-.4,.11-.53-.05-.89-1.03-1.84-2.14-2.47-2.87-.24-.28-.69-.1-.69,.26l.1,5.37c0,.12-.05,.23-.14,.31Z"/>
                <path d="M345.17,354.71c6.82,.56,12.93,1.33,18.08,2.3,.52,.1,.92-.44,.67-.91-7.34-14.05-29.51-23.84-55.44-23.11-25.92,.73-47.51,11.75-54.05,26.19-.22,.48,.21,1,.72,.87,5.22-1.29,11.45-2.43,18.43-3.38,.19-.03,.36-.13,.45-.3l4.38-7.31c.3-.5,1.07-.36,1.15,.22,.23,1.51,.59,3.8,.92,5.94,.05,.33,.35,.56,.68,.52,5.58-.6,11.52-1.09,17.72-1.43,.21-.01,.4-.12,.5-.3l1.92-3.21c.3-.5,1.07-.36,1.15,.22,.11,.71,.24,1.59,.39,2.54,.05,.31,.32,.54,.64,.53,1.84-.08,3.69-.14,5.57-.2,.12,0,.24,0,.36,0,.26-2.6,.6-6.12,.8-8.19,.06-.58,.81-.77,1.14-.29l5.47,8.07c.12,.17,.31,.27,.52,.27,7.07-.05,13.84,.11,20.14,.44,.33,.02,.62-.23,.65-.56,.21-2.16,.44-4.49,.59-6.02,.06-.58,.81-.77,1.14-.29l4.82,7.11c.11,.16,.28,.26,.47,.27Z"/>
              </g>
              <g>
                <path d="M494.64,402.16c2.98-2.45,5.75-4.54,8.22-6.17,.25-.16,.2-.54-.09-.63-8.49-2.8-21.3,1.95-31.5,12.43-10.2,10.48-14.61,23.42-11.58,31.83,.1,.28,.48,.32,.63,.07,1.61-2.57,3.68-5.48,6.13-8.61,.07-.08,.09-.19,.07-.3l-1.1-4.68c-.08-.32,.29-.56,.55-.36,.69,.52,1.73,1.31,2.71,2.04,.15,.11,.36,.09,.48-.06,2.02-2.43,4.23-4.96,6.61-7.54,.08-.09,.11-.21,.08-.32l-.48-2.06c-.08-.32,.29-.56,.55-.36,.32,.24,.72,.55,1.16,.87,.14,.11,.34,.09,.47-.04,.71-.75,1.44-1.51,2.17-2.27,.05-.05,.09-.1,.14-.14-.92-1.15-2.16-2.71-2.89-3.63-.21-.26,.02-.63,.35-.57l5.39,1.12c.12,.02,.24-.01,.32-.09,2.84-2.8,5.64-5.39,8.32-7.73,.14-.12,.16-.33,.04-.48-.76-.96-1.59-1.99-2.13-2.67-.21-.26,.03-.63,.35-.56l4.74,.98c.1,.02,.21,0,.3-.07Z"/>
                <path d="M519.34,435.12c4.81,.39,9.12,.94,12.76,1.63,.37,.07,.65-.31,.47-.64-5.18-9.92-20.83-16.83-39.12-16.31-18.3,.51-33.54,8.29-38.15,18.48-.15,.34,.15,.7,.51,.61,3.68-.91,8.08-1.72,13.01-2.39,.13-.02,.25-.1,.32-.21l3.09-5.16c.21-.36,.75-.25,.82,.16,.16,1.07,.41,2.69,.65,4.19,.04,.23,.25,.39,.48,.37,3.93-.43,8.13-.77,12.51-1.01,.15,0,.28-.09,.35-.21l1.36-2.27c.21-.36,.75-.25,.81,.16,.08,.5,.17,1.12,.28,1.79,.03,.22,.23,.38,.45,.37,1.3-.06,2.61-.1,3.93-.14,.08,0,.17,0,.25,0,.18-1.84,.42-4.32,.57-5.78,.04-.41,.57-.55,.8-.2l3.86,5.7c.08,.12,.22,.19,.37,.19,4.99-.03,9.77,.08,14.21,.32,.24,.01,.44-.16,.46-.4,.15-1.53,.31-3.17,.41-4.25,.04-.41,.57-.54,.8-.2l3.4,5.02c.07,.11,.2,.18,.33,.19Z"/>
                <g>
                  <path d="M589.32,700.59c-4.44,5.63-6.66,8.44-11.1,14.07-83.4-76.15-123.15-164.5-124.14-277.71,4.4,.17,6.6,.26,11,.43,4.15,109.46,42.23,190.55,124.24,263.21Z"/>
                  <g class="cls-4">
                    <g>
                      <path d="M469.66,450.22c-8.73,0-13.1,0-21.83,.01,0-.65,0-.97,0-1.62,8.73,.04,13.09,.05,21.82,.09,0,.61,0,.91,0,1.51Z"/>
                      <path d="M470.1,466.9c-8.72,.46-13.08,.69-21.79,1.16-.03-.64-.05-.96-.08-1.61,8.72-.42,13.08-.63,21.8-1.05,.03,.6,.04,.9,.08,1.5Z"/>
                      <path d="M471.4,483.46c-8.68,.92-13.02,1.38-21.7,2.29-.07-.64-.1-.96-.16-1.59,8.68-.88,13.03-1.32,21.71-2.19,.06,.6,.09,.89,.15,1.49Z"/>
                      <path d="M473.56,499.85c-8.62,1.37-12.93,2.05-21.56,3.42-.1-.63-.15-.94-.25-1.58,8.63-1.33,12.94-1.99,21.57-3.32,.09,.59,.14,.89,.23,1.48Z"/>
                      <path d="M476.56,516.05c-8.54,1.81-12.81,2.72-21.35,4.53-.13-.62-.2-.93-.33-1.56,8.55-1.78,12.82-2.66,21.37-4.43,.12,.58,.18,.87,.31,1.46Z"/>
                      <path d="M480.39,532.03c-8.43,2.25-12.65,3.38-21.09,5.63-.16-.61-.24-.92-.41-1.53,8.44-2.21,12.67-3.32,21.11-5.53,.15,.57,.23,.86,.38,1.43Z"/>
                      <path d="M485.02,547.75c-8.31,2.68-12.46,4.03-20.77,6.71-.19-.6-.29-.9-.48-1.51,8.32-2.65,12.48-3.97,20.8-6.62,.18,.57,.27,.85,.45,1.41Z"/>
                      <path d="M490.45,563.19c-8.16,3.11-12.24,4.66-20.39,7.77-.23-.59-.34-.89-.56-1.48,8.17-3.07,12.26-4.61,20.43-7.68,.21,.55,.31,.83,.52,1.38Z"/>
                      <path d="M496.66,578.31c-7.99,3.52-11.98,5.29-19.97,8.81-.26-.58-.38-.87-.63-1.45,8-3.49,12-5.23,20.01-8.72,.24,.54,.35,.81,.59,1.35Z"/>
                      <path d="M503.64,593.09c-7.8,3.93-11.69,5.9-19.49,9.83-.28-.56-.43-.85-.71-1.41,7.81-3.9,11.72-5.85,19.53-9.74,.26,.53,.4,.79,.66,1.32Z"/>
                    </g>
                  </g>
                </g>
                <path d="M422.44,402.87c-2.99-2.44-5.78-4.51-8.25-6.13-.25-.16-.2-.54,.08-.63,8.47-2.85,21.31,1.84,31.57,12.27,10.26,10.43,14.73,23.34,11.74,31.77-.1,.28-.47,.32-.63,.07-1.62-2.56-3.71-5.46-6.17-8.58-.07-.08-.09-.19-.07-.3l1.08-4.68c.07-.32-.29-.56-.56-.36-.69,.52-1.73,1.32-2.69,2.06-.15,.11-.36,.09-.48-.05-2.03-2.42-4.26-4.94-6.65-7.5-.08-.09-.11-.21-.09-.32l.47-2.06c.07-.32-.29-.56-.56-.36-.32,.25-.72,.55-1.15,.88-.14,.11-.34,.09-.47-.04-.72-.75-1.45-1.5-2.19-2.25-.05-.05-.09-.1-.14-.14,.91-1.16,2.15-2.72,2.88-3.65,.2-.26-.03-.63-.35-.56l-5.38,1.14c-.12,.02-.24-.01-.32-.09-2.86-2.78-5.67-5.36-8.36-7.69-.14-.12-.16-.33-.05-.48,.76-.96,1.58-2,2.11-2.68,.2-.26-.03-.63-.35-.56l-4.74,1.01c-.1,.02-.21,0-.3-.07Z"/>
                <path d="M469.11,466.87c.68,2.25,1.19,4.29,1.53,6.06,.03,.18,.26,.24,.37,.1,3.56-4.1,3.91-12.41,.43-20.59-3.48-8.18-9.7-13.69-15.13-13.97-.18,0-.29,.19-.19,.34,1.06,1.51,2.21,3.35,3.39,5.46,.03,.06,.09,.1,.15,.11l2.88,.48c.2,.03,.25,.3,.07,.4-.45,.26-1.14,.66-1.78,1.04-.1,.06-.13,.18-.08,.28,.89,1.7,1.79,3.54,2.68,5.48,.03,.06,.09,.11,.16,.12l1.27,.21c.2,.03,.25,.3,.07,.4-.21,.12-.48,.28-.76,.44-.09,.06-.13,.17-.09,.27,.25,.58,.51,1.16,.76,1.75,.02,.04,.03,.07,.05,.11,.86-.24,2.03-.58,2.72-.77,.19-.06,.35,.16,.24,.33l-1.89,2.76c-.04,.06-.05,.13-.02,.2,.9,2.25,1.7,4.43,2.38,6.48,.04,.11,.15,.17,.26,.14,.72-.2,1.49-.42,2-.57,.19-.06,.35,.16,.23,.33l-1.66,2.43c-.04,.05-.05,.12-.03,.18Z"/>
                <path d="M502.34,472.83c3.1,3.03,5.77,5.89,7.9,8.45,.21,.26,.63,.15,.7-.17,2.11-9.83-4.75-23.6-17.7-33.75-12.95-10.15-27.96-13.52-37-9.12-.3,.15-.3,.57,0,.72,3.07,1.49,6.58,3.45,10.37,5.82,.1,.06,.23,.08,.34,.04l5.1-1.8c.35-.12,.66,.26,.47,.58-.5,.83-1.26,2.1-1.96,3.27-.11,.18-.06,.41,.12,.53,2.97,1.97,6.06,4.14,9.23,6.49,.11,.08,.24,.1,.37,.06l2.24-.79c.35-.12,.66,.26,.47,.58-.23,.39-.52,.87-.84,1.4-.1,.17-.06,.4,.1,.52,.93,.71,1.86,1.43,2.8,2.16,.06,.05,.12,.09,.18,.14,1.18-1.17,2.78-2.75,3.71-3.68,.26-.26,.71-.05,.67,.32l-.6,6.16c-.01,.13,.04,.26,.14,.35,3.47,2.84,6.71,5.66,9.65,8.38,.16,.14,.39,.14,.54-.01,.98-.97,2.03-2.01,2.73-2.7,.26-.26,.71-.05,.67,.32l-.53,5.42c-.01,.12,.03,.24,.12,.32Z"/>
                <path d="M417.66,458.36c-2.8,1.75-5.24,3.44-7.24,5-.2,.16-.49,.01-.49-.24,.02-7.65,7.35-16.77,18.62-22.21,11.27-5.44,22.97-5.52,28.98-.78,.2,.16,.13,.47-.12,.53-2.52,.61-5.45,1.5-8.65,2.64-.09,.03-.18,.02-.26-.03l-3.5-2.16c-.24-.15-.54,.08-.45,.35,.24,.7,.59,1.76,.93,2.75,.05,.15-.02,.32-.17,.38-2.52,.98-5.18,2.09-7.91,3.32-.09,.04-.2,.03-.28-.02l-1.54-.95c-.24-.15-.54,.08-.44,.35,.11,.33,.25,.73,.4,1.18,.05,.15-.02,.3-.16,.37-.8,.37-1.61,.76-2.43,1.15-.05,.03-.1,.05-.15,.08-.69-1.06-1.62-2.49-2.16-3.33-.15-.24-.52-.15-.55,.13l-.55,4.68c-.01,.1-.07,.19-.16,.23-3.04,1.55-5.91,3.12-8.53,4.66-.14,.08-.31,.04-.4-.1-.57-.88-1.18-1.83-1.59-2.45-.15-.24-.52-.15-.55,.13l-.49,4.12c-.01,.09-.06,.17-.14,.22Z"/>
                <path d="M443.48,436.9c5.16,1.14,9.75,2.37,13.59,3.65,.39,.13,.75-.24,.61-.63-4.15-11.51-20.09-21.32-40.01-23.46-19.91-2.15-37.58,4.03-44.09,14.4-.22,.34,.06,.78,.46,.74,4.13-.44,9.02-.67,14.46-.67,.15,0,.29-.07,.38-.18l4.11-5.14c.28-.35,.85-.16,.86,.29,.02,1.18,.05,2.97,.08,4.64,0,.26,.21,.46,.47,.47,4.33,.12,8.93,.37,13.71,.76,.16,.01,.32-.05,.42-.18l1.81-2.26c.28-.35,.85-.16,.86,.29,0,.55,.02,1.24,.04,1.98,0,.25,.19,.45,.44,.47,1.41,.13,2.84,.27,4.28,.43,.09,0,.18,.02,.27,.03,.47-1.96,1.1-4.62,1.47-6.18,.1-.44,.7-.51,.9-.1l3.35,6.75c.07,.14,.21,.24,.37,.26,5.42,.7,10.58,1.53,15.36,2.44,.25,.05,.5-.11,.56-.36,.39-1.63,.8-3.39,1.08-4.55,.1-.44,.7-.51,.9-.1l2.95,5.94c.06,.13,.19,.23,.33,.26Z"/>
              </g>
            </g>
          </g>
        </g>
      </g>
    </g>
  </g>
</svg>